<svg width="102" height="1212" fill="none" xmlns="http://www.w3.org/2000/svg"><g opacity=".6"><path d="M1.336 1040.65c0-27.32 22.233-49.557 49.556-49.557 27.322 0 49.555 22.237 49.555 49.557 0 27.32-22.233 49.55-49.556 49.55-27.322 0-49.555-22.23-49.555-49.55zm95.54 0c0-25.36-20.63-45.987-45.985-45.987S4.907 1015.29 4.907 1040.65c0 25.35 20.63 45.98 45.986 45.98 25.355 0 45.985-20.63 45.985-45.98zM1.333 1161.79c0-.98.802-1.78 1.78-1.78.979 0 1.78.81 1.78 1.78 0 25.36 20.63 45.99 45.985 45.99 25.356 0 45.986-20.63 45.986-45.99 0-.98.801-1.78 1.78-1.78.978 0 1.779.81 1.779 1.78 0 27.33-22.232 49.56-49.555 49.56s-49.556-22.23-49.556-49.56h.021z" fill="#478BF9"/><path d="M98.932 1039.45H77.231v4.28h21.701v-4.28zm-74.722 0H2.508v4.28H24.21v-4.28zm28.99 28.98h-4.278v21.7H53.2v-21.7zm0-75.381h-4.278v21.701H53.2v-21.701z" fill="#478BF9"/><path d="M76.575 1014.44c-14.843-14.844-38.918-14.844-53.771 0-14.843 14.84-14.843 38.92 0 53.77 14.843 14.84 38.918 14.84 53.771 0 14.843-14.84 14.843-38.92 0-53.77zm-19.537 3.22a24.788 24.788 0 0111.23 7.26l.584.66-.854.19a68.34 68.34 0 01-7.171 1.29l-.448.07-.125-.44c-.416-1.43-.905-2.8-1.467-4.07-.698-1.59-1.478-2.99-2.332-4.16l-.937-1.28 1.52.47v.01zm-17.372 22.48l.02-.54c.105-3.29.47-6.44 1.094-9.33l.093-.46.469.04a94.85 94.85 0 0016.768-.05l.468-.04.104.46c.635 2.92 1 6.08 1.093 9.38v.54H39.666zm20.11 2.41v.54c-.115 3.3-.48 6.46-1.114 9.38l-.104.46-.469-.04c-5.444-.51-11.293-.52-16.768-.05l-.468.04-.094-.46c-.625-2.89-.989-6.03-1.093-9.33l-.02-.54h20.129zm-10.055-25.8c3.029 0 6.11 3.84 8.035 10.03l.198.63-.656.05c-2.56.22-5.204.33-7.858.33a88.21 88.21 0 01-7.318-.29l-.655-.05.197-.63c1.926-6.22 5.017-10.08 8.057-10.08v.01zm-18.653 8.29a24.754 24.754 0 0111.335-7.37l1.53-.47-.947 1.29c-.853 1.16-1.644 2.57-2.331 4.15a33.56 33.56 0 00-1.489 4.14l-.125.43-.447-.05a70.43 70.43 0 01-7.245-1.26l-.864-.2.583-.66zm-6.078 14.54a24.83 24.83 0 013.768-11.46l.208-.33.375.1a74.23 74.23 0 008.555 1.6l.563.07-.115.56c-.625 3.02-.978 6.22-1.072 9.51v.51H24.959l.041-.56h-.01zm3.976 15.32l-.208-.33a24.792 24.792 0 01-3.768-11.46l-.042-.56h12.303v.51c.104 3.29.468 6.5 1.083 9.51l.114.56-.562.07c-3.008.39-5.891.93-8.556 1.6l-.375.1h.01zm13.437 10.14a24.914 24.914 0 01-11.335-7.37l-.583-.67.864-.2c2.29-.52 4.726-.94 7.245-1.26l.447-.05.125.43c.438 1.5.937 2.89 1.489 4.14.697 1.59 1.478 2.99 2.331 4.16l.948 1.29-1.53-.46v-.01zm7.318.9c-3.04 0-6.131-3.86-8.057-10.07l-.197-.64.655-.05c4.965-.4 10.253-.39 15.176.04l.656.05-.198.63c-1.936 6.18-5.017 10.03-8.035 10.03v.01zm18.548-8.17a24.945 24.945 0 01-11.231 7.27l-1.52.46.937-1.28c.854-1.16 1.634-2.57 2.332-4.16a35.046 35.046 0 001.467-4.07l.125-.44.448.07c2.498.32 4.913.76 7.171 1.29l.854.2-.583.66zm6.172-14.66a24.79 24.79 0 01-3.84 11.59l-.209.32-.374-.09c-2.634-.7-5.496-1.25-8.494-1.66l-.562-.07.114-.55c.625-3.02.99-6.24 1.083-9.58v-.51h12.313l-.041.57.01-.02zm-12.261-2.97v-.51c-.104-3.34-.469-6.57-1.093-9.58l-.115-.55.563-.07c2.997-.41 5.85-.96 8.493-1.66l.375-.09.208.32a24.675 24.675 0 013.84 11.59l.042.56H62.19l-.01-.01zm-60.906 122.4v-119.59c0-.99.801-1.78 1.78-1.78.978 0 1.78.8 1.78 1.78v119.59a1.779 1.779 0 11-3.56 0zm95.55.27v-119.59a1.779 1.779 0 113.56 0v119.59a1.779 1.779 0 11-3.56 0z" fill="#478BF9"/><path d="M16.406 953.639c-19.49-19.49-19.49-51.199 0-70.688 19.49-19.49 51.199-19.49 70.688 0 19.49 19.489 19.49 51.198 0 70.688-19.49 19.489-51.198 19.489-70.688 0zm68.333-68.333c-18.191-18.191-47.786-18.191-65.972 0-18.191 18.191-18.191 47.786 0 65.972 18.19 18.191 47.786 18.191 65.972 0 18.191-18.191 18.191-47.786 0-65.972z" fill="#fff"/><path d="M85.278 907.692a1.64 1.64 0 01-.398-.645c-1.73-5.119-4.555-9.654-8.394-13.494a34.67 34.67 0 00-13.494-8.394 1.666 1.666 0 01-1.133-1.578v-12.148a1.666 1.666 0 012.066-1.616 49.87 49.87 0 0123.16 13.134 49.92 49.92 0 0113.128 23.158c.123.498.01 1.024-.303 1.431-.318.408-.801.64-1.313.64H86.449c-.455 0-.872-.185-1.18-.493l.01.005zm-6.436-16.494a37.982 37.982 0 018.792 13.65h8.787a46.61 46.61 0 00-11.688-19.542 46.56 46.56 0 00-19.537-11.683v8.787a37.869 37.869 0 0113.65 8.792l-.004-.004zm-62.437 62.441A49.916 49.916 0 013.271 930.48a1.672 1.672 0 01.304-1.426c.317-.408.8-.64 1.313-.64h12.147c.716 0 1.351.455 1.579 1.133 1.73 5.119 4.555 9.654 8.394 13.494a34.671 34.671 0 0013.494 8.394 1.662 1.662 0 011.133 1.578v12.148c0 .512-.237.995-.64 1.313a1.673 1.673 0 01-1.432.303 49.927 49.927 0 01-23.158-13.129v-.009zm-9.332-21.898a46.61 46.61 0 0011.688 19.542 46.61 46.61 0 0019.542 11.688v-8.787a37.911 37.911 0 01-13.65-8.788 37.98 37.98 0 01-8.793-13.65H7.073v-.005zm55.282 34.591a1.665 1.665 0 01-.488-1.18v-12.148c0-.716.455-1.351 1.133-1.579 5.119-1.73 9.655-4.555 13.494-8.394a34.642 34.642 0 008.394-13.494 1.663 1.663 0 011.578-1.132h12.148c.512 0 .996.237 1.313.639.318.403.427.934.303 1.427a49.968 49.968 0 01-13.133 23.158 49.87 49.87 0 01-23.159 13.134 1.673 1.673 0 01-1.426-.303c-.052-.048-.105-.09-.152-.138l-.005.01zm2.844-12.153v8.788a46.612 46.612 0 0019.542-11.689 46.648 46.648 0 0011.688-19.541h-8.787c-1.92 5.147-4.873 9.73-8.792 13.65-3.915 3.915-8.503 6.873-13.65 8.792zM3.708 907.692a1.666 1.666 0 01-.436-1.583 49.867 49.867 0 0113.134-23.158 49.936 49.936 0 0123.158-13.134 1.673 1.673 0 011.427.303c.403.318.64.801.64 1.313v12.148c0 .716-.455 1.351-1.133 1.578-5.119 1.73-9.655 4.555-13.494 8.394a34.667 34.667 0 00-8.394 13.494 1.663 1.663 0 01-1.578 1.133H4.884a1.67 1.67 0 01-1.18-.483l.004-.005zm34.59-34.069a46.61 46.61 0 00-19.541 11.688 46.658 46.658 0 00-11.688 19.542h8.787c1.92-5.148 4.873-9.731 8.792-13.651a37.988 37.988 0 0113.65-8.792v-8.787z" fill="#fff"/><path d="M78.846 891.198c-14.94-14.94-39.255-14.945-54.194 0-14.945 14.944-14.94 39.254 0 54.194 14.94 14.939 39.25 14.944 54.194 0 14.944-14.945 14.94-39.255 0-54.194z" fill="#fff"/><path d="M65.572 931.972l-27.527.183a2.1 2.1 0 00-2.086 2.113l.006.981a2.1 2.1 0 002.114 2.086l27.528-.182a2.1 2.1 0 002.085-2.114l-.006-.981a2.1 2.1 0 00-2.114-2.086zm-23.777-16.616c-.298 0-.602-.066-.877-.199l-2.147-1.038a1.984 1.984 0 01-.971-2.522l.986-2.455a1.977 1.977 0 012.815-.981l2.56 1.46a1.986 1.986 0 01.65 2.844l-1.404 2.033a1.967 1.967 0 01-1.616.853l.004.005zm19.815-.133a1.986 1.986 0 01-1.626-.834l-1.388-1.957c-.323-.451-.436-1.019-.323-1.56.114-.54.455-1.014.934-1.294l2.64-1.55c.299-.175.64-.27.986-.275a1.984 1.984 0 011.844 1.219l.995 2.384a1.99 1.99 0 01-.938 2.535l-2.247 1.124a2.01 2.01 0 01-.872.208h-.005z" fill="#110A1D"/><path d="M39.633 930.315a2.86 2.86 0 01-2.707-1.887l-4.592-12.641a4.79 4.79 0 01-.925.332 4.607 4.607 0 01-1.137.142 4.85 4.85 0 01-.654-.038 4.85 4.85 0 01-4.223-4.772 4.854 4.854 0 014.815-4.882 4.847 4.847 0 014.877 4.815c0 .616-.104 1.209-.322 1.763a5.29 5.29 0 01-.436.868l8.735 4.228 6.683-9.684a4.533 4.533 0 01-.806-.441 4.886 4.886 0 01-1.246-1.213 4.82 4.82 0 01-.896-2.773 4.855 4.855 0 015.176-4.872 4.858 4.858 0 014.503 4.474 4.835 4.835 0 01-2.1 4.366 4.387 4.387 0 01-.801.44l6.802 9.584 8.593-4.299a5.003 5.003 0 01-.384-.967 4.712 4.712 0 01-.176-1.265 4.843 4.843 0 014.81-4.877 4.847 4.847 0 01.37 9.683l-.302.009c-.494 0-.977-.066-1.446-.208a4.773 4.773 0 01-.872-.365l-4.313 12.394a2.862 2.862 0 01-2.683 1.92l-24.343.161v.005z" fill="#110A1D"/><path d="M51.342 840.594c-12.699 0-25.387-4.83-35.056-14.499-19.33-19.329-19.33-50.773 0-70.102 9.367-9.368 21.816-14.52 35.056-14.52 13.24 0 25.689 5.152 35.056 14.52 19.329 19.329 19.329 50.773 0 70.102-9.659 9.659-22.358 14.499-35.056 14.499zm-32.454-17.101c17.892 17.892 47.005 17.892 64.898 0 17.892-17.893 17.892-47.006 0-64.898-8.67-8.671-20.193-13.438-32.454-13.438-12.262 0-23.784 4.778-32.455 13.438-17.892 17.892-17.892 47.005 0 64.898h.01z" fill="#7DDACF"/><path d="M53.176 780.609l-9.18 12.865h5.506v9.181l9.18-12.855h-5.506v-9.191z" fill="#7DDACF"/><path d="M51.332 773.458c-10.054 0-18.215 8.161-18.215 18.216 0 10.054 8.16 18.194 18.215 18.194s18.215-8.16 18.215-18.194c0-10.034-8.16-18.216-18.215-18.216zm0 34.162c-8.826 0-15.987-7.161-15.987-15.988s7.16-15.988 15.987-15.988 15.988 7.161 15.988 15.988-7.161 15.988-15.988 15.988z" fill="#7DDACF"/><path d="M79.49 762.894c-7.516-7.526-17.518-11.658-28.156-11.658-10.638 0-20.63 4.143-28.156 11.658-15.519 15.519-15.519 40.781 0 56.31 7.765 7.765 17.955 11.648 28.156 11.648 10.2 0 20.39-3.883 28.155-11.648 15.52-15.519 15.52-40.781 0-56.31zm-28.156 53.49c-13.615 0-24.7-11.085-24.7-24.7 0-6.016 2.155-11.533 5.735-15.842l-3.018-3.018a2.231 2.231 0 010-3.144c.864-.874 2.269-.864 3.143 0l3.019 3.019c3.747-3.133 8.462-5.194 13.604-5.631v-2.04h-2.04c-1.8 0-3.29-1.489-3.29-3.29v-1.717a3.296 3.296 0 013.29-3.289h8.535c1.8 0 3.289 1.467 3.289 3.289v1.717a3.31 3.31 0 01-3.29 3.29h-2.04v2.04c5.153.447 9.858 2.508 13.605 5.631l3.018-3.019a2.23 2.23 0 013.144 0 2.231 2.231 0 010 3.144l-3.019 3.018c3.58 4.309 5.735 9.815 5.735 15.842 0 13.615-11.085 24.7-24.7 24.7h-.02z" fill="#7DDACF"/><path d="M50.334 722.31C23.011 722.31.79 700.078.79 672.765c0-27.312 22.233-49.545 49.545-49.545 27.313 0 49.545 22.233 49.545 49.545 0 27.313-22.233 49.545-49.545 49.545zm0-95.79c-25.501 0-46.245 20.744-46.245 46.245 0 25.501 20.744 46.246 46.245 46.246 25.501 0 46.246-20.745 46.246-46.246S75.835 626.52 50.334 626.52z" fill="#fff"/><path d="M82.662 637.411L67.325 652.75l3.018 3.017 15.338-15.338-3.018-3.018zM29.866 690.21l-15.339 15.338 3.018 3.018 15.338-15.338-3.018-3.018zm40.941-.003l-3.018 3.018 15.338 15.338 3.018-3.017-15.338-15.339zm-53.251-53.261l-3.017 3.018 15.33 15.331 3.018-3.018-15.33-15.331zm44.874 37.152c1-1 1-2.613 0-3.602l-2.123-2.113a2.538 2.538 0 00-3.602 0l-1.145 1.145-1.322-1.322a2.538 2.538 0 00-3.601 0l-1.145 1.156-1.322-1.333a2.538 2.538 0 00-3.601 0l-7.026 7.026c-.052.052-.052.136 0 .198a2.425 2.425 0 003.414 0l4.528-4.528a1.25 1.25 0 011.77 0l.332.333a.152.152 0 010 .219l-3.778 3.778c-.052.052-.052.136 0 .198a2.425 2.425 0 003.414 0l4.34-4.34a1.25 1.25 0 011.77 0l.333.333c.052.052.052.135 0 .197l-3.643 3.644c-.052.052-.052.135 0 .197a2.425 2.425 0 003.414 0l4.195-4.194a1.25 1.25 0 011.77 0l.717.718a.735.735 0 010 1.03l-.114.115a.735.735 0 01-1.03 0l-.927-.927c-.052-.052-.135-.052-.198 0l-1.603 1.603c-.052.052-.052.136 0 .198l1.447 1.447c1 .999 2.613.999 3.601 0l1.145-1.145-.01-.031z" fill="#fff"/><path d="M50.335 634.763c-20.983 0-37.991 17.008-37.991 37.992 0 20.984 17.008 37.991 37.991 37.991 20.984 0 37.992-17.007 37.992-37.991 0-20.984-17.008-37.992-37.992-37.992zm1.551 11.731a26.212 26.212 0 0115.925 6.599l-5.485 5.485a18.518 18.518 0 00-10.44-4.33v-7.754zm-3.091 0v7.754a18.45 18.45 0 00-10.44 4.33l-5.485-5.485a26.213 26.213 0 0115.925-6.599zm-18.111 8.785l5.485 5.485a18.519 18.519 0 00-4.33 10.44h-7.754a26.214 26.214 0 016.599-15.925zm-6.6 19.016h7.755a18.444 18.444 0 004.33 10.44l-5.485 5.486a26.217 26.217 0 01-6.6-15.926zm24.71 24.711a26.214 26.214 0 01-15.924-6.6l5.485-5.485a18.518 18.518 0 0010.44 4.33v7.755zm-14.426-26.261c0-8.817 7.151-15.967 15.967-15.967s15.967 7.15 15.967 15.967c0 8.816-7.15 15.966-15.967 15.966-8.816 0-15.967-7.15-15.967-15.966zm17.518 26.261v-7.755a18.45 18.45 0 0010.44-4.33l5.485 5.485a26.213 26.213 0 01-15.925 6.6zm18.111-8.785l-5.485-5.486a18.516 18.516 0 004.33-10.44h7.754a26.217 26.217 0 01-6.599 15.926zm-1.155-19.017a18.447 18.447 0 00-4.33-10.44l5.485-5.485a26.214 26.214 0 016.6 15.925h-7.755z" fill="#fff"/><path d="M1.336 417.428c0-27.323 22.233-49.555 49.556-49.555 27.322 0 49.555 22.232 49.555 49.555s-22.233 49.556-49.556 49.556c-27.322 0-49.555-22.233-49.555-49.556zm95.54 0c0-25.355-20.63-45.985-45.985-45.985s-45.985 20.63-45.985 45.985 20.63 45.985 45.986 45.985c25.355 0 45.985-20.63 45.985-45.985zM1.333 538.574a1.78 1.78 0 113.56 0c0 25.356 20.63 45.985 45.985 45.985 25.356 0 45.986-20.629 45.986-45.985a1.779 1.779 0 113.559 0c0 27.323-22.232 49.556-49.555 49.556S1.312 565.897 1.312 538.574h.021z" fill="#478BF9"/><path d="M98.932 416.231H77.231v4.278h21.701v-4.278zm-74.722 0H2.508v4.278H24.21v-4.278zm28.99 28.978h-4.278v21.702H53.2v-21.702zm0-75.38h-4.278v21.702H53.2v-21.702z" fill="#478BF9"/><path d="M76.575 391.219c-14.843-14.843-38.918-14.843-53.771 0-14.843 14.843-14.843 38.918 0 53.771 14.843 14.843 38.918 14.843 53.771 0 14.843-14.843 14.843-38.918 0-53.771zm-19.537 3.216a24.79 24.79 0 0111.23 7.265l.584.656-.854.198a71.631 71.631 0 01-7.171 1.291l-.448.062-.125-.437a32.87 32.87 0 00-1.467-4.07c-.698-1.592-1.478-2.987-2.332-4.163l-.937-1.281 1.52.469v.01zm-17.372 22.483l.02-.541c.105-3.29.47-6.433 1.094-9.326l.093-.458.469.041a94.945 94.945 0 0016.768-.052l.468-.042.104.458c.635 2.925 1 6.079 1.093 9.379v.541H39.666zm20.11 2.415v.541c-.115 3.299-.48 6.453-1.114 9.378l-.104.458-.469-.042c-5.444-.51-11.293-.52-16.768-.052l-.468.042-.094-.458c-.625-2.894-.989-6.027-1.093-9.326l-.02-.541h20.129zM49.72 393.53c3.029 0 6.11 3.84 8.035 10.034l.198.624-.656.052a92.59 92.59 0 01-7.858.333c-2.467 0-4.924-.093-7.318-.291l-.655-.052.197-.635c1.926-6.214 5.017-10.076 8.057-10.076v.011zm-18.653 8.285a24.808 24.808 0 0111.335-7.369l1.53-.469-.947 1.291c-.853 1.166-1.644 2.571-2.331 4.153a33.611 33.611 0 00-1.489 4.143l-.125.426-.447-.052a70.706 70.706 0 01-7.245-1.259l-.864-.198.583-.666zm-6.078 14.541a24.849 24.849 0 013.768-11.46l.208-.323.375.094a71.937 71.937 0 008.555 1.603l.563.073-.115.562c-.625 3.018-.978 6.214-1.072 9.503v.51H24.959l.041-.562h-.01zm3.976 15.321l-.208-.322a24.815 24.815 0 01-3.768-11.46l-.042-.562H37.25v.51c.104 3.289.468 6.495 1.083 9.503l.114.562-.562.073a72.137 72.137 0 00-8.556 1.603l-.375.093h.01zm13.437 10.138a24.808 24.808 0 01-11.335-7.369l-.583-.666.864-.198a73.84 73.84 0 017.245-1.259l.447-.052.125.426a33.611 33.611 0 001.489 4.143c.697 1.593 1.478 2.987 2.331 4.163l.948 1.291-1.53-.468v-.011zm7.318.906c-3.04 0-6.131-3.862-8.057-10.076l-.197-.635.655-.052a93.534 93.534 0 0115.176.042l.656.052-.198.625c-1.936 6.182-5.017 10.033-8.035 10.033v.011zm18.548-8.171a24.836 24.836 0 01-11.231 7.265l-1.52.469.937-1.281c.854-1.165 1.634-2.57 2.332-4.163a35.315 35.315 0 001.467-4.07l.125-.437.448.063c2.498.322 4.913.759 7.171 1.29l.854.208-.583.656zm6.172-14.655a24.792 24.792 0 01-3.84 11.585l-.209.322-.374-.093c-2.634-.698-5.496-1.25-8.494-1.655l-.562-.073.114-.552c.625-3.018.99-6.235 1.083-9.576v-.51h12.313l-.041.562.01-.01zm-12.261-2.977v-.51c-.104-3.341-.469-6.568-1.093-9.576l-.115-.552.563-.073c2.997-.406 5.85-.957 8.493-1.655l.375-.093.208.322a24.642 24.642 0 013.84 11.585l.042.562H62.19l-.01-.01zM1.274 539.324V419.728a1.78 1.78 0 113.56 0v119.596a1.779 1.779 0 11-3.56 0zm95.55.27V419.999a1.779 1.779 0 113.56 0v119.595a1.78 1.78 0 11-3.56 0z" fill="#478BF9"/><path d="M14.617 330.419c-19.49-19.49-19.49-51.199 0-70.689 19.49-19.489 51.199-19.489 70.688 0 19.49 19.49 19.49 51.199 0 70.689-19.49 19.489-51.198 19.489-70.688 0zm68.333-68.333c-18.191-18.191-47.786-18.191-65.972 0-18.191 18.191-18.191 47.786 0 65.972 18.19 18.191 47.785 18.191 65.972 0 18.191-18.191 18.191-47.786 0-65.972z" fill="#fff"/><path d="M83.49 284.472a1.644 1.644 0 01-.399-.645c-1.73-5.119-4.555-9.655-8.394-13.494a34.672 34.672 0 00-13.494-8.394 1.667 1.667 0 01-1.133-1.578v-12.148c0-.512.237-.995.64-1.313a1.66 1.66 0 011.427-.303 49.868 49.868 0 0123.158 13.133 49.931 49.931 0 0113.13 23.159 1.69 1.69 0 01-.304 1.431c-.318.408-.801.64-1.313.64H84.66c-.455 0-.872-.185-1.18-.493l.01.005zm-6.437-16.495a37.985 37.985 0 018.792 13.651h8.787a46.61 46.61 0 00-11.688-19.542 46.56 46.56 0 00-19.537-11.683v8.787a37.855 37.855 0 0113.65 8.792l-.004-.005zm-62.437 62.441A49.907 49.907 0 011.482 307.26a1.66 1.66 0 011.616-2.066h12.148c.716 0 1.351.455 1.579 1.132 1.73 5.119 4.555 9.655 8.394 13.494a34.649 34.649 0 0013.494 8.394 1.664 1.664 0 011.133 1.579v12.148c0 .512-.237.995-.64 1.313a1.673 1.673 0 01-1.432.303 49.927 49.927 0 01-23.158-13.129v-.01zm-9.332-21.897a46.61 46.61 0 0011.688 19.542 46.61 46.61 0 0019.542 11.688v-8.788a37.88 37.88 0 01-13.65-8.787 37.982 37.982 0 01-8.793-13.65H5.284v-.005zm55.282 34.591a1.665 1.665 0 01-.488-1.181v-12.148c0-.715.455-1.35 1.133-1.578 5.119-1.73 9.655-4.555 13.494-8.394a34.64 34.64 0 008.394-13.494 1.663 1.663 0 011.578-1.133h12.148c.512 0 .995.237 1.313.64.318.403.427.934.303 1.427a49.978 49.978 0 01-13.133 23.158 49.878 49.878 0 01-23.159 13.134 1.676 1.676 0 01-1.426-.303c-.052-.048-.105-.091-.152-.138l-.005.01zm2.844-12.153v8.787a46.6 46.6 0 0019.542-11.688 46.66 46.66 0 0011.688-19.542h-8.787c-1.92 5.148-4.873 9.731-8.792 13.651-3.916 3.915-8.504 6.872-13.65 8.792zM1.92 284.472a1.667 1.667 0 01-.436-1.583 49.874 49.874 0 0113.133-23.159 49.934 49.934 0 0123.158-13.133 1.67 1.67 0 011.427.303c.403.317.64.801.64 1.313v12.148c0 .715-.455 1.351-1.133 1.578-5.119 1.73-9.655 4.555-13.494 8.394a34.667 34.667 0 00-8.394 13.494 1.663 1.663 0 01-1.579 1.133H3.095c-.446 0-.873-.175-1.18-.484l.004-.004zm34.59-34.069a46.6 46.6 0 00-19.542 11.688A46.658 46.658 0 005.28 281.633h8.787c1.92-5.148 4.872-9.731 8.792-13.651a37.975 37.975 0 0113.65-8.792v-8.787z" fill="#fff"/><path d="M77.057 267.977c-14.94-14.939-39.255-14.944-54.194 0-14.945 14.945-14.94 39.255 0 54.194 14.94 14.94 39.25 14.945 54.194 0 14.944-14.944 14.94-39.254 0-54.194z" fill="#fff"/><path d="M63.783 308.752l-27.527.183a2.1 2.1 0 00-2.086 2.113l.006.981a2.1 2.1 0 002.114 2.086l27.528-.183a2.1 2.1 0 002.085-2.113l-.006-.981a2.1 2.1 0 00-2.114-2.086zm-23.777-16.616a2.04 2.04 0 01-.877-.199l-2.147-1.038a1.985 1.985 0 01-.971-2.522l.985-2.455a1.978 1.978 0 012.816-.981l2.56 1.46a1.987 1.987 0 01.65 2.844l-1.404 2.033a1.968 1.968 0 01-1.617.853l.005.005zm19.815-.133a1.986 1.986 0 01-1.626-.834l-1.388-1.957a1.983 1.983 0 01.611-2.854l2.64-1.55c.299-.175.64-.27.986-.275a1.984 1.984 0 011.844 1.219l.995 2.384a1.99 1.99 0 01-.938 2.535l-2.247 1.124a2.01 2.01 0 01-.872.208h-.005z" fill="#110A1D"/><path d="M37.844 307.094a2.858 2.858 0 01-2.707-1.886l-4.593-12.641a4.926 4.926 0 01-.924.332 4.609 4.609 0 01-1.137.142 4.85 4.85 0 01-.654-.038 4.85 4.85 0 01-4.223-4.773 4.855 4.855 0 014.815-4.882 4.848 4.848 0 014.877 4.816c0 .616-.104 1.209-.322 1.763a5.28 5.28 0 01-.436.867l8.735 4.228 6.683-9.683a4.526 4.526 0 01-.805-.441 4.885 4.885 0 01-1.247-1.213 4.82 4.82 0 01-.896-2.773 4.855 4.855 0 015.176-4.872 4.857 4.857 0 014.503 4.474 4.83 4.83 0 01-.863 3.142 4.881 4.881 0 01-1.237 1.223 4.33 4.33 0 01-.801.441l6.801 9.584 8.594-4.299a4.996 4.996 0 01-.384-.967 4.715 4.715 0 01-.176-1.266 4.845 4.845 0 119.688-.061 4.854 4.854 0 01-4.507 4.868l-.304.009c-.493 0-.976-.066-1.445-.209a4.697 4.697 0 01-.872-.364l-4.313 12.394a2.86 2.86 0 01-2.683 1.919l-24.343.162v.004z" fill="#110A1D"/><path d="M50.404 217.374c-12.698 0-25.386-4.83-35.056-14.499-19.329-19.329-19.329-50.774 0-70.102 9.368-9.368 21.817-14.521 35.056-14.521 13.24 0 25.689 5.153 35.057 14.521 19.329 19.328 19.329 50.773 0 70.102-9.66 9.659-22.358 14.499-35.056 14.499zM17.95 200.272c17.893 17.893 47.006 17.893 64.898 0 17.893-17.892 17.893-47.005 0-64.897-8.67-8.671-20.193-13.438-32.454-13.438s-23.784 4.778-32.454 13.438c-17.893 17.892-17.893 47.005 0 64.897h.01z" fill="#7DDACF"/><path d="M52.239 157.389l-9.18 12.865h5.506v9.181l9.18-12.855H52.24v-9.191z" fill="#7DDACF"/><path d="M50.395 150.238c-10.055 0-18.215 8.161-18.215 18.215 0 10.055 8.16 18.195 18.215 18.195 10.054 0 18.215-8.161 18.215-18.195s-8.16-18.215-18.215-18.215zm0 34.161c-8.827 0-15.988-7.161-15.988-15.987 0-8.827 7.161-15.988 15.988-15.988 8.826 0 15.987 7.161 15.987 15.988 0 8.826-7.16 15.987-15.987 15.987z" fill="#7DDACF"/><path d="M78.552 139.674c-7.515-7.526-17.518-11.658-28.156-11.658-10.637 0-20.63 4.143-28.155 11.658-15.52 15.519-15.52 40.781 0 56.31 7.765 7.765 17.955 11.648 28.155 11.648 10.2 0 20.39-3.883 28.156-11.648 15.52-15.519 15.52-40.781 0-56.31zm-28.156 53.49c-13.614 0-24.7-11.086-24.7-24.7 0-6.016 2.155-11.533 5.736-15.842l-3.019-3.019a2.23 2.23 0 010-3.143c.864-.874 2.27-.864 3.144 0l3.018 3.018c3.747-3.133 8.462-5.193 13.604-5.631v-2.04h-2.04a3.31 3.31 0 01-3.289-3.289v-1.717a3.296 3.296 0 013.29-3.289h8.534a3.296 3.296 0 013.29 3.289v1.717a3.31 3.31 0 01-3.29 3.289h-2.04v2.04c5.152.448 9.857 2.509 13.604 5.631l3.019-3.018a2.23 2.23 0 013.143 0 2.23 2.23 0 010 3.143l-3.018 3.019c3.58 4.309 5.735 9.815 5.735 15.842 0 13.614-11.085 24.7-24.7 24.7h-.02z" fill="#7DDACF"/><path d="M51.334 99.09C24.011 99.09 1.79 76.857 1.79 49.545S24.022 0 51.334 0c27.313 0 49.545 22.233 49.545 49.545S78.646 99.09 51.334 99.09zm0-95.79C25.833 3.3 5.09 24.044 5.09 49.545c0 25.501 20.744 46.246 46.245 46.246 25.501 0 46.246-20.745 46.246-46.246S76.835 3.3 51.334 3.3z" fill="#fff"/><path d="M83.662 14.191L68.324 29.529l3.018 3.018L86.68 17.209l-3.018-3.018zM30.865 66.99L15.527 82.328l3.018 3.018 15.338-15.339-3.018-3.017zm40.941-.003l-3.017 3.018 15.338 15.338 3.018-3.018-15.339-15.338zm-53.25-53.261l-3.017 3.018 15.33 15.33 3.018-3.017-15.33-15.33zM63.43 50.877c1-.999 1-2.612 0-3.6l-2.123-2.114c-1-1-2.613-1-3.602 0l-1.145 1.145-1.322-1.322a2.538 2.538 0 00-3.601 0l-1.145 1.156-1.322-1.333a2.538 2.538 0 00-3.601 0l-7.026 7.026c-.052.052-.052.135 0 .198a2.425 2.425 0 003.414 0l4.528-4.528a1.25 1.25 0 011.77 0l.332.333a.15.15 0 010 .219l-3.778 3.778c-.052.052-.052.135 0 .198a2.425 2.425 0 003.414 0l4.34-4.34a1.25 1.25 0 011.77 0l.333.333c.052.051.052.135 0 .197l-3.643 3.643c-.052.052-.052.136 0 .198a2.425 2.425 0 003.414 0l4.195-4.195a1.25 1.25 0 011.77 0l.717.719a.735.735 0 010 1.03l-.114.114a.735.735 0 01-1.03 0l-.927-.926c-.052-.052-.135-.052-.198 0l-1.603 1.603c-.052.052-.052.135 0 .198l1.447 1.447c1 .999 2.613.999 3.601 0l1.145-1.145-.01-.032z" fill="#fff"/><path d="M51.335 11.543c-20.983 0-37.991 17.008-37.991 37.992 0 20.984 17.008 37.991 37.991 37.991 20.984 0 37.992-17.007 37.992-37.991 0-20.984-17.008-37.992-37.992-37.992zm1.551 11.73c6.1.355 11.637 2.79 15.925 6.6l-5.485 5.485a18.517 18.517 0 00-10.44-4.33v-7.754zm-3.091 0v7.755a18.445 18.445 0 00-10.44 4.33l-5.485-5.485a26.214 26.214 0 0115.925-6.6zM31.684 32.06l5.485 5.485a18.517 18.517 0 00-4.33 10.44h-7.754a26.215 26.215 0 016.599-15.925zm-6.6 19.016h7.755a18.446 18.446 0 004.33 10.44L31.684 67a26.214 26.214 0 01-6.6-15.925zm24.71 24.71a26.214 26.214 0 01-15.924-6.599l5.485-5.485a18.517 18.517 0 0010.44 4.33v7.754zm-14.426-26.26c0-8.817 7.151-15.968 15.967-15.968s15.967 7.151 15.967 15.967-7.15 15.967-15.967 15.967c-8.816 0-15.967-7.15-15.967-15.967zm17.518 26.26v-7.754a18.446 18.446 0 0010.44-4.33l5.485 5.485a26.214 26.214 0 01-15.925 6.6zM70.997 67l-5.485-5.485a18.517 18.517 0 004.33-10.44h7.754A26.214 26.214 0 0170.997 67zm-1.155-19.016a18.446 18.446 0 00-4.33-10.44l5.485-5.485a26.215 26.215 0 016.6 15.925h-7.755z" fill="#fff"/></g></svg>