<svg width="109" height="987" fill="none" xmlns="http://www.w3.org/2000/svg"><g opacity=".4"><path d="M56.273 974.841c-28.584 0-51.832-22.233-51.832-49.545 0-27.313 23.26-49.546 51.832-49.546s51.831 22.233 51.831 49.546c0 27.312-23.259 49.545-51.831 49.545zm0-95.791c-26.678 0-48.38 20.744-48.38 46.246 0 25.501 21.702 46.245 48.38 46.245s48.379-20.744 48.379-46.245c0-25.502-21.701-46.246-48.38-46.246z" fill="#478BF9"/><path d="M90.085 889.949l-16.046 15.338 3.157 3.018 16.046-15.339-3.157-3.017zm-55.23 52.792L18.81 958.079l3.157 3.017 16.046-15.338-3.157-3.017zm42.827.015l-3.157 3.017 16.046 15.338 3.157-3.017-16.046-15.338zm-55.72-53.269l-3.157 3.018 16.039 15.331L38 904.818l-16.039-15.331zm46.953 37.141c1.045-.999 1.045-2.613 0-3.602l-2.222-2.113c-1.045-.999-2.733-.999-3.767 0l-1.198 1.145-1.383-1.322c-1.045-.999-2.733-.999-3.768 0l-1.197 1.156-1.383-1.333c-1.046-.999-2.733-.999-3.768 0l-7.35 7.026c-.054.052-.054.136 0 .198.98.937 2.58.937 3.572 0l4.736-4.528a1.351 1.351 0 011.851 0l.349.333a.147.147 0 010 .219l-3.953 3.778c-.054.052-.054.136 0 .198.98.937 2.58.937 3.572 0l4.54-4.34a1.35 1.35 0 011.852 0l.348.333c.054.052.054.135 0 .198l-3.811 3.643c-.055.052-.055.135 0 .197.98.937 2.58.937 3.572 0l4.388-4.194a1.35 1.35 0 011.85 0l.752.718a.712.712 0 010 1.03l-.12.115a.795.795 0 01-1.078 0l-.969-.927c-.054-.052-.141-.052-.207 0l-1.677 1.603c-.054.052-.054.136 0 .198l1.514 1.447c1.045.999 2.733.999 3.768 0l1.198-1.145-.011-.031z" fill="#478BF9"/><path d="M56.274 887.304c-21.952 0-39.745 17.008-39.745 37.991 0 20.984 17.793 37.992 39.745 37.992 21.952 0 39.745-17.008 39.745-37.992 0-20.983-17.793-37.991-39.745-37.991zm1.622 11.731c6.381.353 12.174 2.789 16.66 6.599l-5.738 5.485c-2.995-2.425-6.773-3.997-10.922-4.33v-7.754zm-3.234 0v7.754a19.776 19.776 0 00-10.921 4.33l-5.739-5.485c4.486-3.81 10.28-6.246 16.66-6.599zm-18.947 8.784l5.739 5.486c-2.537 2.862-4.181 6.474-4.53 10.44h-8.112c.37-6.1 2.918-11.637 6.903-15.926zm-6.903 19.017h8.112c.338 3.966 1.993 7.577 4.53 10.44l-5.739 5.485c-3.985-4.288-6.533-9.826-6.903-15.925zm25.85 24.71c-6.38-.354-12.174-2.789-16.66-6.599l5.739-5.485c2.994 2.425 6.773 3.997 10.921 4.33v7.754zM39.57 925.285c0-8.816 7.48-15.967 16.704-15.967 9.223 0 16.704 7.151 16.704 15.967s-7.481 15.967-16.704 15.967-16.704-7.151-16.704-15.967zm18.326 26.261v-7.754a19.776 19.776 0 0010.922-4.33l5.738 5.485c-4.486 3.81-10.279 6.245-16.66 6.599zm18.947-8.785l-5.738-5.485c2.537-2.863 4.181-6.474 4.53-10.44h8.112c-.37 6.099-2.919 11.637-6.904 15.925zm-1.209-19.016c-.337-3.966-1.992-7.578-4.53-10.44l5.74-5.486c3.984 4.289 6.532 9.826 6.903 15.926h-8.113z" fill="#478BF9"/><path d="M19.758 830.48c-20.39-19.49-20.39-51.199 0-70.688 20.389-19.49 53.56-19.49 73.95 0 20.389 19.489 20.389 51.198 0 70.688-20.39 19.49-53.561 19.49-73.95 0zm71.486-68.333c-19.03-18.191-49.992-18.191-69.017 0-19.03 18.191-19.03 47.786 0 65.972 19.03 18.191 49.991 18.191 69.017 0 19.03-18.191 19.03-47.785 0-65.972z" fill="#fff"/><path d="M91.808 784.533a1.63 1.63 0 01-.417-.645c-1.81-5.119-4.765-9.654-8.781-13.494-4.011-3.834-8.762-6.659-14.117-8.394-.709-.232-1.185-.862-1.185-1.578v-12.148c0-.512.248-.995.67-1.313a1.806 1.806 0 011.492-.303c9.153 2.19 17.533 6.73 24.227 13.134 6.694 6.403 11.444 14.408 13.735 23.158.129.498.01 1.024-.317 1.431-.333.408-.838.64-1.374.64H93.032c-.475 0-.912-.185-1.234-.493l.01.005zm-6.734-16.494c4.096 3.915 7.185 8.503 9.198 13.65h9.193c-2.31-7.356-6.51-14.077-12.227-19.542-5.718-5.465-12.749-9.479-20.44-11.683v8.787c5.386 1.92 10.186 4.873 14.281 8.792l-.005-.004zM19.756 830.48c-6.694-6.399-11.449-14.409-13.74-23.159a1.615 1.615 0 01.318-1.426c.332-.408.838-.64 1.373-.64h12.709c.748 0 1.413.455 1.65 1.133 1.81 5.119 4.766 9.655 8.782 13.494 4.012 3.834 8.762 6.659 14.117 8.394.709.227 1.185.862 1.185 1.578v12.148c0 .512-.248.995-.67 1.313a1.813 1.813 0 01-1.497.303c-9.153-2.19-17.528-6.73-24.227-13.129v-.009zm-9.763-21.898c2.31 7.356 6.51 14.077 12.228 19.542 5.717 5.465 12.748 9.479 20.443 11.688v-8.787c-5.385-1.92-10.184-4.873-14.28-8.788s-7.185-8.503-9.198-13.65H9.993v-.005zm57.834 34.591a1.628 1.628 0 01-.51-1.18v-12.148c0-.716.475-1.351 1.184-1.579 5.355-1.73 10.1-4.554 14.117-8.394 4.016-3.839 6.967-8.375 8.781-13.494.238-.677.903-1.132 1.651-1.132h12.709c.536 0 1.041.237 1.374.639.332.403.446.934.317 1.427-2.296 8.75-7.046 16.755-13.74 23.158-6.694 6.404-15.074 10.944-24.227 13.134-.52.123-1.071.01-1.493-.303-.054-.048-.109-.09-.158-.138l-.005.01zm2.975-12.153v8.788c7.695-2.209 14.727-6.224 20.444-11.689 5.717-5.464 9.912-12.185 12.227-19.541H94.28c-2.008 5.147-5.097 9.73-9.198 13.65a39.907 39.907 0 01-14.28 8.792zM6.473 784.533c-.05-.047-.099-.1-.139-.152a1.61 1.61 0 01-.317-1.431c2.29-8.75 7.041-16.76 13.74-23.158 6.699-6.399 15.074-10.944 24.227-13.134a1.813 1.813 0 011.492.303c.422.318.67.801.67 1.313v12.148c0 .716-.476 1.351-1.185 1.578-5.355 1.73-10.1 4.555-14.117 8.394-4.011 3.835-6.967 8.375-8.781 13.494-.238.678-.903 1.133-1.651 1.133H7.703a1.79 1.79 0 01-1.235-.483l.005-.005zm36.187-34.069c-7.695 2.209-14.727 6.223-20.444 11.688-5.717 5.465-9.912 12.186-12.227 19.542h9.193c2.008-5.147 5.097-9.731 9.198-13.651 4.095-3.915 8.895-6.867 14.28-8.792v-8.787z" fill="#fff"/><path d="M85.078 768.039c-15.629-14.94-41.065-14.945-56.695 0-15.633 14.944-15.628 39.254 0 54.194 15.63 14.939 41.061 14.944 56.695 0 15.634-14.945 15.629-39.255 0-54.194z" fill="#fff"/><path d="M71.189 808.813l-28.798.183c-1.213.008-2.19.954-2.182 2.113l.006.982c.008 1.159.998 2.093 2.212 2.085l28.798-.182c1.213-.008 2.19-.954 2.182-2.114l-.007-.981c-.008-1.16-.998-2.093-2.211-2.086zm-24.875-16.616c-.312 0-.63-.066-.917-.199l-2.246-1.038c-.977-.455-1.423-1.559-1.017-2.521l1.032-2.455c.317-.749 1.066-1.238 1.909-1.242.362 0 .718.085 1.036.26l2.678 1.46c.5.27.862.74.991 1.28.13.54.015 1.109-.312 1.564L48 791.339a2.088 2.088 0 01-1.69.854l.004.004zm20.729-.132c-.674 0-1.314-.309-1.7-.835l-1.453-1.957a1.913 1.913 0 01-.337-1.56 1.98 1.98 0 01.977-1.293l2.761-1.55c.313-.176.67-.27 1.032-.275.843-.005 1.601.474 1.929 1.218l1.04 2.384c.417.957-.014 2.071-.98 2.536l-2.351 1.123a2.17 2.17 0 01-.913.209h-.005z" fill="#110A1D"/><path d="M44.052 807.156c-1.265.009-2.4-.749-2.831-1.887l-4.805-12.641a5.163 5.163 0 01-.967.332 5.031 5.031 0 01-1.19.142 5.31 5.31 0 01-.684-.038c-2.505-.303-4.404-2.355-4.418-4.772-.02-2.674 2.24-4.863 5.037-4.882 2.797-.019 5.088 2.142 5.103 4.815a4.6 4.6 0 01-.338 1.763 5.195 5.195 0 01-.456.868l9.139 4.228 6.991-9.684a4.872 4.872 0 01-.843-.44 5.016 5.016 0 01-1.304-1.214 4.678 4.678 0 01-.937-2.773c-.02-2.673 2.241-4.862 5.038-4.881.124 0 .253 0 .377.009 2.504.161 4.527 2.081 4.71 4.474a4.677 4.677 0 01-.902 3.143 5.022 5.022 0 01-2.133 1.663l7.116 9.584 8.99-4.299a4.867 4.867 0 01-.402-.967 4.516 4.516 0 01-.184-1.265c0-.195.01-.389.03-.578.288-2.437 2.44-4.285 5.003-4.299 2.797-.019 5.088 2.142 5.103 4.815.02 2.55-2.053 4.692-4.716 4.868l-.317.009a5.42 5.42 0 01-1.513-.208 5.12 5.12 0 01-.912-.365l-4.512 12.394c-.412 1.142-1.542 1.91-2.807 1.92l-25.466.161v.005z" fill="#110A1D"/><path d="M55.84 724c-13.285 0-26.559-4.829-36.674-14.499-20.221-19.329-20.221-50.773 0-70.102 9.8-9.368 22.823-14.52 36.674-14.52 13.85 0 26.874 5.152 36.674 14.52 20.221 19.329 20.221 50.773 0 70.102C82.409 719.16 69.124 724 55.84 724zm-33.952-17.101c18.718 17.892 49.174 17.892 67.893 0 18.718-17.893 18.718-47.006 0-64.898-9.07-8.671-21.125-13.438-33.952-13.438-12.827 0-24.881 4.778-33.952 13.438-18.718 17.892-18.718 47.005 0 64.898h.01z" fill="#9DADF2"/><path d="M55.154 692.993c.185.427.62.676 1.078.676.152 0 .305-.031.457-.083 3.659-1.468 6.99-3.737 9.626-6.568a1.082 1.082 0 00-.098-1.571 1.207 1.207 0 00-1.644.093c-2.407 2.592-5.445 4.663-8.788 5.996-.588.239-.87.895-.62 1.457h-.011z" fill="#9DADF2"/><path d="M75.602 657.312l-19.339-7.39a1.255 1.255 0 00-.871 0l-19.339 7.39a1.1 1.1 0 00-.73 1.031v13.239c.022 12.22 8.102 23.264 20.102 27.469a1.32 1.32 0 00.805 0c12-4.216 20.08-15.249 20.101-27.469v-13.239c0-.458-.283-.864-.73-1.031zm-1.6 14.27c-.023 11.117-7.318 21.244-18.164 25.231-10.845-3.987-18.152-14.114-18.173-25.231v-12.48l18.173-6.942 18.163 6.942v12.48z" fill="#9DADF2"/><path d="M47.759 659.05a1.208 1.208 0 00-.893 0l-4.606 1.759a1.1 1.1 0 00-.73 1.031v4.694c0 .614.523 1.114 1.166 1.114.642 0 1.165-.5 1.165-1.114V662.6l3.865-1.478c.294-.115.512-.323.643-.604a1.06 1.06 0 000-.854 1.167 1.167 0 00-.62-.614h.01z" fill="#9DADF2"/><path d="M85.282 646.3c-7.862-7.526-18.326-11.658-29.455-11.658-11.128 0-21.582 4.143-29.455 11.658-16.235 15.519-16.235 40.781 0 56.311 8.124 7.764 18.784 11.636 29.455 11.636s21.332-3.882 29.455-11.636c16.235-15.52 16.235-40.782 0-56.311zm-5.76 25.282c.032 14.125-9.409 26.48-23.488 30.758a.695.695 0 01-.414 0c-14.08-4.278-23.52-16.633-23.487-30.758v-15.623c0-.26.163-.5.424-.604l23.02-8.795a.67.67 0 01.25-.042.67.67 0 01.25.042l23.02 8.806a.634.634 0 01.425.603v15.624-.011z" fill="#9DADF2"/><path d="M55.991 597.389c-28.584 0-51.832-22.233-51.832-49.545s23.26-49.545 51.832-49.545c28.573 0 51.832 22.233 51.832 49.545s-23.26 49.545-51.832 49.545zm0-95.79c-26.678 0-48.38 20.744-48.38 46.245 0 25.501 21.702 46.246 48.38 46.246s48.38-20.745 48.38-46.246-21.702-46.245-48.38-46.245z" fill="#fff"/><path d="M72.803 516.899a1.77 1.77 0 01-.762-.166c-5.02-2.373-10.421-3.581-16.05-3.581-5.63 0-11.031 1.208-16.051 3.581a1.784 1.784 0 01-1.982-.312l-8.907-8.515a1.598 1.598 0 01-.49-1.374c.065-.51.37-.957.828-1.217 8.025-4.601 17.226-7.026 26.612-7.026 9.387 0 18.588 2.435 26.613 7.026.457.26.762.707.828 1.217a1.63 1.63 0 01-.49 1.374l-8.908 8.515a1.8 1.8 0 01-1.23.478h-.011zm-16.813-7.046c5.739 0 11.27 1.145 16.454 3.403l6.446-6.161c-7.013-3.612-14.885-5.507-22.9-5.507-8.014 0-15.887 1.895-22.9 5.507l6.447 6.161c5.183-2.258 10.715-3.403 16.453-3.403zm-.001 87.536c-9.387 0-18.588-2.435-26.613-7.026a1.64 1.64 0 01-.828-1.217 1.63 1.63 0 01.49-1.374l8.908-8.515a1.787 1.787 0 011.981-.312c5.02 2.373 10.421 3.581 16.05 3.581 5.63 0 11.031-1.208 16.051-3.581a1.784 1.784 0 011.982.312l8.907 8.515a1.6 1.6 0 01.49 1.374 1.64 1.64 0 01-.828 1.217c-8.025 4.601-17.226 7.026-26.612 7.026h.022zm-22.9-8.805c7.013 3.611 14.885 5.506 22.9 5.506 8.014 0 15.887-1.895 22.9-5.506l-6.447-6.162c-5.183 2.258-10.715 3.403-16.453 3.403-5.739 0-11.27-1.145-16.454-3.403l-6.446 6.162zm65.905-14.51c-.458 0-.893-.167-1.22-.479l-8.907-8.514a1.596 1.596 0 01-.327-1.894c2.483-4.799 3.746-9.961 3.746-15.343 0-5.381-1.263-10.544-3.746-15.342a1.59 1.59 0 01.327-1.894l8.907-8.515a1.765 1.765 0 011.437-.468 1.727 1.727 0 011.274.791c4.813 7.671 7.35 16.466 7.35 25.439 0 8.972-2.537 17.767-7.35 25.438-.272.438-.74.729-1.274.791h-.217v-.01zm-6.828-10.513l6.447 6.162a44.542 44.542 0 005.76-21.889 44.542 44.542 0 00-5.76-21.889l-6.447 6.161a36.248 36.248 0 013.56 15.728 36.24 36.24 0 01-3.56 15.727zM12.99 574.074c-.076 0-.141 0-.207-.01a1.73 1.73 0 01-1.274-.791c-4.812-7.672-7.35-16.467-7.35-25.439 0-8.972 2.538-17.768 7.35-25.439a1.73 1.73 0 011.274-.791 1.807 1.807 0 011.438.468l8.907 8.515c.523.499.653 1.27.327 1.894-2.483 4.799-3.746 9.961-3.746 15.343 0 5.381 1.263 10.543 3.746 15.342a1.59 1.59 0 01-.327 1.894l-8.907 8.514c-.327.313-.762.49-1.22.49l-.01.01zm.381-48.129a44.542 44.542 0 00-5.76 21.889 44.542 44.542 0 005.76 21.889l6.447-6.162a36.242 36.242 0 01-3.56-15.727 36.25 36.25 0 013.56-15.728l-6.447-6.161z" fill="#fff"/><path d="M55.992 509.853c-21.908 0-39.745 17.039-39.745 37.991 0 20.953 17.826 37.992 39.745 37.992 21.92 0 39.745-17.039 39.745-37.992 0-20.952-17.825-37.991-39.745-37.991zm22.366 25.511a23.73 23.73 0 013.397 10.013.363.363 0 01-.185.354 33.011 33.011 0 00-7.59 6.089.367.367 0 01-.402.105l-4.911-1.531a.364.364 0 01-.261-.301 31.669 31.669 0 00-3.757-11.054.354.354 0 01.032-.385l3.038-3.997a.42.42 0 01.316-.157h.087a34.66 34.66 0 009.888.656.4.4 0 01.37.188l-.022.02zm-12.631 15.384a.367.367 0 01-.087.281c-2.581 2.842-5.87 5.121-9.495 6.579a.367.367 0 01-.295 0c-3.626-1.468-6.914-3.748-9.495-6.579a.367.367 0 01-.087-.281 29.224 29.224 0 013.637-10.7.365.365 0 01.25-.177 29.701 29.701 0 015.848-.583c1.97 0 3.93.198 5.847.583a.364.364 0 01.25.177 29.425 29.425 0 013.638 10.7h-.011zm-.588-25.834s.13-.104.261-.104a.29.29 0 01.153.031 26.09 26.09 0 0110.377 7.213.334.334 0 01.054.386.372.372 0 01-.348.218 31.285 31.285 0 01-7.318-.781.384.384 0 01-.24-.166 28.895 28.895 0 01-3.037-6.422.337.337 0 01.109-.375h-.011zm-14.646-1.249a27.61 27.61 0 0111.009 0 .381.381 0 01.294.271 31.128 31.128 0 003.713 8.785.368.368 0 01-.022.406l-3.016 3.976a.385.385 0 01-.381.145c-3.986-.77-8.2-.77-12.185 0a.385.385 0 01-.381-.145l-3.016-3.976a.367.367 0 01-.022-.406 31.125 31.125 0 003.713-8.785.381.381 0 01.294-.271zm-14.428 8.389a25.88 25.88 0 0110.377-7.213.44.44 0 01.153-.031.37.37 0 01.261.104c.055.052.174.177.11.375a28.686 28.686 0 01-3.039 6.422.384.384 0 01-.24.166 31.286 31.286 0 01-7.317.781.372.372 0 01-.348-.218.334.334 0 01.054-.386h-.01zm-2.428 3.31a.389.389 0 01.337-.187h.033c3.321.25 6.653.031 9.887-.656a.377.377 0 01.392.146l3.038 3.997a.356.356 0 01.033.385 31.685 31.685 0 00-3.757 11.054.394.394 0 01-.26.302l-4.912 1.53a.408.408 0 01-.403-.104 32.959 32.959 0 00-7.59-6.089.383.383 0 01-.184-.354 23.68 23.68 0 013.397-10.013l-.011-.011zm1.187 25.647c-.065.198-.25.24-.327.25-.076 0-.25 0-.37-.166a23.956 23.956 0 01-3.964-11.669.353.353 0 01.196-.343c.066-.031.24-.104.414.021a29.775 29.775 0 015.445 4.746.345.345 0 01.087.271 27.472 27.472 0 01-1.492 6.901l.01-.011zm10.758 9.503a25.692 25.692 0 01-8.896-6.203.363.363 0 01-.076-.385 30.719 30.719 0 002.395-9.191.361.361 0 01.262-.312l4.856-1.51s.076-.02.12-.02c.109 0 .207.041.283.124a28.95 28.95 0 009.865 6.86.362.362 0 01.23.333v4.881a.354.354 0 01-.23.334 33.57 33.57 0 00-8.417 5.027.379.379 0 01-.403.052l.011.01zm17.129 1.031a.352.352 0 01-.284.291 27.359 27.359 0 01-12.849 0 .368.368 0 01-.283-.291.358.358 0 01.153-.375 30.799 30.799 0 016.413-3.487.367.367 0 01.294 0 31.36 31.36 0 016.414 3.487.374.374 0 01.152.375h-.01zm12.62-7.224a25.652 25.652 0 01-8.896 6.193.395.395 0 01-.403-.052 33.378 33.378 0 00-8.417-5.027.363.363 0 01-.23-.333v-4.882c0-.146.088-.281.23-.333 3.734-1.572 7.154-3.945 9.865-6.859a.375.375 0 01.283-.125c.044 0 .076 0 .12.021l4.856 1.509c.142.042.25.167.262.312a30.797 30.797 0 002.395 9.191.343.343 0 01-.076.385h.01zm2.548-3.216a.378.378 0 01-.37.166.374.374 0 01-.327-.249 28.463 28.463 0 01-1.492-6.901c0-.094.022-.198.087-.271a30.191 30.191 0 015.445-4.746.39.39 0 01.218-.073c.087 0 .152.031.196.052a.337.337 0 01.196.343 23.956 23.956 0 01-3.964 11.669l.01.01z" fill="#fff"/><path d="M55.84 473.932c-13.285 0-26.559-4.829-36.674-14.499-20.221-19.329-20.221-50.773 0-70.102 9.8-9.368 22.823-14.52 36.674-14.52 13.85 0 26.874 5.152 36.674 14.52 20.221 19.329 20.221 50.773 0 70.102-10.105 9.659-23.39 14.499-36.674 14.499zm-33.952-17.101c18.718 17.893 49.174 17.893 67.893 0 18.718-17.892 18.718-47.005 0-64.898-9.07-8.67-21.125-13.437-33.952-13.437-12.827 0-24.881 4.777-33.952 13.437-18.718 17.893-18.718 47.006 0 64.898h.01z" fill="#9DADF2"/><path d="M55.154 442.935c.185.427.62.677 1.078.677.152 0 .305-.031.457-.083 3.659-1.468 6.99-3.737 9.626-6.568a1.083 1.083 0 00-.098-1.572 1.207 1.207 0 00-1.644.094c-2.407 2.592-5.445 4.663-8.788 5.995-.588.24-.87.895-.62 1.457h-.011z" fill="#9DADF2"/><path d="M75.602 407.244l-19.339-7.39a1.255 1.255 0 00-.871 0l-19.339 7.39a1.1 1.1 0 00-.73 1.031v13.239c.022 12.22 8.102 23.264 20.102 27.469a1.32 1.32 0 00.805 0c12-4.216 20.08-15.249 20.101-27.469v-13.239c0-.458-.283-.864-.73-1.031zm-1.6 14.27c-.023 11.117-7.318 21.244-18.164 25.231-10.845-3.987-18.152-14.114-18.173-25.231v-12.48l18.173-6.942 18.163 6.942v12.48z" fill="#9DADF2"/><path d="M47.759 408.982a1.208 1.208 0 00-.893 0l-4.606 1.759a1.1 1.1 0 00-.73 1.031v4.694c0 .614.523 1.114 1.166 1.114.642 0 1.165-.5 1.165-1.114v-3.934l3.865-1.478c.294-.115.512-.323.643-.604a1.06 1.06 0 000-.854 1.167 1.167 0 00-.62-.614h.01z" fill="#9DADF2"/><path d="M85.282 396.232c-7.862-7.526-18.326-11.658-29.455-11.658-11.128 0-21.582 4.143-29.455 11.658-16.235 15.519-16.235 40.781 0 56.311 8.124 7.764 18.784 11.636 29.455 11.636s21.332-3.882 29.455-11.636c16.235-15.52 16.235-40.781 0-56.311zm-5.76 25.282c.032 14.125-9.409 26.48-23.488 30.758a.695.695 0 01-.414 0c-14.08-4.278-23.52-16.633-23.487-30.758v-15.623c0-.26.163-.499.424-.604l23.02-8.795a.67.67 0 01.25-.041.67.67 0 01.25.041l23.02 8.806a.635.635 0 01.425.604v15.623-.011z" fill="#9DADF2"/><path d="M56.273 351.621c-28.584 0-51.832-22.233-51.832-49.545 0-27.313 23.26-49.545 51.832-49.545s51.831 22.232 51.831 49.545c0 27.312-23.259 49.545-51.831 49.545zm0-95.791c-26.678 0-48.38 20.744-48.38 46.246 0 25.501 21.702 46.245 48.38 46.245s48.379-20.744 48.379-46.245c0-25.502-21.701-46.246-48.38-46.246z" fill="#478BF9"/><path d="M90.085 266.729l-16.046 15.338 3.157 3.018 16.046-15.339-3.157-3.017zm-55.23 52.792L18.81 334.859l3.157 3.017 16.046-15.338-3.157-3.017zm42.827.015l-3.157 3.017 16.046 15.338 3.157-3.017-16.046-15.338zm-55.72-53.269l-3.157 3.018 16.039 15.331L38 281.598l-16.039-15.331zm46.953 37.141c1.045-.999 1.045-2.613 0-3.602l-2.222-2.113c-1.045-.999-2.733-.999-3.767 0l-1.198 1.145-1.383-1.322c-1.045-.999-2.733-.999-3.768 0l-1.197 1.156-1.383-1.332c-1.046-1-2.733-1-3.768 0l-7.35 7.025c-.054.052-.054.136 0 .198.98.937 2.58.937 3.572 0l4.736-4.528a1.351 1.351 0 011.851 0l.349.333a.147.147 0 010 .219l-3.953 3.778c-.054.052-.054.136 0 .198.98.937 2.58.937 3.572 0l4.54-4.34a1.351 1.351 0 011.852 0l.348.333c.054.052.054.135 0 .198l-3.811 3.643c-.055.052-.055.135 0 .197.98.937 2.58.937 3.572 0l4.388-4.194a1.35 1.35 0 011.85 0l.752.718a.712.712 0 010 1.03l-.12.115a.795.795 0 01-1.078 0l-.969-.927c-.054-.052-.141-.052-.207 0l-1.677 1.603c-.054.052-.054.136 0 .198l1.514 1.447c1.045.999 2.733.999 3.768 0l1.198-1.145-.011-.031z" fill="#478BF9"/><path d="M56.274 264.084c-21.952 0-39.745 17.008-39.745 37.992 0 20.983 17.793 37.991 39.745 37.991 21.952 0 39.745-17.008 39.745-37.991 0-20.984-17.793-37.992-39.745-37.992zm1.622 11.731c6.381.353 12.174 2.789 16.66 6.599l-5.738 5.485c-2.995-2.425-6.773-3.997-10.922-4.33v-7.754zm-3.234 0v7.754a19.776 19.776 0 00-10.921 4.33l-5.739-5.485c4.486-3.81 10.28-6.246 16.66-6.599zm-18.947 8.784l5.739 5.486c-2.537 2.862-4.181 6.474-4.53 10.44h-8.112c.37-6.1 2.918-11.637 6.903-15.926zm-6.903 19.017h8.112c.338 3.966 1.993 7.577 4.53 10.44l-5.739 5.485c-3.985-4.288-6.533-9.826-6.903-15.925zm25.85 24.71c-6.38-.354-12.174-2.789-16.66-6.599l5.739-5.485c2.994 2.425 6.773 3.997 10.921 4.33v7.754zM39.57 302.065c0-8.816 7.48-15.967 16.704-15.967 9.223 0 16.704 7.151 16.704 15.967s-7.481 15.967-16.704 15.967-16.704-7.151-16.704-15.967zm18.326 26.261v-7.754a19.776 19.776 0 0010.922-4.33l5.738 5.485c-4.486 3.81-10.279 6.245-16.66 6.599zm18.947-8.785l-5.738-5.485c2.537-2.863 4.181-6.474 4.53-10.44h8.112c-.37 6.099-2.919 11.637-6.904 15.925zm-1.209-19.016c-.337-3.966-1.992-7.578-4.53-10.44l5.74-5.486c3.984 4.289 6.532 9.826 6.903 15.926h-8.113z" fill="#478BF9"/><path d="M19.753 207.26c-20.389-19.49-20.389-51.199 0-70.688 20.39-19.49 53.562-19.49 73.95 0 20.39 19.489 20.39 51.198 0 70.688-20.388 19.49-53.56 19.49-73.95 0zm71.487-68.333c-19.031-18.191-49.992-18.191-69.017 0-19.03 18.191-19.03 47.786 0 65.972 19.03 18.191 49.99 18.191 69.017 0 19.03-18.191 19.03-47.785 0-65.972z" fill="#fff"/><path d="M91.808 161.313a1.63 1.63 0 01-.417-.645c-1.81-5.118-4.765-9.654-8.781-13.494-4.011-3.834-8.762-6.659-14.117-8.394-.709-.232-1.185-.862-1.185-1.578v-12.148c0-.512.248-.995.67-1.313a1.806 1.806 0 011.492-.303c9.153 2.19 17.533 6.73 24.227 13.134 6.694 6.403 11.444 14.408 13.735 23.158.129.498.01 1.024-.317 1.431-.333.408-.838.64-1.374.64H93.032c-.475 0-.912-.185-1.234-.493l.01.005zm-6.734-16.494c4.096 3.915 7.185 8.503 9.198 13.65h9.193c-2.31-7.356-6.51-14.077-12.227-19.542-5.718-5.465-12.749-9.479-20.44-11.683v8.787c5.386 1.92 10.186 4.873 14.281 8.793l-.005-.005zM19.752 207.26c-6.694-6.399-11.449-14.409-13.74-23.159a1.615 1.615 0 01.318-1.426c.332-.408.837-.64 1.373-.64h12.709c.748 0 1.413.455 1.65 1.133 1.81 5.119 4.766 9.655 8.782 13.494 4.011 3.834 8.762 6.659 14.117 8.394.709.227 1.185.862 1.185 1.578v12.148c0 .512-.248.995-.67 1.313a1.814 1.814 0 01-1.497.303c-9.153-2.19-17.528-6.73-24.227-13.129v-.009zM9.99 185.362c2.31 7.356 6.51 14.077 12.227 19.542 5.717 5.465 12.749 9.48 20.444 11.688v-8.787c-5.385-1.92-10.185-4.873-14.28-8.788-4.096-3.915-7.185-8.503-9.198-13.65H9.989v-.005zm57.829 34.591a1.628 1.628 0 01-.51-1.18v-12.148c0-.716.475-1.351 1.184-1.579 5.355-1.73 10.1-4.554 14.117-8.394 4.016-3.839 6.966-8.375 8.781-13.494.238-.677.903-1.132 1.651-1.132h12.709c.535 0 1.041.237 1.373.639.333.403.447.934.318 1.427-2.296 8.75-7.046 16.755-13.74 23.158-6.694 6.404-15.074 10.944-24.227 13.134-.52.123-1.071.01-1.493-.303-.054-.048-.109-.09-.158-.138l-.005.01zm2.975-12.153v8.788c7.695-2.209 14.727-6.224 20.444-11.688 5.717-5.465 9.912-12.186 12.227-19.542h-9.193c-2.008 5.147-5.097 9.73-9.198 13.65a39.906 39.906 0 01-14.28 8.792zM6.47 161.313a1.61 1.61 0 01-.456-1.583c2.29-8.75 7.04-16.76 13.739-23.158 6.699-6.399 15.074-10.944 24.227-13.134a1.813 1.813 0 011.492.303c.422.318.67.801.67 1.313v12.148c0 .716-.476 1.351-1.185 1.578-5.355 1.73-10.1 4.555-14.117 8.394-4.012 3.835-6.967 8.375-8.782 13.494-.238.678-.902 1.133-1.65 1.133H7.697a1.79 1.79 0 01-1.234-.483l.005-.005zm36.186-34.069c-7.696 2.209-14.727 6.223-20.444 11.688-5.717 5.465-9.912 12.186-12.227 19.542h9.193c2.008-5.147 5.097-9.731 9.198-13.65 4.095-3.915 8.895-6.868 14.28-8.793v-8.787z" fill="#fff"/><path d="M85.078 144.819c-15.629-14.94-41.065-14.945-56.695 0-15.633 14.944-15.628 39.254 0 54.194 15.63 14.939 41.061 14.944 56.695 0 15.634-14.945 15.629-39.255 0-54.194z" fill="#fff"/><path d="M71.184 185.593l-28.797.183c-1.214.008-2.19.954-2.182 2.113l.006.982c.008 1.159.998 2.093 2.212 2.085l28.797-.182c1.214-.008 2.19-.954 2.183-2.114l-.007-.981c-.008-1.16-.998-2.093-2.212-2.086zM46.31 168.977c-.312 0-.63-.066-.917-.199l-2.246-1.038c-.977-.455-1.423-1.559-1.017-2.521l1.031-2.455c.318-.749 1.066-1.238 1.91-1.242.361 0 .718.085 1.036.26l2.677 1.46c.501.27.863.74.992 1.28s.015 1.109-.312 1.564l-1.468 2.033a2.088 2.088 0 01-1.69.854l.004.004zm20.733-.132c-.674 0-1.314-.308-1.7-.835l-1.453-1.957a1.911 1.911 0 01-.337-1.559 1.98 1.98 0 01.977-1.294l2.761-1.55c.313-.176.67-.27 1.032-.275.843-.005 1.601.474 1.929 1.218l1.04 2.384c.417.957-.014 2.071-.98 2.536l-2.351 1.123a2.17 2.17 0 01-.913.209h-.005z" fill="#110A1D"/><path d="M44.048 183.936c-1.265.009-2.4-.749-2.831-1.887l-4.805-12.641a5.163 5.163 0 01-.967.332 5.497 5.497 0 01-1.874.105c-2.504-.304-4.403-2.356-4.418-4.773-.02-2.674 2.24-4.863 5.038-4.882 2.796-.019 5.087 2.142 5.102 4.815a4.6 4.6 0 01-.337 1.763 5.195 5.195 0 01-.457.868l9.139 4.228 6.991-9.684a4.872 4.872 0 01-.843-.44 5.016 5.016 0 01-1.304-1.214 4.678 4.678 0 01-.937-2.773c-.02-2.673 2.241-4.862 5.038-4.881.124 0 .253 0 .377.009 2.504.161 4.527 2.081 4.71 4.474a4.677 4.677 0 01-.902 3.143 5.022 5.022 0 01-2.132 1.663l7.115 9.584 8.99-4.299a4.867 4.867 0 01-.402-.967 4.516 4.516 0 01-.183-1.265c0-.195.01-.389.03-.578.287-2.437 2.439-4.285 5.002-4.299 2.797-.019 5.088 2.142 5.103 4.815.02 2.55-2.053 4.693-4.716 4.868l-.317.009a5.42 5.42 0 01-1.512-.208 5.045 5.045 0 01-.913-.365l-4.512 12.394c-.412 1.142-1.542 1.91-2.806 1.92l-25.467.161v.005z" fill="#110A1D"/><path d="M108.596 51.04v119.595c0 .989-.839 1.78-1.862 1.78-1.024 0-1.862-.801-1.862-1.78V51.04c0-.989.838-1.78 1.862-1.78 1.023 0 1.862.802 1.862 1.78z" fill="#fff"/><g filter="url(#filter0_d_1_5908)"><path d="M8.644 50.78v119.595c0 .989-.839 1.78-1.862 1.78-1.024 0-1.862-.801-1.862-1.78V50.78c0-.989.838-1.78 1.862-1.78 1.023 0 1.862.801 1.862 1.78z" fill="#fff"/></g><path d="M108.524 49.556c0 .988-.837 1.78-1.858 1.78-1.022 0-1.859-.802-1.859-1.78 0-25.356-21.544-45.986-48.022-45.986-26.478 0-48.021 20.63-48.021 45.986 0 .988-.837 1.78-1.86 1.78-1.02 0-1.858-.802-1.858-1.78C5.046 22.233 28.264 0 56.796 0c28.533 0 51.75 22.233 51.75 49.556h-.022z" fill="#fff"/></g><defs><filter id="filter0_d_1_5908" x=".92" y="49" width="11.724" height="131.155" filterUnits="userSpaceOnUse" color-interpolation-filters="sRGB"><feFlood flood-opacity="0" result="BackgroundImageFix"/><feColorMatrix in="SourceAlpha" values="0 0 0 0 0 0 0 0 0 0 0 0 0 0 0 0 0 0 127 0" result="hardAlpha"/><feOffset dy="4"/><feGaussianBlur stdDeviation="2"/><feComposite in2="hardAlpha" operator="out"/><feColorMatrix values="0 0 0 0 0 0 0 0 0 0 0 0 0 0 0 0 0 0 0.25 0"/><feBlend in2="BackgroundImageFix" result="effect1_dropShadow_1_5908"/><feBlend in="SourceGraphic" in2="effect1_dropShadow_1_5908" result="shape"/></filter></defs></svg>