<svg width="100" height="1216" fill="none" xmlns="http://www.w3.org/2000/svg"><g opacity=".2"><path d="M49.733 1215.85c-12.699 0-25.387-4.83-35.057-14.5-19.329-19.33-19.329-50.78 0-70.11 9.368-9.36 21.817-14.52 35.057-14.52 13.24 0 25.688 5.16 35.056 14.52 19.329 19.33 19.329 50.78 0 70.11-9.66 9.66-22.358 14.5-35.056 14.5zm-32.454-17.11c17.892 17.9 47.005 17.9 64.897 0 17.893-17.89 17.893-47 0-64.89-8.67-8.67-20.192-13.44-32.454-13.44-12.261 0-23.784 4.78-32.454 13.44-17.892 17.89-17.892 47 0 64.89h.01z" fill="#9DADF2"/><path d="M49.077 1184.84c.177.43.593.68 1.03.68.146 0 .292-.04.438-.09a25.625 25.625 0 009.2-6.57c.407-.45.365-1.16-.093-1.57a1.121 1.121 0 00-1.572.1 23.244 23.244 0 01-8.4 5.99c-.561.24-.832.9-.593 1.46h-.01z" fill="#9DADF2"/><path d="M68.623 1149.16l-18.486-7.39c-.27-.11-.562-.11-.833 0l-18.486 7.39c-.426.16-.697.57-.697 1.03v13.24c.02 12.22 7.744 23.26 19.215 27.47a1.24 1.24 0 00.77 0c11.47-4.22 19.193-15.25 19.214-27.47v-13.24c0-.46-.27-.87-.697-1.03zm-1.53 14.27c-.021 11.11-6.995 21.24-17.362 25.23-10.367-3.99-17.351-14.12-17.372-25.23v-12.48l17.372-6.94 17.362 6.94v12.48z" fill="#9DADF2"/><path d="M42.008 1150.9c-.27-.12-.572-.12-.853 0l-4.403 1.76c-.427.16-.697.57-.697 1.03v4.69a1.114 1.114 0 002.227 0v-3.93l3.695-1.48c.281-.12.49-.32.614-.61a1.09 1.09 0 000-.85 1.122 1.122 0 00-.593-.61h.01z" fill="#9DADF2"/><path d="M77.888 1138.15c-7.515-7.53-17.518-11.66-28.156-11.66-10.637 0-20.63 4.14-28.155 11.66-15.52 15.52-15.52 40.78 0 56.31 7.765 7.76 17.955 11.63 28.155 11.63 10.2 0 20.39-3.88 28.156-11.63 15.519-15.52 15.519-40.78 0-56.31zm-5.507 25.28c.032 14.12-8.993 26.48-22.45 30.76a.667.667 0 01-.396 0c-13.459-4.28-22.483-16.64-22.452-30.76v-15.62c0-.27.156-.5.406-.61l22.004-8.79a.49.49 0 01.24-.05.49.49 0 01.239.05l22.004 8.8c.25.1.406.33.406.61v15.62-.01z" fill="#9DADF2"/><path d="M49.733 1089.24c-27.323 0-49.545-22.24-49.545-49.55s22.232-49.544 49.545-49.544c27.312 0 49.545 22.234 49.545 49.544 0 27.31-22.233 49.55-49.545 49.55zm0-95.795c-25.502 0-46.246 20.745-46.246 46.245 0 25.5 20.744 46.25 46.246 46.25 25.5 0 46.245-20.75 46.245-46.25s-20.744-46.245-46.245-46.245z" fill="#7DDACF"/><path d="M82.065 1004.34l-15.338 15.34 3.017 3.01 15.338-15.33-3.017-3.02zm-52.801 52.8l-15.338 15.33 3.017 3.02 15.338-15.34-3.017-3.01zm40.929 0l-3.017 3.02 15.338 15.34 3.018-3.02-15.339-15.34zm-53.253-53.26l-3.018 3.02 15.33 15.33 3.018-3.02-15.33-15.33zm44.877 37.14c.999-1 .999-2.61 0-3.6l-2.124-2.11c-.999-1-2.612-1-3.601 0l-1.145 1.14-1.322-1.32c-1-1-2.612-1-3.601 0l-1.145 1.16-1.322-1.34c-1-.99-2.613-.99-3.602 0l-7.025 7.03c-.052.05-.052.14 0 .2a2.42 2.42 0 003.414 0l4.527-4.53a1.25 1.25 0 011.77 0l.333.33c.063.07.063.16 0 .22l-3.778 3.78c-.052.05-.052.14 0 .2a2.42 2.42 0 003.414 0l4.34-4.34a1.25 1.25 0 011.77 0l.333.33c.052.05.052.14 0 .2l-3.643 3.64c-.052.05-.052.14 0 .2a2.42 2.42 0 003.414 0l4.194-4.19a1.25 1.25 0 011.77 0l.718.71c.281.28.281.75 0 1.03l-.114.12a.737.737 0 01-1.03 0l-.927-.93c-.052-.05-.136-.05-.198 0l-1.603 1.6a.148.148 0 000 .2l1.447 1.45c.999 1 2.612 1 3.601 0l1.145-1.15-.01-.03z" fill="#7DDACF"/><path d="M49.734 1001.7c-20.984 0-37.992 17.01-37.992 37.99s17.008 37.99 37.992 37.99c20.983 0 37.991-17.01 37.991-37.99s-17.007-37.99-37.991-37.99zm1.55 11.73c6.1.35 11.638 2.79 15.926 6.6l-5.485 5.48a18.601 18.601 0 00-10.44-4.33v-7.75zm-3.09 0v7.75a18.532 18.532 0 00-10.44 4.33l-5.486-5.48c4.288-3.81 9.826-6.25 15.925-6.6zm-18.112 8.78l5.486 5.49a18.498 18.498 0 00-4.33 10.44h-7.755a26.23 26.23 0 016.6-15.93zm-6.599 19.02h7.755a18.427 18.427 0 004.33 10.44l-5.486 5.49a26.23 26.23 0 01-6.599-15.93zm24.71 24.71c-6.1-.35-11.637-2.79-15.925-6.6l5.485-5.48a18.601 18.601 0 0010.44 4.33v7.75zm-14.426-26.26c0-8.82 7.15-15.97 15.967-15.97 8.816 0 15.967 7.15 15.967 15.97s-7.151 15.97-15.967 15.97-15.967-7.15-15.967-15.97zm17.518 26.26v-7.75a18.532 18.532 0 0010.44-4.33l5.485 5.48c-4.288 3.81-9.826 6.25-15.925 6.6zm18.11-8.78l-5.485-5.49a18.498 18.498 0 004.33-10.44h7.755a26.23 26.23 0 01-6.6 15.93zm-1.155-19.02a18.427 18.427 0 00-4.33-10.44l5.486-5.49a26.23 26.23 0 016.599 15.93H68.24z" fill="#7DDACF"/><path d="M49.877 965.779c-27.323 0-49.545-22.233-49.545-49.545 0-27.313 22.233-49.546 49.545-49.546s49.545 22.233 49.545 49.546c0 27.312-22.233 49.545-49.545 49.545zm0-95.791c-25.501 0-46.246 20.744-46.246 46.246 0 25.501 20.745 46.245 46.246 46.245s46.246-20.744 46.246-46.245c0-25.502-20.745-46.246-46.246-46.246z" fill="#9DADF2"/><path d="M65.951 885.299c-.25 0-.5-.052-.728-.166a34.306 34.306 0 00-15.343-3.581 34.306 34.306 0 00-15.342 3.581 1.647 1.647 0 01-1.894-.313l-8.515-8.514a1.642 1.642 0 01-.468-1.374 1.65 1.65 0 01.791-1.218 49.463 49.463 0 0125.439-7.026 49.558 49.558 0 0125.438 7.026c.438.261.73.708.792 1.218.062.51-.115 1.01-.469 1.374l-8.514 8.514a1.676 1.676 0 01-1.176.479h-.01zm-16.07-7.047a37.636 37.636 0 0115.727 3.404l6.162-6.162a46.15 46.15 0 00-21.89-5.506 46.15 46.15 0 00-21.889 5.506l6.162 6.162a37.636 37.636 0 0115.727-3.404zm-.002 87.527a49.559 49.559 0 01-25.44-7.026 1.646 1.646 0 01-.79-1.218c-.063-.51.114-1.01.468-1.374l8.515-8.514c.5-.5 1.27-.625 1.894-.312a34.319 34.319 0 0015.342 3.58 34.32 34.32 0 0015.343-3.58 1.645 1.645 0 011.894.312l8.514 8.514c.365.364.531.864.469 1.374-.063.51-.354.958-.791 1.218a49.462 49.462 0 01-25.44 7.026h.022zm-21.89-8.806a46.15 46.15 0 0021.89 5.506 46.15 46.15 0 0021.889-5.506l-6.162-6.162a37.637 37.637 0 01-15.727 3.404 37.636 37.636 0 01-15.728-3.404l-6.162 6.162zm62.994-14.499c-.438 0-.854-.167-1.166-.479l-8.514-8.514a1.65 1.65 0 01-.313-1.895 34.315 34.315 0 003.58-15.342 34.315 34.315 0 00-3.58-15.342 1.645 1.645 0 01.313-1.895l8.514-8.514a1.641 1.641 0 011.374-.468c.51.062.957.353 1.218.791a49.454 49.454 0 017.025 25.438 49.455 49.455 0 01-7.025 25.439c-.26.437-.708.729-1.218.791h-.208v-.01zm-6.527-10.513l6.162 6.162a46.152 46.152 0 005.506-21.889 46.153 46.153 0 00-5.506-21.89l-6.162 6.162a37.642 37.642 0 013.404 15.728 37.641 37.641 0 01-3.404 15.727zM8.773 942.474c-.073 0-.135 0-.198-.011a1.645 1.645 0 01-1.218-.791 49.454 49.454 0 01-7.025-25.438 49.455 49.455 0 017.025-25.439c.26-.437.708-.729 1.218-.791.51-.063 1.01.114 1.374.468l8.514 8.514c.5.5.625 1.27.313 1.895a34.316 34.316 0 00-3.58 15.342 34.316 34.316 0 003.58 15.342 1.645 1.645 0 01-.313 1.895l-8.514 8.514a1.648 1.648 0 01-1.166.489l-.01.011zm.364-48.13a46.153 46.153 0 00-5.506 21.89c0 7.66 1.895 15.186 5.506 21.889l6.162-6.162a37.638 37.638 0 01-3.403-15.727 37.642 37.642 0 013.403-15.728l-6.162-6.162z" fill="#9DADF2"/><path d="M49.878 878.242c-20.942 0-37.991 17.039-37.991 37.992 0 20.952 17.038 37.991 37.991 37.991s37.992-17.039 37.992-37.991c0-20.953-17.04-37.992-37.992-37.992zm21.38 25.512a24.473 24.473 0 013.247 10.013.369.369 0 01-.177.354 31.8 31.8 0 00-7.255 6.089.342.342 0 01-.385.104l-4.694-1.53a.36.36 0 01-.25-.302 32.684 32.684 0 00-3.591-11.054.368.368 0 01.031-.385l2.904-3.997a.394.394 0 01.302-.156h.083c3.102.687 6.287.916 9.451.656a.375.375 0 01.354.187l-.02.021zm-12.075 15.384a.379.379 0 01-.083.281 24.857 24.857 0 01-9.076 6.578.33.33 0 01-.281 0 25.099 25.099 0 01-9.077-6.578.378.378 0 01-.083-.281 30.139 30.139 0 013.477-10.7.347.347 0 01.24-.177 27.182 27.182 0 015.589-.583c1.883 0 3.757.198 5.589.583a.346.346 0 01.24.177 30.346 30.346 0 013.476 10.7h-.01zm-.562-25.834s.125-.105.25-.105c.042 0 .094 0 .146.032 3.83 1.519 7.255 4.017 9.92 7.213a.345.345 0 01.051.385.358.358 0 01-.333.219 28.69 28.69 0 01-6.994-.781.37.37 0 01-.23-.167 29.508 29.508 0 01-2.903-6.422.343.343 0 01.104-.374h-.01zm-14-1.25a25.251 25.251 0 0110.524 0c.135.032.25.136.28.271a31.9 31.9 0 003.55 8.785.383.383 0 01-.02.406l-2.884 3.976a.362.362 0 01-.364.146 29.615 29.615 0 00-11.647 0 .362.362 0 01-.365-.146l-2.883-3.976a.382.382 0 01-.02-.406 31.902 31.902 0 003.549-8.785.375.375 0 01.28-.271zm-13.79 8.39c2.664-3.206 6.088-5.704 9.919-7.213a.346.346 0 01.395.073c.052.052.167.176.104.374a29.274 29.274 0 01-2.904 6.422.369.369 0 01-.229.167c-2.28.541-4.631.812-6.994.781a.357.357 0 01-.333-.219.345.345 0 01.052-.385h-.01zm-2.322 3.31a.367.367 0 01.323-.188h.031c3.175.25 6.36.032 9.451-.655a.35.35 0 01.375.145l2.904 3.997a.37.37 0 01.031.385 32.68 32.68 0 00-3.59 11.054.388.388 0 01-.25.302l-4.695 1.53a.378.378 0 01-.385-.104 31.856 31.856 0 00-7.255-6.089.389.389 0 01-.177-.354 24.425 24.425 0 013.248-10.013l-.01-.01zm1.135 25.647a.365.365 0 01-.313.249c-.072 0-.239 0-.353-.166a24.697 24.697 0 01-3.79-11.668.358.358 0 01.188-.344c.063-.031.23-.104.396.021a28.929 28.929 0 015.204 4.747.351.351 0 01.083.27 28.569 28.569 0 01-1.426 6.901l.01-.01zm10.284 9.503c-3.248-1.426-6.11-3.518-8.504-6.204a.375.375 0 01-.073-.385 31.854 31.854 0 002.29-9.191.358.358 0 01.25-.312l4.642-1.509s.073-.021.114-.021c.104 0 .198.042.27.125a27.701 27.701 0 009.431 6.859.363.363 0 01.219.333v4.882a.352.352 0 01-.219.333 31.83 31.83 0 00-8.046 5.027.348.348 0 01-.385.052l.01.011zm16.372 1.03a.348.348 0 01-.27.292 25.032 25.032 0 01-12.283 0 .364.364 0 01-.27-.292.367.367 0 01.146-.375 29.014 29.014 0 016.13-3.486.33.33 0 01.281 0 29.54 29.54 0 016.131 3.486.383.383 0 01.146.375h-.01zm12.064-7.223a24.552 24.552 0 01-8.504 6.193.368.368 0 01-.385-.052 31.652 31.652 0 00-8.046-5.028.362.362 0 01-.218-.333v-4.881c0-.146.083-.281.218-.333a27.591 27.591 0 009.43-6.86.352.352 0 01.27-.125.22.22 0 01.115.021l4.643 1.509a.36.36 0 01.25.313 31.925 31.925 0 002.29 9.19.356.356 0 01-.074.386h.01zm2.435-3.217a.358.358 0 01-.353.167.359.359 0 01-.313-.25 29.593 29.593 0 01-1.426-6.901c0-.094.021-.198.084-.27a29.303 29.303 0 015.204-4.747.361.361 0 01.208-.073c.083 0 .146.032.187.052a.341.341 0 01.188.344 24.699 24.699 0 01-3.789 11.668l.01.01z" fill="#9DADF2"/><path d="M99.111 793.911c0 27.323-22.233 49.556-49.556 49.556C22.234 843.467 0 821.234 0 793.911c0-27.322 22.233-49.555 49.556-49.555 27.322 0 49.555 22.233 49.555 49.555zm-95.54 0c0 25.356 20.63 45.986 45.985 45.986s45.985-20.63 45.985-45.986c0-25.355-20.63-45.985-45.985-45.985-25.356 0-45.986 20.63-45.986 45.985zm95.543-121.135a1.779 1.779 0 11-3.56 0c0-25.356-20.63-45.986-45.986-45.986-25.355 0-45.985 20.63-45.985 45.986a1.78 1.78 0 11-3.56 0c0-27.323 22.233-49.556 49.556-49.556 27.323 0 49.555 22.233 49.555 49.556h-.02z" fill="#478BF9"/><path d="M40.012 785.158a3.954 3.954 0 003.008 3.841l3.362.843v-8.65h-2.394a3.971 3.971 0 00-3.966 3.966h-.01zm12.718 21.473h2.393a3.971 3.971 0 003.966-3.966 3.953 3.953 0 00-3.008-3.841l-3.362-.843v8.65h.01z" fill="#478BF9"/><path d="M49.556 753.588c-22.232 0-40.333 18.091-40.333 40.334 0 22.243 18.09 40.333 40.333 40.333 22.244 0 40.334-18.09 40.334-40.333s-18.09-40.334-40.334-40.334zm15.905 33.964H59.1v-3.185a3.191 3.191 0 00-3.185-3.185H52.73v10.242l4.902 1.228a10.31 10.31 0 017.817 10.013c0 5.694-4.632 10.325-10.325 10.325H52.73v8.057h-6.36v-8.057h-3.185c-5.267 0-9.544-4.277-9.544-9.544v-3.185h6.36v3.185a3.192 3.192 0 003.184 3.185h3.185v-10.242l-4.902-1.229a10.31 10.31 0 01-7.817-10.013c0-5.693 4.632-10.325 10.325-10.325h2.394v-8.056h6.36v8.056h3.185c5.267 0 9.545 4.278 9.545 9.545v3.185zm33.712-115.536v119.595a1.779 1.779 0 11-3.56 0V672.016a1.78 1.78 0 113.56 0zm-95.535-.26v119.595a1.78 1.78 0 11-3.56 0V671.756a1.779 1.779 0 113.56 0z" fill="#478BF9"/><path d="M49.733 592.626c-12.699 0-25.387-4.829-35.057-14.499-19.329-19.329-19.329-50.773 0-70.102 9.368-9.368 21.817-14.52 35.057-14.52 13.24 0 25.688 5.152 35.056 14.52 19.329 19.329 19.329 50.773 0 70.102-9.66 9.659-22.358 14.499-35.056 14.499zm-32.454-17.101c17.892 17.892 47.005 17.892 64.897 0 17.893-17.893 17.893-47.006 0-64.898-8.67-8.671-20.192-13.438-32.454-13.438-12.261 0-23.784 4.778-32.454 13.438-17.892 17.892-17.892 47.005 0 64.898h.01z" fill="#9DADF2"/><path d="M49.077 561.619c.177.427.593.676 1.03.676a1.3 1.3 0 00.438-.083 25.705 25.705 0 009.2-6.568 1.116 1.116 0 00-.093-1.571 1.117 1.117 0 00-1.572.093 23.272 23.272 0 01-8.4 5.996 1.117 1.117 0 00-.593 1.457h-.01z" fill="#9DADF2"/><path d="M68.623 525.938l-18.486-7.39a1.15 1.15 0 00-.833 0l-18.486 7.39a1.094 1.094 0 00-.697 1.03v13.24c.02 12.22 7.744 23.263 19.215 27.469a1.212 1.212 0 00.77 0c11.47-4.216 19.193-15.249 19.214-27.469v-13.24c0-.458-.27-.864-.697-1.03zm-1.53 14.27c-.021 11.117-6.995 21.244-17.362 25.231-10.367-3.987-17.351-14.114-17.372-25.231v-12.48l17.372-6.942 17.362 6.942v12.48z" fill="#9DADF2"/><path d="M42.008 527.676a1.108 1.108 0 00-.853 0l-4.403 1.759a1.097 1.097 0 00-.697 1.031v4.694c0 .614.5 1.114 1.113 1.114.614 0 1.114-.5 1.114-1.114v-3.934l3.695-1.478c.281-.115.49-.323.614-.604a1.143 1.143 0 00-.593-1.468h.01z" fill="#9DADF2"/><path d="M77.888 514.926c-7.515-7.526-17.518-11.658-28.156-11.658-10.637 0-20.63 4.143-28.155 11.658-15.52 15.519-15.52 40.781 0 56.311 7.765 7.764 17.955 11.636 28.155 11.636 10.2 0 20.39-3.882 28.156-11.636 15.519-15.52 15.519-40.782 0-56.311zm-5.507 25.282c.032 14.125-8.993 26.48-22.45 30.758a.637.637 0 01-.396 0c-13.459-4.278-22.483-16.633-22.452-30.758v-15.623c0-.26.156-.5.406-.604l22.004-8.795a.615.615 0 01.24-.042c.083 0 .166.011.239.042l22.004 8.806c.25.093.406.333.406.603v15.624-.011z" fill="#9DADF2"/><path d="M49.733 466.016C22.41 466.016.188 443.783.188 416.47c0-27.312 22.232-49.545 49.545-49.545 27.312 0 49.545 22.233 49.545 49.545 0 27.313-22.233 49.546-49.545 49.546zm0-95.791c-25.502 0-46.246 20.744-46.246 46.245 0 25.502 20.744 46.246 46.246 46.246 25.5 0 46.245-20.744 46.245-46.246 0-25.501-20.744-46.245-46.245-46.245z" fill="#7DDACF"/><path d="M82.065 381.117l-15.338 15.338 3.017 3.018 15.338-15.338-3.017-3.018zm-52.801 52.799l-15.338 15.338 3.017 3.018 15.338-15.339-3.017-3.017zm40.929.008l-3.017 3.017 15.338 15.338 3.018-3.017-15.339-15.338zM16.94 380.663l-3.018 3.017 15.33 15.331 3.018-3.017-15.33-15.331zm44.877 37.14a2.54 2.54 0 000-3.602l-2.124-2.113a2.538 2.538 0 00-3.601 0l-1.145 1.145-1.322-1.322a2.538 2.538 0 00-3.601 0l-1.145 1.156-1.322-1.332c-1-1-2.613-1-3.602 0l-7.025 7.025c-.052.052-.052.136 0 .198a2.425 2.425 0 003.414 0l4.527-4.528a1.25 1.25 0 011.77 0l.333.333a.151.151 0 010 .219l-3.778 3.778c-.052.052-.052.136 0 .198a2.425 2.425 0 003.414 0l4.34-4.34a1.25 1.25 0 011.77 0l.333.333c.052.052.052.135 0 .198l-3.643 3.643c-.052.052-.052.135 0 .197a2.425 2.425 0 003.414 0l4.194-4.194a1.25 1.25 0 011.77 0l.718.718a.735.735 0 010 1.03l-.114.115a.735.735 0 01-1.03 0l-.927-.927c-.052-.052-.136-.052-.198 0l-1.603 1.603c-.052.052-.052.136 0 .198l1.447 1.447a2.538 2.538 0 003.601 0l1.145-1.145-.01-.031z" fill="#7DDACF"/><path d="M49.734 378.479c-20.984 0-37.992 17.008-37.992 37.992 0 20.983 17.008 37.991 37.992 37.991 20.983 0 37.991-17.008 37.991-37.991 0-20.984-17.007-37.992-37.991-37.992zm1.55 11.731a26.206 26.206 0 0115.926 6.599l-5.485 5.485a18.518 18.518 0 00-10.44-4.33v-7.754zm-3.09 0v7.754a18.45 18.45 0 00-10.44 4.33l-5.486-5.485a26.207 26.207 0 0115.925-6.599zm-18.112 8.784l5.486 5.486a18.516 18.516 0 00-4.33 10.44h-7.755a26.217 26.217 0 016.6-15.926zm-6.599 19.017h7.755a18.447 18.447 0 004.33 10.44l-5.486 5.485a26.211 26.211 0 01-6.599-15.925zm24.71 24.71a26.213 26.213 0 01-15.925-6.599l5.485-5.485a18.518 18.518 0 0010.44 4.33v7.754zM33.767 416.46c0-8.816 7.15-15.967 15.967-15.967 8.816 0 15.967 7.151 15.967 15.967s-7.151 15.967-15.967 15.967-15.967-7.151-15.967-15.967zm17.518 26.261v-7.754a18.45 18.45 0 0010.44-4.33l5.485 5.485a26.212 26.212 0 01-15.925 6.599zm18.11-8.785l-5.485-5.485a18.519 18.519 0 004.33-10.44h7.755a26.211 26.211 0 01-6.6 15.925zM68.24 414.92a18.444 18.444 0 00-4.33-10.44l5.486-5.486a26.217 26.217 0 016.599 15.926H68.24z" fill="#7DDACF"/><path d="M49.877 342.559c-27.323 0-49.545-22.233-49.545-49.545 0-27.313 22.233-49.545 49.545-49.545s49.545 22.232 49.545 49.545c0 27.312-22.233 49.545-49.545 49.545zm0-95.791c-25.501 0-46.246 20.744-46.246 46.246 0 25.501 20.745 46.245 46.246 46.245s46.246-20.744 46.246-46.245c0-25.502-20.745-46.246-46.246-46.246z" fill="#9DADF2"/><path d="M65.951 262.079c-.25 0-.5-.052-.728-.166a34.306 34.306 0 00-15.343-3.581 34.306 34.306 0 00-15.342 3.581 1.647 1.647 0 01-1.894-.313l-8.515-8.514a1.642 1.642 0 01-.468-1.374 1.65 1.65 0 01.791-1.218 49.462 49.462 0 0125.439-7.025 49.557 49.557 0 0125.438 7.025c.438.261.73.708.792 1.218.062.51-.115 1.01-.469 1.374l-8.514 8.514a1.676 1.676 0 01-1.176.479h-.01zm-16.07-7.047a37.636 37.636 0 0115.727 3.404l6.162-6.162a46.15 46.15 0 00-21.89-5.506 46.15 46.15 0 00-21.889 5.506l6.162 6.162a37.636 37.636 0 0115.727-3.404zm-.002 87.527a49.559 49.559 0 01-25.44-7.026 1.646 1.646 0 01-.79-1.218c-.063-.51.114-1.01.468-1.374l8.515-8.514c.5-.5 1.27-.625 1.894-.312a34.319 34.319 0 0015.342 3.58 34.32 34.32 0 0015.343-3.58 1.645 1.645 0 011.894.312l8.514 8.514c.365.364.531.864.469 1.374-.063.51-.354.958-.791 1.218a49.462 49.462 0 01-25.44 7.026h.022zm-21.89-8.806a46.15 46.15 0 0021.89 5.506 46.15 46.15 0 0021.889-5.506l-6.162-6.162a37.637 37.637 0 01-15.727 3.404 37.636 37.636 0 01-15.728-3.404l-6.162 6.162zm62.994-14.499c-.438 0-.854-.167-1.166-.479l-8.514-8.514a1.65 1.65 0 01-.313-1.895 34.315 34.315 0 003.58-15.342 34.315 34.315 0 00-3.58-15.342 1.645 1.645 0 01.313-1.895l8.514-8.514a1.641 1.641 0 011.374-.468c.51.062.957.354 1.218.791a49.454 49.454 0 017.025 25.438 49.455 49.455 0 01-7.025 25.439c-.26.437-.708.729-1.218.791h-.208v-.01zm-6.527-10.513l6.162 6.162a46.152 46.152 0 005.506-21.889 46.153 46.153 0 00-5.506-21.89l-6.162 6.162a37.642 37.642 0 013.404 15.728 37.641 37.641 0 01-3.404 15.727zM8.773 319.254c-.073 0-.135 0-.198-.011a1.645 1.645 0 01-1.218-.791 49.454 49.454 0 01-7.025-25.438 49.455 49.455 0 017.025-25.439c.26-.437.708-.729 1.218-.791.51-.063 1.01.114 1.374.468l8.514 8.515c.5.499.625 1.269.313 1.894a34.316 34.316 0 00-3.58 15.342 34.324 34.324 0 003.58 15.343 1.644 1.644 0 01-.313 1.894l-8.514 8.514a1.648 1.648 0 01-1.166.489l-.01.011zm.364-48.13a46.153 46.153 0 00-5.506 21.89c0 7.66 1.895 15.186 5.506 21.889l6.162-6.162a37.638 37.638 0 01-3.403-15.727 37.642 37.642 0 013.403-15.728l-6.162-6.162z" fill="#9DADF2"/><path d="M49.878 255.022c-20.942 0-37.991 17.039-37.991 37.991 0 20.953 17.038 37.992 37.991 37.992s37.992-17.039 37.992-37.992c0-20.952-17.04-37.991-37.992-37.991zm21.38 25.512a24.468 24.468 0 013.247 10.013.37.37 0 01-.177.354 31.8 31.8 0 00-7.255 6.089.342.342 0 01-.385.104l-4.694-1.53a.36.36 0 01-.25-.302 32.67 32.67 0 00-3.591-11.054.368.368 0 01.031-.385l2.904-3.997a.394.394 0 01.302-.156h.083c3.102.687 6.287.916 9.451.655a.378.378 0 01.354.188l-.02.021zm-12.075 15.383a.38.38 0 01-.083.282 24.857 24.857 0 01-9.076 6.578.337.337 0 01-.281 0 25.099 25.099 0 01-9.077-6.578.38.38 0 01-.083-.282 30.152 30.152 0 013.477-10.7.345.345 0 01.24-.176 27.113 27.113 0 0111.178 0c.104.02.187.083.24.176a30.359 30.359 0 013.476 10.7h-.01zm-.562-25.834s.125-.104.25-.104c.042 0 .094 0 .146.031 3.83 1.52 7.255 4.018 9.92 7.214a.345.345 0 01.051.385.357.357 0 01-.333.218 28.64 28.64 0 01-6.994-.78.373.373 0 01-.23-.167 29.508 29.508 0 01-2.903-6.422.346.346 0 01.104-.375h-.01zm-14-1.249a25.251 25.251 0 0110.524 0 .37.37 0 01.28.271 31.912 31.912 0 003.55 8.785.383.383 0 01-.02.406l-2.884 3.976a.362.362 0 01-.364.146 29.615 29.615 0 00-11.647 0 .362.362 0 01-.365-.146l-2.883-3.976a.382.382 0 01-.02-.406 31.914 31.914 0 003.549-8.785.373.373 0 01.28-.271zm-13.79 8.39c2.664-3.206 6.088-5.704 9.919-7.214a.35.35 0 01.395.073c.052.052.167.177.104.375a29.274 29.274 0 01-2.904 6.422.373.373 0 01-.229.167 28.64 28.64 0 01-6.994.78.357.357 0 01-.333-.218.345.345 0 01.052-.385h-.01zm-2.322 3.31a.367.367 0 01.323-.188h.031c3.175.25 6.36.031 9.451-.656a.352.352 0 01.375.146l2.904 3.997a.37.37 0 01.031.385 32.68 32.68 0 00-3.59 11.054.39.39 0 01-.25.302l-4.695 1.53a.378.378 0 01-.385-.104 31.805 31.805 0 00-7.255-6.089.389.389 0 01-.177-.354 24.425 24.425 0 013.248-10.013l-.01-.01zm1.135 25.646a.364.364 0 01-.313.25c-.072 0-.239 0-.353-.166a24.697 24.697 0 01-3.79-11.668.355.355 0 01.188-.344c.063-.031.23-.104.396.021a28.887 28.887 0 015.204 4.746.355.355 0 01.083.271 28.569 28.569 0 01-1.426 6.901l.01-.011zm10.284 9.504c-3.248-1.426-6.11-3.519-8.504-6.204a.375.375 0 01-.073-.385 31.854 31.854 0 002.29-9.191.357.357 0 01.25-.312l4.642-1.51s.073-.02.114-.02c.104 0 .198.041.27.125a27.701 27.701 0 009.431 6.859.362.362 0 01.219.333v4.882a.353.353 0 01-.219.333 31.83 31.83 0 00-8.046 5.027.348.348 0 01-.385.052l.01.011zm16.372 1.03a.347.347 0 01-.27.291 25.032 25.032 0 01-12.283 0 .363.363 0 01-.27-.291.367.367 0 01.146-.375 29.062 29.062 0 016.13-3.487.337.337 0 01.281 0 29.59 29.59 0 016.131 3.487.383.383 0 01.146.375h-.01zm12.064-7.224a24.542 24.542 0 01-8.504 6.194.366.366 0 01-.385-.053 31.677 31.677 0 00-8.046-5.027.362.362 0 01-.218-.333v-4.882c0-.145.083-.281.218-.333a27.588 27.588 0 009.43-6.859.352.352 0 01.27-.125.22.22 0 01.115.021l4.643 1.509a.36.36 0 01.25.312 31.923 31.923 0 002.29 9.191.355.355 0 01-.074.385h.01zm2.435-3.216a.358.358 0 01-.353.167.359.359 0 01-.313-.25 29.593 29.593 0 01-1.426-6.901c0-.094.021-.198.084-.271a29.297 29.297 0 015.204-4.746.361.361 0 01.208-.073.4.4 0 01.187.052.34.34 0 01.188.344 24.699 24.699 0 01-3.789 11.668l.01.01z" fill="#9DADF2"/><path d="M99.111 170.691c0 27.323-22.233 49.556-49.556 49.556C22.234 220.247 0 198.014 0 170.691c0-27.322 22.233-49.555 49.556-49.555 27.322 0 49.555 22.233 49.555 49.555zm-95.54 0c0 25.356 20.63 45.986 45.985 45.986s45.985-20.63 45.985-45.986c0-25.355-20.63-45.985-45.985-45.985-25.356 0-45.986 20.63-45.986 45.985zM99.114 49.556a1.78 1.78 0 11-3.56 0c0-25.356-20.63-45.986-45.986-45.986-25.355 0-45.985 20.63-45.985 45.986a1.78 1.78 0 11-3.56 0C.023 22.233 22.256 0 49.58 0c27.323 0 49.555 22.233 49.555 49.556h-.02z" fill="#478BF9"/><path d="M40.012 161.938a3.952 3.952 0 003.008 3.84l3.362.843v-8.649h-2.394a3.971 3.971 0 00-3.966 3.966h-.01zm12.718 21.473h2.393a3.971 3.971 0 003.966-3.966 3.952 3.952 0 00-3.008-3.841l-3.362-.843v8.65h.01z" fill="#478BF9"/><path d="M49.556 130.368c-22.232 0-40.333 18.09-40.333 40.334 0 22.243 18.09 40.333 40.333 40.333 22.244 0 40.334-18.09 40.334-40.333 0-22.244-18.09-40.334-40.334-40.334zm15.905 33.964H59.1v-3.185a3.192 3.192 0 00-3.185-3.186H52.73v10.243l4.902 1.228a10.31 10.31 0 017.817 10.013c0 5.693-4.632 10.325-10.325 10.325H52.73v8.057h-6.36v-8.057h-3.185c-5.267 0-9.544-4.278-9.544-9.544v-3.185h6.36v3.185a3.192 3.192 0 003.184 3.185h3.185v-10.243l-4.902-1.228a10.31 10.31 0 01-7.817-10.013c0-5.693 4.632-10.325 10.325-10.325h2.394v-8.056h6.36v8.056h3.185c5.267 0 9.545 4.278 9.545 9.545v3.185zM99.173 48.796V168.39a1.779 1.779 0 11-3.56 0V48.796a1.78 1.78 0 113.56 0zm-95.535-.261v119.596a1.78 1.78 0 11-3.56 0V48.535a1.779 1.779 0 113.56 0z" fill="#478BF9"/></g></svg>