<svg width="109" height="987" viewBox="0 0 109 987" fill="none" xmlns="http://www.w3.org/2000/svg">
<g opacity="0.4">
<path d="M56.2727 974.841C27.6892 974.841 4.44116 952.608 4.44116 925.296C4.44116 897.983 27.7001 875.75 56.2727 875.75C84.8454 875.75 108.104 897.983 108.104 925.296C108.104 952.608 84.8454 974.841 56.2727 974.841ZM56.2727 879.05C29.5947 879.05 7.89295 899.794 7.89295 925.296C7.89295 950.797 29.5947 971.541 56.2727 971.541C82.9507 971.541 104.652 950.797 104.652 925.296C104.652 899.794 82.9507 879.05 56.2727 879.05Z" fill="#478BF9"/>
<path d="M90.085 889.949L74.0388 905.287L77.1957 908.305L93.2418 892.966L90.085 889.949Z" fill="#478BF9"/>
<path d="M34.8554 942.741L18.8093 958.079L21.9662 961.096L38.0123 945.758L34.8554 942.741Z" fill="#478BF9"/>
<path d="M77.682 942.756L74.5251 945.773L90.5712 961.111L93.7281 958.094L77.682 942.756Z" fill="#478BF9"/>
<path d="M21.9623 889.487L18.8054 892.505L34.8438 907.836L38.0007 904.818L21.9623 889.487Z" fill="#478BF9"/>
<path d="M68.9146 926.628C69.9599 925.629 69.9599 924.015 68.9146 923.026L66.6932 920.913C65.6478 919.914 63.9601 919.914 62.9256 920.913L61.7278 922.058L60.3449 920.736C59.2996 919.737 57.6118 919.737 56.5773 920.736L55.3796 921.892L53.9966 920.559C52.9513 919.56 51.2635 919.56 50.229 920.559L42.879 927.585C42.8245 927.637 42.8245 927.721 42.879 927.783C43.859 928.72 45.4597 928.72 46.4506 927.783L51.1873 923.255C51.699 922.766 52.5266 922.766 53.0384 923.255L53.3869 923.588C53.4522 923.651 53.4522 923.745 53.3869 923.807L49.4342 927.585C49.3797 927.637 49.3797 927.721 49.4342 927.783C50.4142 928.72 52.0149 928.72 53.0058 927.783L57.5465 923.443C58.0582 922.953 58.8858 922.953 59.3976 923.443L59.7461 923.776C59.8005 923.828 59.8005 923.911 59.7461 923.974L55.9349 927.617C55.8805 927.669 55.8805 927.752 55.9349 927.814C56.9149 928.751 58.5156 928.751 59.5065 927.814L63.8948 923.62C64.4065 923.13 65.234 923.13 65.7458 923.62L66.4972 924.338C66.7912 924.619 66.7912 925.087 66.4972 925.368L66.3774 925.483C66.0834 925.764 65.5934 925.764 65.2994 925.483L64.3303 924.556C64.2758 924.504 64.1887 924.504 64.1234 924.556L62.4465 926.159C62.3921 926.211 62.3921 926.295 62.4465 926.357L63.9601 927.804C65.0054 928.803 66.6932 928.803 67.7276 927.804L68.9255 926.659L68.9146 926.628Z" fill="#478BF9"/>
<path d="M56.2738 887.304C34.3216 887.304 16.5291 904.312 16.5291 925.295C16.5291 946.279 34.3216 963.287 56.2738 963.287C78.226 963.287 96.0186 946.279 96.0186 925.295C96.0186 904.312 78.226 887.304 56.2738 887.304ZM57.8963 899.035C64.2772 899.388 70.0701 901.824 74.5564 905.634L68.8179 911.119C65.8234 908.694 62.045 907.122 57.8963 906.789V899.035ZM54.6622 899.035V906.789C50.5135 907.112 46.7351 908.694 43.7406 911.119L38.0021 905.634C42.4883 901.824 48.2813 899.388 54.6622 899.035ZM35.7154 907.819L41.4539 913.305C38.9167 916.167 37.2725 919.779 36.9241 923.745H28.8118C29.182 917.645 31.7301 912.108 35.7154 907.819ZM28.8118 926.836H36.9241C37.2616 930.802 38.9167 934.413 41.4539 937.276L35.7154 942.761C31.7301 938.473 29.182 932.935 28.8118 926.836ZM54.6622 951.546C48.2813 951.192 42.4883 948.757 38.0021 944.947L43.7406 939.462C46.7351 941.887 50.5135 943.459 54.6622 943.792V951.546ZM39.5701 925.285C39.5701 916.469 47.0509 909.318 56.2738 909.318C65.4968 909.318 72.9775 916.469 72.9775 925.285C72.9775 934.101 65.4968 941.252 56.2738 941.252C47.0509 941.252 39.5701 934.101 39.5701 925.285ZM57.8963 951.546V943.792C62.045 943.469 65.8234 941.887 68.8179 939.462L74.5564 944.947C70.0701 948.757 64.2772 951.192 57.8963 951.546ZM76.8431 942.761L71.1046 937.276C73.6417 934.413 75.286 930.802 75.6344 926.836H83.7467C83.3765 932.935 80.8284 938.473 76.8431 942.761ZM75.6344 923.745C75.2968 919.779 73.6417 916.167 71.1046 913.305L76.8431 907.819C80.8284 912.108 83.3765 917.645 83.7467 923.745H75.6344Z" fill="#478BF9"/>
<path d="M19.7577 830.48C-0.631466 810.99 -0.631466 779.281 19.7577 759.792C40.1468 740.302 73.3188 740.302 93.708 759.792C114.097 779.281 114.097 810.99 93.708 830.48C73.3188 849.97 40.1468 849.97 19.7577 830.48ZM91.2436 762.147C72.2131 743.956 41.2525 743.956 22.227 762.147C3.19645 780.338 3.19645 809.933 22.227 828.119C41.2575 846.31 72.2181 846.31 91.2436 828.119C110.274 809.928 110.274 780.334 91.2436 762.147Z" fill="white"/>
<path d="M91.8078 784.533C91.6244 784.358 91.4756 784.135 91.3913 783.888C89.5815 778.769 86.6262 774.234 82.6099 770.394C78.5985 766.56 73.8483 763.735 68.4932 762C67.7841 761.768 67.3081 761.138 67.3081 760.422V748.274C67.3081 747.762 67.556 747.279 67.9775 746.961C68.4039 746.644 68.9543 746.535 69.47 746.658C78.6233 748.848 87.0031 753.388 93.697 759.792C100.391 766.195 105.141 774.2 107.432 782.95C107.561 783.448 107.442 783.974 107.115 784.381C106.782 784.789 106.277 785.021 105.741 785.021H93.0325C92.5565 785.021 92.1202 784.836 91.7979 784.528L91.8078 784.533ZM85.0742 768.039C89.1699 771.954 92.259 776.542 94.2722 781.689H103.465C101.155 774.333 96.9547 767.612 91.2376 762.147C85.5205 756.682 78.4894 752.668 70.7989 750.464V759.251C76.1838 761.171 80.9835 764.124 85.0792 768.043L85.0742 768.039Z" fill="white"/>
<path d="M19.7562 830.48C13.0623 824.081 8.30713 816.071 6.01633 807.321C5.88741 806.824 6.00642 806.298 6.33368 805.895C6.66589 805.487 7.17163 805.255 7.70715 805.255H20.4157C21.1644 805.255 21.8288 805.71 22.0668 806.388C23.8767 811.507 26.8319 816.043 30.8482 819.882C34.8596 823.716 39.6099 826.541 44.965 828.276C45.674 828.503 46.15 829.138 46.15 829.854V842.002C46.15 842.514 45.9021 842.997 45.4806 843.315C45.0542 843.632 44.5038 843.741 43.9832 843.618C34.8299 841.428 26.4551 836.888 19.7562 830.489V830.48ZM9.99302 808.582C12.3037 815.938 16.5034 822.659 22.2205 828.124C27.9376 833.589 34.9687 837.603 42.6643 839.812V831.025C37.2794 829.105 32.4796 826.152 28.3839 822.237C24.2882 818.322 21.1991 813.734 19.186 808.587H9.99302V808.582Z" fill="white"/>
<path d="M67.8269 843.173C67.4996 842.86 67.3162 842.438 67.3162 841.993V829.845C67.3162 829.129 67.7922 828.494 68.5012 828.266C73.8564 826.536 78.6016 823.712 82.6179 819.872C86.6343 816.033 89.5845 811.497 91.3993 806.378C91.6373 805.701 92.3018 805.246 93.0505 805.246H105.759C106.295 805.246 106.8 805.483 107.133 805.885C107.465 806.288 107.579 806.819 107.45 807.312C105.154 816.062 100.404 824.067 93.71 830.47C87.0161 836.874 78.6363 841.414 69.483 843.604C68.9624 843.727 68.412 843.614 67.9905 843.301C67.936 843.253 67.8814 843.211 67.8319 843.163L67.8269 843.173ZM70.802 831.02V839.808C78.4975 837.599 85.5286 833.584 91.2456 828.119C96.9627 822.655 101.158 815.934 103.473 808.578H94.2802C92.272 813.725 89.1829 818.308 85.0823 822.228C80.9866 826.143 76.1868 829.101 70.802 831.02Z" fill="white"/>
<path d="M6.47328 784.533C6.42369 784.486 6.37412 784.433 6.33446 784.381C6.00224 783.978 5.88819 783.448 6.01711 782.95C8.30791 774.2 13.0581 766.19 19.757 759.792C26.4558 753.393 34.8306 748.848 43.9839 746.658C44.5046 746.535 45.055 746.648 45.4764 746.961C45.8979 747.279 46.1459 747.762 46.1459 748.274V760.422C46.1459 761.138 45.6699 761.773 44.9608 762C39.6057 763.73 34.8604 766.555 30.844 770.394C26.8327 774.229 23.8774 778.769 22.0626 783.888C21.8246 784.566 21.1602 785.021 20.4115 785.021H7.70299C7.2369 785.021 6.79061 784.846 6.46831 784.538L6.47328 784.533ZM42.6601 750.464C34.9646 752.673 27.9334 756.687 22.2164 762.152C16.4993 767.617 12.3044 774.338 9.98883 781.694H19.1818C21.19 776.547 24.2791 771.963 28.3797 768.043C32.4754 764.128 37.2752 761.176 42.6601 759.251V750.464Z" fill="white"/>
<path d="M85.0784 768.039C69.4494 753.099 44.0126 753.094 28.3835 768.039C12.7496 782.983 12.7545 807.293 28.3835 822.233C44.0126 837.172 69.4444 837.177 85.0784 822.233C100.712 807.288 100.707 782.978 85.0784 768.039Z" fill="white"/>
<path d="M71.1887 808.813L42.3907 808.996C41.1775 809.004 40.2006 809.95 40.2087 811.109L40.2155 812.091C40.2235 813.25 41.2135 814.184 42.4266 814.176L71.2246 813.994C72.4377 813.986 73.4147 813.04 73.4066 811.88L73.3998 810.899C73.3918 809.739 72.4018 808.806 71.1887 808.813Z" fill="#110A1D"/>
<path d="M46.3142 792.197C46.0018 792.197 45.6845 792.131 45.3969 791.998L43.1507 790.96C42.1739 790.505 41.7276 789.401 42.1342 788.439L43.1656 785.984C43.4829 785.235 44.2316 784.746 45.0746 784.742C45.4366 784.742 45.7935 784.827 46.1109 785.002L48.7885 786.462C49.2893 786.732 49.6512 787.202 49.7801 787.742C49.9091 788.282 49.795 788.851 49.4678 789.306L48.0001 791.339C47.6183 791.87 46.9836 792.193 46.3092 792.193L46.3142 792.197Z" fill="#110A1D"/>
<path d="M67.0435 792.065C66.3691 792.065 65.7295 791.756 65.3428 791.23L63.8899 789.273C63.5527 788.823 63.4338 788.254 63.5528 787.713C63.6718 787.173 64.0288 786.699 64.5296 786.42L67.2914 784.87C67.6038 784.694 67.9608 784.6 68.3228 784.595C69.1657 784.59 69.9244 785.069 70.2516 785.813L71.2929 788.197C71.7094 789.154 71.278 790.268 70.3111 790.733L67.9608 791.856C67.6782 791.989 67.3608 792.065 67.0484 792.065H67.0435Z" fill="#110A1D"/>
<path d="M44.0518 807.156C42.7874 807.165 41.6519 806.407 41.2205 805.269L36.4158 792.628C36.1084 792.771 35.7811 792.88 35.4489 792.96C35.0572 793.055 34.6605 793.102 34.2588 793.102C34.0258 793.102 33.7977 793.093 33.5746 793.064C31.0705 792.761 29.1715 790.709 29.1566 788.292C29.1368 785.618 31.3978 783.429 34.1944 783.41C36.9909 783.391 39.2818 785.552 39.2966 788.225C39.2966 788.841 39.1875 789.434 38.9594 789.988C38.8355 790.292 38.6818 790.581 38.5033 790.856L47.6417 795.084L54.6331 785.4C54.3406 785.282 54.0579 785.135 53.7902 784.96C53.2844 784.633 52.8431 784.225 52.4861 783.746C51.8812 782.931 51.5539 781.969 51.5489 780.973C51.5291 778.3 53.7902 776.111 56.5867 776.092C56.7107 776.092 56.8396 776.092 56.9636 776.101C59.4676 776.262 61.4907 778.182 61.6741 780.575C61.7584 781.708 61.4461 782.794 60.7717 783.718C60.4147 784.201 59.9783 784.614 59.4775 784.941C59.2147 785.116 58.9321 785.263 58.6395 785.381L65.7549 794.965L74.7446 790.666C74.576 790.358 74.4421 790.036 74.343 789.699C74.224 789.292 74.1595 788.865 74.1595 788.434C74.1595 788.239 74.1694 788.045 74.1892 787.856C74.4768 785.419 76.6288 783.571 79.1923 783.557C81.9889 783.538 84.2797 785.699 84.2946 788.372C84.3144 790.922 82.2418 793.064 79.5791 793.24L79.2617 793.249C78.746 793.249 78.2403 793.183 77.7494 793.041C77.4321 792.946 77.1246 792.827 76.837 792.676L72.3249 805.07C71.9133 806.212 70.7828 806.98 69.5184 806.99L44.0518 807.151V807.156Z" fill="#110A1D"/>
<path d="M55.8397 724C42.5551 724 29.2815 719.171 19.1656 709.501C-1.05521 690.172 -1.05521 658.728 19.1656 639.399C28.9657 630.031 41.9889 624.879 55.8397 624.879C69.6905 624.879 82.7137 630.031 92.5138 639.399C112.735 658.728 112.735 690.172 92.5138 709.501C82.4088 719.16 69.1243 724 55.8397 724ZM21.8879 706.899C40.606 724.791 71.0625 724.791 89.7806 706.899C108.499 689.006 108.499 659.893 89.7806 642.001C80.7101 633.33 68.656 628.563 55.8288 628.563C43.0016 628.563 30.9475 633.341 21.877 642.001C3.15881 659.893 3.15881 689.006 21.877 706.899H21.8879Z" fill="#9DADF2"/>
<path d="M55.1537 692.993C55.3388 693.42 55.7744 693.669 56.2317 693.669C56.3842 693.669 56.5367 693.638 56.6891 693.586C60.3478 692.118 63.6798 689.849 66.3149 687.018C66.7396 686.56 66.6961 685.853 66.217 685.447C65.7378 685.041 64.9974 685.082 64.5727 685.54C62.1662 688.132 59.1282 690.203 55.7853 691.536C55.1973 691.775 54.9142 692.431 55.1646 692.993H55.1537Z" fill="#9DADF2"/>
<path d="M75.6019 657.312L56.263 649.922C55.9799 649.818 55.675 649.818 55.3919 649.922L36.0531 657.312C35.6066 657.479 35.3235 657.885 35.3235 658.343V671.582C35.3453 683.802 43.4249 694.846 55.4246 699.051C55.5552 699.092 55.6859 699.113 55.8275 699.113C55.969 699.113 56.0997 699.092 56.2303 699.051C68.23 694.835 76.3096 683.802 76.3314 671.582V658.343C76.3314 657.885 76.0483 657.479 75.6019 657.312ZM74.0012 671.582C73.9794 682.699 66.6838 692.826 55.8384 696.813C44.9929 692.826 37.6864 682.699 37.6646 671.582V659.102L55.8384 652.16L74.0012 659.102V671.582Z" fill="#9DADF2"/>
<path d="M47.759 659.05C47.4759 658.936 47.1601 658.936 46.8661 659.05L42.2601 660.809C41.8137 660.976 41.5305 661.382 41.5305 661.84V666.534C41.5305 667.148 42.0532 667.648 42.6956 667.648C43.3381 667.648 43.8608 667.148 43.8608 666.534V662.6L47.7263 661.122C48.0204 661.007 48.2382 660.799 48.3688 660.518C48.4886 660.247 48.4886 659.945 48.3688 659.664C48.249 659.383 48.0313 659.175 47.7481 659.05H47.759Z" fill="#9DADF2"/>
<path d="M85.2817 646.3C77.4199 638.774 66.9556 634.642 55.8271 634.642C44.6985 634.642 34.2451 638.785 26.3724 646.3C10.1369 661.819 10.1369 687.081 26.3724 702.611C34.4956 710.375 45.1559 714.247 55.8271 714.247C66.4983 714.247 77.1586 710.365 85.2817 702.611C101.517 687.091 101.517 661.829 85.2817 646.3ZM79.5215 671.582C79.5542 685.707 70.1134 698.062 56.034 702.34C55.9033 702.382 55.7617 702.382 55.6202 702.34C41.5407 698.062 32.1 685.707 32.1326 671.582V655.959C32.1326 655.699 32.296 655.459 32.5573 655.355L55.5766 646.56C55.6529 646.529 55.74 646.518 55.8271 646.518C55.9142 646.518 56.0013 646.529 56.0775 646.56L79.0968 655.366C79.3581 655.459 79.5215 655.699 79.5215 655.969V671.593V671.582Z" fill="#9DADF2"/>
<path d="M55.991 597.389C27.4074 597.389 4.15942 575.156 4.15942 547.844C4.15942 520.532 27.4183 498.299 55.991 498.299C84.5637 498.299 107.823 520.532 107.823 547.844C107.823 575.156 84.5637 597.389 55.991 597.389ZM55.991 501.599C29.313 501.599 7.61128 522.343 7.61128 547.844C7.61128 573.345 29.313 594.09 55.991 594.09C82.669 594.09 104.371 573.345 104.371 547.844C104.371 522.343 82.669 501.599 55.991 501.599Z" fill="white"/>
<path d="M72.803 516.899C72.5416 516.899 72.2803 516.847 72.0407 516.733C67.0209 514.36 61.62 513.152 55.9904 513.152C50.3608 513.152 44.9599 514.36 39.94 516.733C39.2758 517.045 38.4809 516.92 37.9582 516.421L29.0511 507.906C28.67 507.542 28.4957 507.042 28.5611 506.532C28.6264 506.022 28.9313 505.575 29.3886 505.315C37.4138 500.714 46.615 498.289 56.0013 498.289C65.3876 498.289 74.5888 500.724 82.614 505.315C83.0713 505.575 83.3761 506.022 83.4415 506.532C83.5068 507.042 83.3217 507.542 82.9515 507.906L74.0443 516.421C73.7067 516.733 73.2712 516.899 72.8139 516.899H72.803ZM55.9904 509.853C61.7289 509.853 67.2605 510.998 72.4436 513.256L78.8899 507.095C71.8774 503.483 64.0047 501.588 55.9904 501.588C47.9761 501.588 40.1033 503.483 33.0908 507.095L39.5372 513.256C44.7203 510.998 50.2519 509.853 55.9904 509.853Z" fill="white"/>
<path d="M55.9886 597.389C46.6023 597.389 37.4011 594.954 29.3759 590.363C28.9186 590.103 28.6137 589.656 28.5483 589.146C28.483 588.636 28.6681 588.136 29.0383 587.772L37.9455 579.257C38.4682 578.758 39.274 578.633 39.9273 578.945C44.9471 581.318 50.3481 582.526 55.9777 582.526C61.6073 582.526 67.0082 581.318 72.028 578.945C72.6922 578.633 73.4871 578.758 74.0098 579.257L82.917 587.772C83.2981 588.136 83.4723 588.636 83.407 589.146C83.3417 589.656 83.0368 590.103 82.5794 590.363C74.5543 594.964 65.3531 597.389 55.9668 597.389H55.9886ZM33.089 588.584C40.1015 592.195 47.9743 594.09 55.9886 594.09C64.0029 594.09 71.8756 592.195 78.8881 588.584L72.4418 582.422C67.2587 584.68 61.7271 585.825 55.9886 585.825C50.2501 585.825 44.7185 584.68 39.5353 582.422L33.089 588.584Z" fill="white"/>
<path d="M98.9936 574.074C98.5362 574.074 98.1007 573.907 97.774 573.595L88.8668 565.081C88.3441 564.581 88.2135 563.811 88.5402 563.187C91.0228 558.388 92.2859 553.226 92.2859 547.844C92.2859 542.463 91.0228 537.3 88.5402 532.502C88.2135 531.867 88.3441 531.097 88.8668 530.608L97.774 522.093C98.1551 521.729 98.6778 521.562 99.2113 521.625C99.7449 521.687 100.213 521.979 100.485 522.416C105.298 530.087 107.835 538.882 107.835 547.855C107.835 556.827 105.298 565.622 100.485 573.293C100.213 573.731 99.7449 574.022 99.2113 574.084C99.1351 574.084 99.0698 574.084 98.9936 574.084V574.074ZM92.1661 563.561L98.6125 569.723C102.391 563.02 104.373 555.495 104.373 547.834C104.373 540.173 102.391 532.648 98.6125 525.945L92.1661 532.106C94.5291 537.061 95.7269 542.349 95.7269 547.834C95.7269 553.319 94.5291 558.607 92.1661 563.561Z" fill="white"/>
<path d="M12.9904 574.074C12.9142 574.074 12.8489 574.074 12.7835 574.064C12.25 574.001 11.7817 573.71 11.5095 573.273C6.69656 565.601 4.15942 556.806 4.15942 547.834C4.15942 538.862 6.69656 530.066 11.5095 522.395C11.7817 521.958 12.25 521.667 12.7835 521.604C13.3171 521.542 13.8398 521.719 14.2209 522.072L23.1281 530.587C23.6507 531.086 23.7814 531.857 23.4547 532.481C20.972 537.28 19.7089 542.442 19.7089 547.824C19.7089 553.205 20.972 558.367 23.4547 563.166C23.7814 563.801 23.6507 564.571 23.1281 565.06L14.2209 573.574C13.8942 573.887 13.4586 574.064 13.0013 574.064L12.9904 574.074ZM13.3715 525.945C9.59305 532.648 7.61128 540.173 7.61128 547.834C7.61128 555.495 9.59305 563.02 13.3715 569.723L19.8178 563.561C17.4549 558.607 16.2571 553.319 16.2571 547.834C16.2571 542.349 17.4549 537.061 19.8178 532.106L13.3715 525.945Z" fill="white"/>
<path d="M55.9921 509.853C34.0835 509.853 16.2473 526.892 16.2473 547.844C16.2473 568.797 34.0726 585.836 55.9921 585.836C77.9116 585.836 95.7369 568.797 95.7369 547.844C95.7369 526.892 77.9116 509.853 55.9921 509.853ZM78.358 535.364C80.2418 538.445 81.3852 541.807 81.7554 545.377C81.7663 545.523 81.701 545.659 81.5703 545.731C78.7283 547.397 76.1802 549.437 73.9806 551.82C73.8826 551.935 73.7193 551.977 73.5778 551.925L68.6669 550.394C68.5253 550.353 68.4273 550.238 68.4055 550.093C67.8501 546.21 66.5871 542.494 64.6488 539.039C64.5835 538.914 64.5944 538.768 64.6815 538.654L67.7195 534.657C67.7957 534.563 67.9155 534.5 68.0353 534.5C68.068 534.5 68.0898 534.5 68.1224 534.5C71.3673 535.187 74.6993 535.416 78.0096 535.156C78.162 535.146 78.3036 535.219 78.3798 535.344L78.358 535.364ZM65.7268 550.748C65.7377 550.852 65.705 550.956 65.6397 551.029C63.059 553.871 59.7706 556.15 56.1446 557.608C56.0466 557.649 55.9485 557.649 55.8505 557.608C52.2245 556.14 48.936 553.86 46.3553 551.029C46.29 550.956 46.2573 550.852 46.2682 550.748C46.7691 546.98 47.9995 543.379 49.9051 540.048C49.9596 539.955 50.0467 539.892 50.1556 539.871C52.0721 539.486 54.0321 539.288 56.003 539.288C57.9739 539.288 59.9339 539.486 61.8504 539.871C61.9593 539.892 62.0463 539.955 62.1008 540.048C64.0064 543.379 65.226 546.98 65.7377 550.748H65.7268ZM65.1388 524.914C65.1388 524.914 65.2695 524.81 65.4002 524.81C65.4437 524.81 65.4981 524.81 65.5526 524.841C69.5597 526.361 73.1422 528.859 75.9298 532.054C76.0714 532.211 76.0169 532.377 75.9842 532.44C75.9625 532.492 75.8645 532.658 75.6358 532.658C73.164 532.689 70.7031 532.419 68.3184 531.877C68.2204 531.857 68.1333 531.794 68.0788 531.711C66.8048 529.702 65.7813 527.537 65.0408 525.289C64.9755 525.091 65.0952 524.956 65.1497 524.914H65.1388ZM50.4932 523.665C54.0974 522.926 57.8977 522.926 61.5019 523.665C61.6435 523.696 61.7632 523.8 61.7959 523.936C62.569 527.027 63.8213 529.983 65.509 532.721C65.5853 532.845 65.5744 533.002 65.4872 533.127L62.471 537.103C62.3839 537.217 62.2314 537.28 62.0899 537.248C58.1045 536.478 53.8905 536.478 49.9051 537.248C49.7636 537.28 49.6111 537.217 49.524 537.103L46.5078 533.127C46.4207 533.012 46.4097 532.845 46.486 532.721C48.1738 529.983 49.426 527.027 50.1991 523.936C50.2318 523.8 50.3516 523.696 50.4932 523.665ZM36.0653 532.054C38.8528 528.849 42.4353 526.35 46.4424 524.841C46.4969 524.82 46.5513 524.81 46.5949 524.81C46.7365 524.81 46.8236 524.883 46.8562 524.914C46.9107 524.966 47.0304 525.091 46.9651 525.289C46.2246 527.547 45.2011 529.702 43.9271 531.711C43.8726 531.794 43.7856 531.857 43.6876 531.877C41.3029 532.419 38.8419 532.689 36.3701 532.658C36.1415 532.658 36.0434 532.492 36.0217 532.44C35.989 532.377 35.9345 532.211 36.0761 532.054H36.0653ZM33.637 535.364C33.7023 535.25 33.833 535.177 33.9745 535.177C33.9745 535.177 33.9963 535.177 34.0072 535.177C37.3284 535.427 40.6604 535.208 43.8944 534.521C44.0469 534.49 44.1993 534.542 44.2864 534.667L47.3244 538.664C47.4115 538.778 47.4225 538.935 47.3571 539.049C45.4189 542.505 44.1558 546.221 43.6004 550.103C43.5786 550.238 43.4807 550.353 43.3391 550.405L38.4282 551.935C38.2866 551.977 38.1233 551.935 38.0253 551.831C35.8257 549.447 33.2776 547.407 30.4356 545.742C30.3158 545.669 30.2396 545.534 30.2505 545.388C30.6208 541.818 31.7641 538.445 33.6479 535.375L33.637 535.364ZM34.8239 561.011C34.7586 561.209 34.5735 561.251 34.4973 561.261C34.421 561.261 34.2468 561.261 34.127 561.095C31.8076 557.608 30.4356 553.569 30.1634 549.426C30.1525 549.218 30.2941 549.114 30.3594 549.083C30.4247 549.052 30.599 548.979 30.7732 549.104C32.7876 550.467 34.617 552.07 36.2177 553.85C36.283 553.923 36.3157 554.017 36.3048 554.121C36.1088 556.463 35.6079 558.784 34.813 561.022L34.8239 561.011ZM45.5822 570.514C42.1849 569.088 39.1903 566.996 36.6859 564.311C36.5879 564.207 36.5553 564.051 36.6097 563.926C37.8837 560.99 38.6895 557.899 39.0052 554.735C39.0161 554.589 39.1251 554.464 39.2666 554.423L44.1231 552.913C44.1231 552.913 44.1993 552.893 44.2428 552.893C44.3517 552.893 44.4497 552.934 44.526 553.017C47.2482 555.932 50.6565 558.305 54.3914 559.877C54.5329 559.939 54.6201 560.064 54.6201 560.21V565.091C54.6201 565.237 54.5329 565.372 54.3914 565.425C51.3425 566.684 48.5113 568.381 45.9742 570.452C45.8653 570.546 45.702 570.566 45.5713 570.504L45.5822 570.514ZM62.7106 571.545C62.6997 571.618 62.6452 571.784 62.4274 571.836C58.2243 572.856 53.7816 572.856 49.5785 571.836C49.3716 571.784 49.3062 571.618 49.2953 571.545C49.2845 571.472 49.2627 571.305 49.4478 571.17C51.4296 569.765 53.5856 568.589 55.8614 567.683C55.9594 567.642 56.0574 567.642 56.1554 567.683C58.4203 568.589 60.5763 569.765 62.569 571.17C62.7432 571.295 62.7324 571.472 62.7215 571.545H62.7106ZM75.3309 564.321C72.8265 567.007 69.8319 569.088 66.4346 570.514C66.293 570.577 66.1406 570.546 66.0317 570.462C63.4946 568.391 60.6743 566.694 57.6145 565.435C57.473 565.372 57.3858 565.248 57.3858 565.102V560.22C57.3858 560.074 57.473 559.939 57.6145 559.887C61.3495 558.315 64.7686 555.942 67.4799 553.028C67.5562 552.945 67.6542 552.903 67.7631 552.903C67.8066 552.903 67.8393 552.903 67.8828 552.924L72.7393 554.433C72.8809 554.475 72.9898 554.6 73.0007 554.745C73.3165 557.909 74.1222 560.99 75.3963 563.936C75.4507 564.061 75.4289 564.217 75.32 564.321H75.3309ZM77.8789 561.105C77.7591 561.282 77.5741 561.282 77.5087 561.271C77.4325 561.271 77.2582 561.219 77.182 561.022C76.398 558.784 75.8971 556.463 75.6902 554.121C75.6902 554.027 75.712 553.923 75.7773 553.85C77.378 552.07 79.2074 550.478 81.2218 549.104C81.2981 549.052 81.3743 549.031 81.4396 549.031C81.5267 549.031 81.5921 549.062 81.6356 549.083C81.701 549.114 81.8534 549.218 81.8316 549.426C81.5594 553.569 80.1874 557.608 77.868 561.095L77.8789 561.105Z" fill="white"/>
<path d="M55.8397 473.932C42.5551 473.932 29.2815 469.103 19.1656 459.433C-1.05521 440.104 -1.05521 408.66 19.1656 389.331C28.9657 379.963 41.9889 374.811 55.8397 374.811C69.6905 374.811 82.7137 379.963 92.5138 389.331C112.735 408.66 112.735 440.104 92.5138 459.433C82.4088 469.092 69.1243 473.932 55.8397 473.932ZM21.8879 456.831C40.606 474.724 71.0625 474.724 89.7806 456.831C108.499 438.939 108.499 409.826 89.7806 391.933C80.7101 383.263 68.656 378.496 55.8288 378.496C43.0016 378.496 30.9475 383.273 21.877 391.933C3.15881 409.826 3.15881 438.939 21.877 456.831H21.8879Z" fill="#9DADF2"/>
<path d="M55.1537 442.935C55.3388 443.362 55.7744 443.612 56.2317 443.612C56.3842 443.612 56.5367 443.581 56.6891 443.529C60.3478 442.061 63.6798 439.792 66.3149 436.961C66.7396 436.503 66.6961 435.795 66.217 435.389C65.7378 434.983 64.9974 435.025 64.5727 435.483C62.1662 438.075 59.1282 440.146 55.7853 441.478C55.1973 441.718 54.9142 442.373 55.1646 442.935H55.1537Z" fill="#9DADF2"/>
<path d="M75.6019 407.244L56.263 399.854C55.9799 399.75 55.675 399.75 55.3919 399.854L36.0531 407.244C35.6066 407.411 35.3235 407.817 35.3235 408.275V421.514C35.3453 433.734 43.4249 444.778 55.4246 448.983C55.5552 449.024 55.6859 449.045 55.8275 449.045C55.969 449.045 56.0997 449.024 56.2303 448.983C68.23 444.767 76.3096 433.734 76.3314 421.514V408.275C76.3314 407.817 76.0483 407.411 75.6019 407.244ZM74.0012 421.514C73.9794 432.631 66.6838 442.758 55.8384 446.745C44.9929 442.758 37.6864 432.631 37.6646 421.514V409.034L55.8384 402.092L74.0012 409.034V421.514Z" fill="#9DADF2"/>
<path d="M47.759 408.982C47.4759 408.868 47.1601 408.868 46.8661 408.982L42.2601 410.741C41.8137 410.908 41.5305 411.314 41.5305 411.772V416.466C41.5305 417.08 42.0532 417.58 42.6956 417.58C43.3381 417.58 43.8608 417.08 43.8608 416.466V412.532L47.7263 411.054C48.0204 410.939 48.2382 410.731 48.3688 410.45C48.4886 410.179 48.4886 409.877 48.3688 409.596C48.249 409.315 48.0313 409.107 47.7481 408.982H47.759Z" fill="#9DADF2"/>
<path d="M85.2817 396.232C77.4199 388.706 66.9556 384.574 55.8271 384.574C44.6985 384.574 34.2451 388.717 26.3724 396.232C10.1369 411.751 10.1369 437.013 26.3724 452.543C34.4956 460.307 45.1559 464.179 55.8271 464.179C66.4983 464.179 77.1586 460.297 85.2817 452.543C101.517 437.023 101.517 411.762 85.2817 396.232ZM79.5215 421.514C79.5542 435.639 70.1134 447.994 56.034 452.272C55.9033 452.314 55.7617 452.314 55.6202 452.272C41.5407 447.994 32.1 435.639 32.1326 421.514V405.891C32.1326 405.631 32.296 405.392 32.5573 405.287L55.5766 396.492C55.6529 396.461 55.74 396.451 55.8271 396.451C55.9142 396.451 56.0013 396.461 56.0775 396.492L79.0968 405.298C79.3581 405.392 79.5215 405.631 79.5215 405.902V421.525V421.514Z" fill="#9DADF2"/>
<path d="M56.2727 351.621C27.6892 351.621 4.44116 329.388 4.44116 302.076C4.44116 274.763 27.7001 252.531 56.2727 252.531C84.8454 252.531 108.104 274.763 108.104 302.076C108.104 329.388 84.8454 351.621 56.2727 351.621ZM56.2727 255.83C29.5947 255.83 7.89295 276.574 7.89295 302.076C7.89295 327.577 29.5947 348.321 56.2727 348.321C82.9507 348.321 104.652 327.577 104.652 302.076C104.652 276.574 82.9507 255.83 56.2727 255.83Z" fill="#478BF9"/>
<path d="M90.085 266.729L74.0388 282.067L77.1957 285.085L93.2418 269.746L90.085 266.729Z" fill="#478BF9"/>
<path d="M34.8554 319.521L18.8093 334.859L21.9662 337.876L38.0123 322.538L34.8554 319.521Z" fill="#478BF9"/>
<path d="M77.682 319.536L74.5251 322.553L90.5712 337.891L93.7281 334.874L77.682 319.536Z" fill="#478BF9"/>
<path d="M21.9623 266.267L18.8054 269.285L34.8438 284.616L38.0007 281.598L21.9623 266.267Z" fill="#478BF9"/>
<path d="M68.9146 303.408C69.9599 302.409 69.9599 300.795 68.9146 299.806L66.6932 297.693C65.6478 296.694 63.9601 296.694 62.9256 297.693L61.7278 298.838L60.3449 297.516C59.2996 296.517 57.6118 296.517 56.5773 297.516L55.3796 298.672L53.9966 297.34C52.9513 296.34 51.2635 296.34 50.229 297.34L42.879 304.365C42.8245 304.417 42.8245 304.501 42.879 304.563C43.859 305.5 45.4597 305.5 46.4506 304.563L51.1873 300.035C51.699 299.546 52.5266 299.546 53.0384 300.035L53.3869 300.368C53.4522 300.431 53.4522 300.525 53.3869 300.587L49.4342 304.365C49.3797 304.417 49.3797 304.501 49.4342 304.563C50.4142 305.5 52.0149 305.5 53.0058 304.563L57.5465 300.223C58.0582 299.734 58.8858 299.734 59.3976 300.223L59.7461 300.556C59.8005 300.608 59.8005 300.691 59.7461 300.754L55.9349 304.397C55.8805 304.449 55.8805 304.532 55.9349 304.594C56.9149 305.531 58.5156 305.531 59.5065 304.594L63.8948 300.4C64.4065 299.91 65.234 299.91 65.7458 300.4L66.4972 301.118C66.7912 301.399 66.7912 301.867 66.4972 302.148L66.3774 302.263C66.0834 302.544 65.5934 302.544 65.2994 302.263L64.3303 301.336C64.2758 301.284 64.1887 301.284 64.1234 301.336L62.4465 302.939C62.3921 302.991 62.3921 303.075 62.4465 303.137L63.9601 304.584C65.0054 305.583 66.6932 305.583 67.7276 304.584L68.9255 303.439L68.9146 303.408Z" fill="#478BF9"/>
<path d="M56.2738 264.084C34.3216 264.084 16.5291 281.092 16.5291 302.076C16.5291 323.059 34.3216 340.067 56.2738 340.067C78.226 340.067 96.0186 323.059 96.0186 302.076C96.0186 281.092 78.226 264.084 56.2738 264.084ZM57.8963 275.815C64.2772 276.168 70.0701 278.604 74.5564 282.414L68.8179 287.899C65.8234 285.474 62.045 283.902 57.8963 283.569V275.815ZM54.6622 275.815V283.569C50.5135 283.892 46.7351 285.474 43.7406 287.899L38.0021 282.414C42.4883 278.604 48.2813 276.168 54.6622 275.815ZM35.7154 284.599L41.4539 290.085C38.9167 292.947 37.2725 296.559 36.9241 300.525H28.8118C29.182 294.425 31.7301 288.888 35.7154 284.599ZM28.8118 303.616H36.9241C37.2616 307.582 38.9167 311.193 41.4539 314.056L35.7154 319.541C31.7301 315.253 29.182 309.715 28.8118 303.616ZM54.6622 328.326C48.2813 327.972 42.4883 325.537 38.0021 321.727L43.7406 316.242C46.7351 318.667 50.5135 320.239 54.6622 320.572V328.326ZM39.5701 302.065C39.5701 293.249 47.0509 286.098 56.2738 286.098C65.4968 286.098 72.9775 293.249 72.9775 302.065C72.9775 310.881 65.4968 318.032 56.2738 318.032C47.0509 318.032 39.5701 310.881 39.5701 302.065ZM57.8963 328.326V320.572C62.045 320.249 65.8234 318.667 68.8179 316.242L74.5564 321.727C70.0701 325.537 64.2772 327.972 57.8963 328.326ZM76.8431 319.541L71.1046 314.056C73.6417 311.193 75.286 307.582 75.6344 303.616H83.7467C83.3765 309.715 80.8284 315.253 76.8431 319.541ZM75.6344 300.525C75.2968 296.559 73.6417 292.947 71.1046 290.085L76.8431 284.599C80.8284 288.888 83.3765 294.425 83.7467 300.525H75.6344Z" fill="#478BF9"/>
<path d="M19.7535 207.26C-0.635616 187.77 -0.635616 156.061 19.7535 136.572C40.1427 117.082 73.3147 117.082 93.7038 136.572C114.093 156.061 114.093 187.77 93.7038 207.26C73.3147 226.75 40.1427 226.75 19.7535 207.26ZM91.2395 138.927C72.209 120.736 41.2484 120.736 22.2228 138.927C3.1923 157.118 3.1923 186.713 22.2228 204.899C41.2534 223.09 72.2139 223.09 91.2395 204.899C110.27 186.708 110.27 157.114 91.2395 138.927Z" fill="white"/>
<path d="M91.8078 161.313C91.6244 161.138 91.4756 160.915 91.3913 160.668C89.5815 155.55 86.6262 151.014 82.6099 147.174C78.5985 143.34 73.8483 140.515 68.4932 138.78C67.7841 138.548 67.3081 137.918 67.3081 137.202V125.054C67.3081 124.542 67.556 124.059 67.9775 123.741C68.4039 123.424 68.9543 123.315 69.47 123.438C78.6233 125.628 87.0031 130.168 93.697 136.572C100.391 142.975 105.141 150.98 107.432 159.73C107.561 160.228 107.442 160.754 107.115 161.161C106.782 161.569 106.277 161.801 105.741 161.801H93.0325C92.5565 161.801 92.1202 161.616 91.7979 161.308L91.8078 161.313ZM85.0742 144.819C89.1699 148.734 92.259 153.322 94.2722 158.469H103.465C101.155 151.113 96.9547 144.392 91.2376 138.927C85.5205 133.462 78.4894 129.448 70.7989 127.244V136.031C76.1838 137.951 80.9835 140.904 85.0792 144.824L85.0742 144.819Z" fill="white"/>
<path d="M19.7521 207.26C13.0581 200.861 8.30298 192.851 6.01218 184.101C5.88326 183.604 6.00227 183.078 6.32953 182.675C6.66174 182.267 7.16748 182.035 7.703 182.035H20.4115C21.1602 182.035 21.8247 182.49 22.0627 183.168C23.8725 188.287 26.8277 192.823 30.8441 196.662C34.8555 200.496 39.6057 203.321 44.9608 205.056C45.6699 205.283 46.1458 205.918 46.1458 206.634V218.782C46.1458 219.294 45.8979 219.777 45.4765 220.095C45.05 220.412 44.4996 220.521 43.979 220.398C34.8257 218.208 26.4509 213.668 19.7521 207.269V207.26ZM9.98887 185.362C12.2995 192.718 16.4993 199.439 22.2164 204.904C27.9335 210.369 34.9646 214.384 42.6601 216.592V207.805C37.2752 205.885 32.4754 202.932 28.3797 199.017C24.2841 195.102 21.195 190.514 19.1818 185.367H9.98887V185.362Z" fill="white"/>
<path d="M67.8188 219.953C67.4916 219.64 67.3081 219.218 67.3081 218.773V206.625C67.3081 205.909 67.7841 205.274 68.4932 205.046C73.8483 203.316 78.5935 200.492 82.6099 196.652C86.6262 192.813 89.5765 188.277 91.3913 183.158C91.6293 182.481 92.2937 182.026 93.0425 182.026H105.751C106.286 182.026 106.792 182.263 107.124 182.665C107.457 183.068 107.571 183.599 107.442 184.092C105.146 192.842 100.396 200.847 93.7019 207.25C87.008 213.654 78.6282 218.194 69.4749 220.384C68.9543 220.507 68.4039 220.394 67.9824 220.081C67.9279 220.033 67.8734 219.991 67.8238 219.943L67.8188 219.953ZM70.7939 207.8V216.588C78.4894 214.379 85.5205 210.364 91.2376 204.9C96.9547 199.435 101.15 192.714 103.465 185.358H94.2722C92.264 190.505 89.1748 195.088 85.0742 199.008C80.9785 202.923 76.1788 205.881 70.7939 207.8Z" fill="white"/>
<path d="M6.46913 161.313C6.41954 161.266 6.36997 161.213 6.33031 161.161C5.99809 160.758 5.88404 160.228 6.01296 159.73C8.30376 150.98 13.054 142.97 19.7528 136.572C26.4517 130.173 34.8265 125.628 43.9798 123.438C44.5004 123.315 45.0508 123.428 45.4723 123.741C45.8937 124.059 46.1417 124.542 46.1417 125.054V137.202C46.1417 137.918 45.6657 138.553 44.9566 138.78C39.6015 140.51 34.8562 143.335 30.8399 147.174C26.8285 151.009 23.8733 155.549 22.0585 160.668C21.8205 161.346 21.1561 161.801 20.4074 161.801H7.69884C7.23275 161.801 6.78646 161.626 6.46416 161.318L6.46913 161.313ZM42.6559 127.244C34.9604 129.453 27.9293 133.467 22.2122 138.932C16.4951 144.397 12.3003 151.118 9.98468 158.474H19.1776C21.1858 153.327 24.2749 148.743 28.3756 144.824C32.4712 140.909 37.271 137.956 42.6559 136.031V127.244Z" fill="white"/>
<path d="M85.0784 144.819C69.4494 129.879 44.0126 129.874 28.3835 144.819C12.7496 159.763 12.7545 184.073 28.3835 199.013C44.0126 213.952 69.4444 213.957 85.0784 199.013C100.712 184.068 100.707 159.758 85.0784 144.819Z" fill="white"/>
<path d="M71.1845 185.593L42.3865 185.776C41.1734 185.784 40.1965 186.73 40.2045 187.889L40.2113 188.871C40.2194 190.03 41.2093 190.964 42.4225 190.956L71.2205 190.774C72.4336 190.766 73.4105 189.82 73.4025 188.66L73.3957 187.679C73.3876 186.519 72.3976 185.586 71.1845 185.593Z" fill="#110A1D"/>
<path d="M46.31 168.977C45.9977 168.977 45.6803 168.911 45.3927 168.778L43.1466 167.74C42.1697 167.285 41.7235 166.181 42.13 165.219L43.1614 162.764C43.4788 162.015 44.2275 161.526 45.0704 161.522C45.4324 161.522 45.7894 161.607 46.1067 161.782L48.7843 163.242C49.2851 163.512 49.6471 163.982 49.776 164.522C49.9049 165.062 49.7909 165.631 49.4636 166.086L47.9959 168.119C47.6141 168.65 46.9794 168.973 46.3051 168.973L46.31 168.977Z" fill="#110A1D"/>
<path d="M67.0435 168.845C66.3691 168.845 65.7295 168.537 65.3428 168.01L63.8899 166.053C63.5527 165.603 63.4338 165.034 63.5528 164.494C63.6718 163.953 64.0288 163.479 64.5296 163.2L67.2914 161.65C67.6038 161.474 67.9608 161.38 68.3228 161.375C69.1657 161.37 69.9244 161.849 70.2516 162.593L71.2929 164.977C71.7094 165.934 71.278 167.048 70.3111 167.513L67.9608 168.636C67.6782 168.769 67.3608 168.845 67.0484 168.845H67.0435Z" fill="#110A1D"/>
<path d="M44.0479 183.936C42.7835 183.945 41.648 183.187 41.2166 182.049L36.4119 169.408C36.1045 169.551 35.7772 169.66 35.445 169.74C35.0532 169.835 34.6566 169.882 34.2549 169.882C34.0219 169.882 33.7938 169.873 33.5707 169.845C31.0666 169.541 29.1676 167.489 29.1527 165.072C29.1329 162.398 31.3939 160.209 34.1905 160.19C36.987 160.171 39.2778 162.332 39.2927 165.005C39.2927 165.621 39.1836 166.214 38.9555 166.768C38.8316 167.072 38.6779 167.361 38.4994 167.636L47.6378 171.864L54.6292 162.18C54.3367 162.062 54.054 161.915 53.7863 161.74C53.2805 161.413 52.8392 161.005 52.4822 160.526C51.8773 159.711 51.55 158.749 51.545 157.753C51.5252 155.08 53.7863 152.891 56.5828 152.872C56.7068 152.872 56.8357 152.872 56.9597 152.881C59.4637 153.042 61.4867 154.962 61.6702 157.355C61.7545 158.488 61.4421 159.574 60.7678 160.498C60.4108 160.981 59.9744 161.394 59.4736 161.721C59.2108 161.896 58.9282 162.043 58.6356 162.161L65.751 171.745L74.7407 167.446C74.5721 167.138 74.4382 166.816 74.3391 166.479C74.2201 166.072 74.1556 165.645 74.1556 165.214C74.1556 165.019 74.1655 164.825 74.1853 164.636C74.4729 162.199 76.6249 160.351 79.1884 160.337C81.985 160.318 84.2758 162.479 84.2907 165.152C84.3105 167.702 82.2379 169.845 79.5752 170.02L79.2578 170.029C78.7421 170.029 78.2364 169.963 77.7455 169.821C77.4282 169.726 77.1207 169.608 76.8331 169.456L72.3209 181.85C71.9094 182.992 70.7789 183.76 69.5145 183.77L44.0479 183.931V183.936Z" fill="#110A1D"/>
<path d="M108.596 51.0401V170.635C108.596 171.624 107.757 172.415 106.734 172.415C105.71 172.415 104.872 171.614 104.872 170.635V51.0401C104.872 50.0513 105.71 49.2603 106.734 49.2603C107.757 49.2603 108.596 50.0617 108.596 51.0401Z" fill="white"/>
<g filter="url(#filter0_d_1_5908)">
<path d="M8.64369 50.7799V170.375C8.64369 171.364 7.80528 172.155 6.78172 172.155C5.75815 172.155 4.91968 171.354 4.91968 170.375V50.7799C4.91968 49.791 5.75815 49 6.78172 49C7.80528 49 8.64369 49.8015 8.64369 50.7799Z" fill="white"/>
</g>
<path d="M108.524 49.5555C108.524 50.5443 107.687 51.3354 106.666 51.3354C105.644 51.3354 104.807 50.5339 104.807 49.5555C104.807 24.2001 83.2635 3.57015 56.7853 3.57015C30.307 3.57015 8.76352 24.2001 8.76352 49.5555C8.76352 50.5443 7.92654 51.3354 6.9048 51.3354C5.88306 51.3354 5.04614 50.5339 5.04614 49.5555C5.04614 22.2328 28.2635 0 56.7961 0C85.3288 0 108.546 22.2328 108.546 49.5555H108.524Z" fill="white"/>
</g>
<defs>
<filter id="filter0_d_1_5908" x="0.919678" y="49" width="11.7241" height="131.155" filterUnits="userSpaceOnUse" color-interpolation-filters="sRGB">
<feFlood flood-opacity="0" result="BackgroundImageFix"/>
<feColorMatrix in="SourceAlpha" type="matrix" values="0 0 0 0 0 0 0 0 0 0 0 0 0 0 0 0 0 0 127 0" result="hardAlpha"/>
<feOffset dy="4"/>
<feGaussianBlur stdDeviation="2"/>
<feComposite in2="hardAlpha" operator="out"/>
<feColorMatrix type="matrix" values="0 0 0 0 0 0 0 0 0 0 0 0 0 0 0 0 0 0 0.25 0"/>
<feBlend mode="normal" in2="BackgroundImageFix" result="effect1_dropShadow_1_5908"/>
<feBlend mode="normal" in="SourceGraphic" in2="effect1_dropShadow_1_5908" result="shape"/>
</filter>
</defs>
</svg>
