<svg width="100" height="1216" viewBox="0 0 100 1216" fill="none" xmlns="http://www.w3.org/2000/svg">
<g opacity="0.2">
<path d="M49.7326 1215.85C37.0341 1215.85 24.3459 1211.02 14.6763 1201.35C-4.65252 1182.02 -4.65252 1150.57 14.6763 1131.24C24.0441 1121.88 36.4928 1116.72 49.7326 1116.72C62.9724 1116.72 75.4212 1121.88 84.7889 1131.24C104.118 1150.57 104.118 1182.02 84.7889 1201.35C75.1297 1211.01 62.4311 1215.85 49.7326 1215.85ZM17.2785 1198.74C35.1709 1216.64 64.2839 1216.64 82.1763 1198.74C100.069 1180.85 100.069 1151.74 82.1763 1133.85C73.506 1125.18 61.9836 1120.41 49.7222 1120.41C37.4609 1120.41 25.9384 1125.19 17.2681 1133.85C-0.624391 1151.74 -0.624391 1180.85 17.2681 1198.74H17.2785Z" fill="#9DADF2"/>
<path d="M49.077 1184.84C49.2539 1185.27 49.6703 1185.52 50.1074 1185.52C50.2532 1185.52 50.3989 1185.48 50.5446 1185.43C54.0419 1183.96 57.2269 1181.7 59.7458 1178.86C60.1518 1178.41 60.1101 1177.7 59.6521 1177.29C59.1942 1176.89 58.4864 1176.93 58.0804 1177.39C55.7801 1179.98 52.8761 1182.05 49.6806 1183.38C49.1186 1183.62 48.8479 1184.28 49.0873 1184.84H49.077Z" fill="#9DADF2"/>
<path d="M68.6226 1149.16L50.1369 1141.77C49.8663 1141.66 49.5748 1141.66 49.3042 1141.77L30.8185 1149.16C30.3917 1149.32 30.1211 1149.73 30.1211 1150.19V1163.43C30.1419 1175.65 37.8651 1186.69 49.3355 1190.9C49.4604 1190.94 49.5853 1190.96 49.7206 1190.96C49.8559 1190.96 49.9808 1190.94 50.1057 1190.9C61.576 1186.68 69.2992 1175.65 69.32 1163.43V1150.19C69.32 1149.73 69.0494 1149.32 68.6226 1149.16ZM67.0926 1163.43C67.0718 1174.54 60.0979 1184.67 49.7309 1188.66C39.3639 1184.67 32.3797 1174.54 32.3589 1163.43V1150.95L49.7309 1144.01L67.0926 1150.95V1163.43Z" fill="#9DADF2"/>
<path d="M42.0084 1150.9C41.7378 1150.78 41.4359 1150.78 41.1549 1150.9L36.752 1152.66C36.3253 1152.82 36.0547 1153.23 36.0547 1153.69V1158.38C36.0547 1158.99 36.5543 1159.49 37.1684 1159.49C37.7825 1159.49 38.2821 1158.99 38.2821 1158.38V1154.45L41.9772 1152.97C42.2582 1152.85 42.4664 1152.65 42.5913 1152.36C42.7058 1152.09 42.7058 1151.79 42.5913 1151.51C42.4768 1151.23 42.2686 1151.02 41.998 1150.9H42.0084Z" fill="#9DADF2"/>
<path d="M77.8877 1138.15C70.3727 1130.62 60.3699 1126.49 49.7323 1126.49C39.0947 1126.49 29.1024 1130.63 21.577 1138.15C6.05768 1153.67 6.05768 1178.93 21.577 1194.46C29.3418 1202.22 39.5318 1206.09 49.7323 1206.09C59.9328 1206.09 70.1229 1202.21 77.8877 1194.46C93.407 1178.94 93.407 1153.68 77.8877 1138.15ZM72.3815 1163.43C72.4127 1177.55 63.3884 1189.91 49.9301 1194.19C49.8052 1194.23 49.6698 1194.23 49.5345 1194.19C36.0762 1189.91 27.0519 1177.55 27.0832 1163.43V1147.81C27.0832 1147.54 27.2392 1147.31 27.4891 1147.2L49.4929 1138.41C49.5658 1138.37 49.649 1138.36 49.7323 1138.36C49.8156 1138.36 49.8989 1138.37 49.9717 1138.41L71.9756 1147.21C72.2254 1147.31 72.3815 1147.54 72.3815 1147.82V1163.44V1163.43Z" fill="#9DADF2"/>
<path d="M49.7326 1089.24C22.4099 1089.24 0.1875 1067 0.1875 1039.69C0.1875 1012.38 22.4203 990.146 49.7326 990.146C77.0448 990.146 99.2777 1012.38 99.2777 1039.69C99.2777 1067 77.0448 1089.24 49.7326 1089.24ZM49.7326 993.445C24.2314 993.445 3.48702 1014.19 3.48702 1039.69C3.48702 1065.19 24.2314 1085.94 49.7326 1085.94C75.2337 1085.94 95.9782 1065.19 95.9782 1039.69C95.9782 1014.19 75.2337 993.445 49.7326 993.445Z" fill="#7DDACF"/>
<path d="M82.0648 1004.34L66.7266 1019.68L69.7442 1022.69L85.0824 1007.36L82.0648 1004.34Z" fill="#7DDACF"/>
<path d="M29.2639 1057.14L13.9257 1072.47L16.9432 1075.49L32.2815 1060.15L29.2639 1057.14Z" fill="#7DDACF"/>
<path d="M70.1934 1057.14L67.1758 1060.16L82.514 1075.5L85.5316 1072.48L70.1934 1057.14Z" fill="#7DDACF"/>
<path d="M16.9395 1003.88L13.9219 1006.9L29.2528 1022.23L32.2704 1019.21L16.9395 1003.88Z" fill="#7DDACF"/>
<path d="M61.8167 1041.02C62.816 1040.02 62.816 1038.41 61.8167 1037.42L59.6933 1035.31C58.6941 1034.31 57.0808 1034.31 56.092 1035.31L54.947 1036.45L53.6251 1035.13C52.6259 1034.13 51.0126 1034.13 50.0237 1035.13L48.8788 1036.29L47.5569 1034.95C46.5577 1033.96 44.9443 1033.96 43.9555 1034.95L36.9297 1041.98C36.8776 1042.03 36.8776 1042.12 36.9297 1042.18C37.8664 1043.12 39.3965 1043.12 40.3437 1042.18L44.8715 1037.65C45.3607 1037.16 46.1517 1037.16 46.6409 1037.65L46.974 1037.98C47.0365 1038.05 47.0365 1038.14 46.974 1038.2L43.1957 1041.98C43.1436 1042.03 43.1436 1042.12 43.1957 1042.18C44.1325 1043.12 45.6625 1043.12 46.6097 1042.18L50.9501 1037.84C51.4393 1037.35 52.2304 1037.35 52.7196 1037.84L53.0526 1038.17C53.1047 1038.22 53.1047 1038.31 53.0526 1038.37L49.4096 1042.01C49.3576 1042.06 49.3576 1042.15 49.4096 1042.21C50.3464 1043.15 51.8765 1043.15 52.8237 1042.21L57.0183 1038.02C57.5075 1037.53 58.2986 1037.53 58.7878 1038.02L59.506 1038.73C59.787 1039.01 59.787 1039.48 59.506 1039.76L59.3915 1039.88C59.1105 1040.16 58.6421 1040.16 58.3611 1039.88L57.4347 1038.95C57.3826 1038.9 57.2994 1038.9 57.2369 1038.95L55.634 1040.55C55.582 1040.61 55.582 1040.69 55.634 1040.75L57.0808 1042.2C58.08 1043.2 59.6934 1043.2 60.6822 1042.2L61.8272 1041.05L61.8167 1041.02Z" fill="#7DDACF"/>
<path d="M49.7337 1001.7C28.7499 1001.7 11.7422 1018.71 11.7422 1039.69C11.7422 1060.67 28.7499 1077.68 49.7337 1077.68C70.7175 1077.68 87.7252 1060.67 87.7252 1039.69C87.7252 1018.71 70.7175 1001.7 49.7337 1001.7ZM51.2846 1013.43C57.3841 1013.78 62.9215 1016.22 67.2098 1020.03L61.7245 1025.51C58.8621 1023.09 55.2503 1021.52 51.2846 1021.18V1013.43ZM48.1932 1013.43V1021.18C44.2276 1021.51 40.6158 1023.09 37.7534 1025.51L32.268 1020.03C36.5564 1016.22 42.0938 1013.78 48.1932 1013.43ZM30.0823 1022.21L35.5676 1027.7C33.1424 1030.56 31.5707 1034.17 31.2376 1038.14H23.4832C23.8371 1032.04 26.2727 1026.5 30.0823 1022.21ZM23.4832 1041.23H31.2376C31.5603 1045.2 33.1424 1048.81 35.5676 1051.67L30.0823 1057.16C26.2727 1052.87 23.8371 1047.33 23.4832 1041.23ZM48.1932 1065.94C42.0938 1065.59 36.5564 1063.15 32.268 1059.34L37.7534 1053.86C40.6158 1056.28 44.2276 1057.85 48.1932 1058.19V1065.94ZM33.7669 1039.68C33.7669 1030.86 40.9176 1023.71 49.7337 1023.71C58.5498 1023.71 65.7006 1030.86 65.7006 1039.68C65.7006 1048.5 58.5498 1055.65 49.7337 1055.65C40.9176 1055.65 33.7669 1048.5 33.7669 1039.68ZM51.2846 1065.94V1058.19C55.2503 1057.86 58.8621 1056.28 61.7245 1053.86L67.2098 1059.34C62.9215 1063.15 57.3841 1065.59 51.2846 1065.94ZM69.3956 1057.16L63.9103 1051.67C66.3355 1048.81 67.9072 1045.2 68.2403 1041.23H75.9947C75.6408 1047.33 73.2052 1052.87 69.3956 1057.16ZM68.2403 1038.14C67.9176 1034.17 66.3355 1030.56 63.9103 1027.7L69.3956 1022.21C73.2052 1026.5 75.6408 1032.04 75.9947 1038.14H68.2403Z" fill="#7DDACF"/>
<path d="M49.877 965.779C22.5543 965.779 0.331909 943.546 0.331909 916.234C0.331909 888.921 22.5647 866.688 49.877 866.688C77.1893 866.688 99.4221 888.921 99.4221 916.234C99.4221 943.546 77.1893 965.779 49.877 965.779ZM49.877 869.988C24.3758 869.988 3.63143 890.732 3.63143 916.234C3.63143 941.735 24.3758 962.479 49.877 962.479C75.3782 962.479 96.1226 941.735 96.1226 916.234C96.1226 890.732 75.3782 869.988 49.877 869.988Z" fill="#9DADF2"/>
<path d="M65.9513 885.299C65.7015 885.299 65.4517 885.247 65.2227 885.133C60.4243 882.759 55.2617 881.552 49.8804 881.552C44.4991 881.552 39.3365 882.759 34.5381 885.133C33.9032 885.445 33.1433 885.32 32.6437 884.82L24.1294 876.306C23.7651 875.942 23.5986 875.442 23.661 874.932C23.7235 874.422 24.015 873.975 24.4521 873.714C32.1233 869.114 40.9186 866.688 49.8908 866.688C58.8631 866.688 67.6584 869.124 75.3295 873.714C75.7667 873.975 76.0581 874.422 76.1206 874.932C76.183 875.442 76.0061 875.942 75.6522 876.306L67.1379 884.82C66.8153 885.133 66.3989 885.299 65.9618 885.299H65.9513ZM49.8804 878.252C55.3658 878.252 60.6533 879.397 65.6078 881.656L71.7698 875.494C65.0666 871.882 57.5412 869.988 49.8804 869.988C42.2196 869.988 34.6942 871.882 27.9911 875.494L34.153 881.656C39.1075 879.397 44.3951 878.252 49.8804 878.252Z" fill="#9DADF2"/>
<path d="M49.8786 965.779C40.9064 965.779 32.1111 963.343 24.4399 958.753C24.0027 958.493 23.7113 958.045 23.6488 957.535C23.5864 957.025 23.7633 956.525 24.1172 956.161L32.6315 947.647C33.1311 947.147 33.9014 947.022 34.5259 947.335C39.3243 949.708 44.4869 950.915 49.8682 950.915C55.2495 950.915 60.4122 949.708 65.2106 947.335C65.8455 947.022 66.6053 947.147 67.1049 947.647L75.6192 956.161C75.9835 956.525 76.15 957.025 76.0876 957.535C76.0251 958.045 75.7337 958.493 75.2965 958.753C67.6253 963.353 58.8301 965.779 49.8578 965.779H49.8786ZM27.9893 956.973C34.6924 960.585 42.2179 962.479 49.8786 962.479C57.5394 962.479 65.0648 960.585 71.768 956.973L65.6061 950.811C60.6515 953.07 55.364 954.215 49.8786 954.215C44.3933 954.215 39.1057 953.07 34.1512 950.811L27.9893 956.973Z" fill="#9DADF2"/>
<path d="M90.9826 942.474C90.5454 942.474 90.1291 942.307 89.8168 941.995L81.3026 933.481C80.8029 932.981 80.6781 932.211 80.9903 931.586C83.3635 926.788 84.5709 921.625 84.5709 916.244C84.5709 910.863 83.3635 905.7 80.9903 900.902C80.6781 900.267 80.8029 899.496 81.3026 899.007L89.8168 890.493C90.1811 890.129 90.6807 889.962 91.1908 890.025C91.7008 890.087 92.1483 890.378 92.4086 890.816C97.0092 898.487 99.4344 907.282 99.4344 916.254C99.4344 925.227 97.0092 934.022 92.4086 941.693C92.1483 942.13 91.7008 942.422 91.1908 942.484C91.1179 942.484 91.0554 942.484 90.9826 942.484V942.474ZM84.4564 931.961L90.6183 938.123C94.2301 931.42 96.1244 923.894 96.1244 916.234C96.1244 908.573 94.2301 901.047 90.6183 894.344L84.4564 900.506C86.7151 905.461 87.86 910.748 87.86 916.234C87.86 921.719 86.7151 927.006 84.4564 931.961Z" fill="#9DADF2"/>
<path d="M8.77305 942.474C8.70019 942.474 8.63774 942.474 8.57529 942.463C8.06526 942.401 7.61771 942.109 7.35749 941.672C2.75688 934.001 0.331665 925.206 0.331665 916.234C0.331665 907.261 2.75688 898.466 7.35749 890.795C7.61771 890.358 8.06526 890.066 8.57529 890.004C9.08531 889.941 9.58493 890.118 9.94923 890.472L18.4635 898.986C18.9631 899.486 19.088 900.256 18.7757 900.881C16.4026 905.679 15.1952 910.842 15.1952 916.223C15.1952 921.604 16.4026 926.767 18.7757 931.565C19.088 932.2 18.9631 932.971 18.4635 933.46L9.94923 941.974C9.63697 942.286 9.22063 942.463 8.78347 942.463L8.77305 942.474ZM9.13733 894.344C5.52553 901.047 3.63118 908.573 3.63118 916.234C3.63118 923.894 5.52553 931.42 9.13733 938.123L15.2993 931.961C13.0406 927.007 11.8956 921.719 11.8956 916.234C11.8956 910.748 13.0406 905.461 15.2993 900.506L9.13733 894.344Z" fill="#9DADF2"/>
<path d="M49.8781 878.242C28.9359 878.242 11.8866 895.281 11.8866 916.234C11.8866 937.186 28.9255 954.225 49.8781 954.225C70.8307 954.225 87.8696 937.186 87.8696 916.234C87.8696 895.281 70.8307 878.242 49.8781 878.242ZM71.2575 903.754C73.0582 906.835 74.1511 910.197 74.505 913.767C74.5154 913.913 74.4529 914.048 74.328 914.121C71.6113 915.786 69.1757 917.826 67.0732 920.21C66.9795 920.324 66.8234 920.366 66.6881 920.314L61.9938 918.784C61.8585 918.742 61.7648 918.628 61.744 918.482C61.2131 914.6 60.0057 910.884 58.153 907.428C58.0905 907.303 58.101 907.157 58.1842 907.043L61.0882 903.046C61.1611 902.952 61.2756 902.89 61.3901 902.89C61.4213 902.89 61.4421 902.89 61.4733 902.89C64.5751 903.577 67.7602 903.806 70.9244 903.546C71.0701 903.535 71.2054 903.608 71.2783 903.733L71.2575 903.754ZM59.1834 919.138C59.1938 919.242 59.1626 919.346 59.1002 919.419C56.6333 922.26 53.4899 924.54 50.0239 925.997C49.9302 926.039 49.8365 926.039 49.7428 925.997C46.2767 924.529 43.1333 922.25 40.6665 919.419C40.604 919.346 40.5728 919.242 40.5832 919.138C41.062 915.37 42.2382 911.768 44.0597 908.438C44.1118 908.344 44.195 908.282 44.2991 908.261C46.131 907.876 48.0046 907.678 49.8885 907.678C51.7725 907.678 53.646 907.876 55.478 908.261C55.5821 908.282 55.6653 908.344 55.7173 908.438C57.5389 911.768 58.7047 915.37 59.1939 919.138H59.1834ZM58.6214 893.304C58.6214 893.304 58.7463 893.199 58.8712 893.199C58.9128 893.199 58.9649 893.199 59.0169 893.231C62.8473 894.75 66.2717 897.248 68.9363 900.444C69.0716 900.6 69.0196 900.766 68.9884 900.829C68.9675 900.881 68.8739 901.048 68.6553 901.048C66.2926 901.079 63.9402 900.808 61.6607 900.267C61.567 900.246 61.4838 900.184 61.4317 900.1C60.2139 898.091 59.2355 895.926 58.5277 893.678C58.4652 893.48 58.5798 893.345 58.6318 893.304H58.6214ZM44.6218 892.054C48.067 891.315 51.6996 891.315 55.1449 892.054C55.2802 892.086 55.3947 892.19 55.4259 892.325C56.1649 895.416 57.3619 898.373 58.9753 901.11C59.0481 901.235 59.0377 901.391 58.9545 901.516L56.0713 905.492C55.988 905.606 55.8423 905.669 55.707 905.638C51.8974 904.867 47.8693 904.867 44.0597 905.638C43.9244 905.669 43.7787 905.606 43.6954 905.492L40.8122 901.516C40.729 901.401 40.7185 901.235 40.7914 901.11C42.4047 898.373 43.6017 895.416 44.3407 892.325C44.3719 892.19 44.4865 892.086 44.6218 892.054ZM30.8303 900.444C33.4949 897.238 36.9194 894.74 40.7498 893.231C40.8018 893.21 40.8538 893.199 40.8955 893.199C41.0308 893.199 41.114 893.272 41.1453 893.304C41.1973 893.356 41.3118 893.48 41.2494 893.678C40.5416 895.937 39.5631 898.091 38.3453 900.1C38.2933 900.184 38.21 900.246 38.1164 900.267C35.8369 900.808 33.4846 901.079 31.1218 901.048C30.9032 901.048 30.8095 900.881 30.7887 900.829C30.7575 900.766 30.7054 900.6 30.8407 900.444H30.8303ZM28.5092 903.754C28.5717 903.639 28.6966 903.566 28.8319 903.566C28.8319 903.566 28.8527 903.566 28.8631 903.566C32.0377 903.816 35.2228 903.598 38.3141 902.911C38.4599 902.879 38.6056 902.931 38.6888 903.056L41.5929 907.053C41.6762 907.168 41.6865 907.324 41.6241 907.438C39.7713 910.894 38.5639 914.61 38.0331 918.492C38.0123 918.628 37.9186 918.742 37.7833 918.794L33.089 920.324C32.9537 920.366 32.7975 920.324 32.7039 920.22C30.6013 917.837 28.1657 915.797 25.4491 914.131C25.3346 914.058 25.2617 913.923 25.2721 913.777C25.626 910.207 26.7189 906.835 28.5196 903.764L28.5092 903.754ZM29.6437 929.401C29.5813 929.598 29.4043 929.64 29.3315 929.65C29.2586 929.65 29.0921 929.65 28.9776 929.484C26.7605 925.997 25.4491 921.958 25.1889 917.816C25.1785 917.608 25.3138 917.504 25.3762 917.472C25.4387 917.441 25.6052 917.368 25.7717 917.493C27.6973 918.857 29.446 920.46 30.9761 922.24C31.0385 922.312 31.0697 922.406 31.0593 922.51C30.8719 924.852 30.3931 927.173 29.6333 929.411L29.6437 929.401ZM39.9275 938.904C36.68 937.478 33.8176 935.386 31.4236 932.7C31.3299 932.596 31.2987 932.44 31.3508 932.315C32.5686 929.38 33.3388 926.288 33.6407 923.124C33.6511 922.978 33.7552 922.854 33.8905 922.812L38.5327 921.303C38.5327 921.303 38.6056 921.282 38.6472 921.282C38.7513 921.282 38.845 921.324 38.9179 921.407C41.52 924.321 44.7779 926.694 48.3481 928.266C48.4834 928.329 48.5666 928.453 48.5666 928.599V933.481C48.5666 933.627 48.4834 933.762 48.3481 933.814C45.4337 935.073 42.7274 936.77 40.3022 938.841C40.1981 938.935 40.0419 938.956 39.917 938.893L39.9275 938.904ZM56.3002 939.934C56.2898 940.007 56.2378 940.174 56.0297 940.226C52.0119 941.246 47.7651 941.246 43.7474 940.226C43.5496 940.174 43.4873 940.007 43.4768 939.934C43.4664 939.861 43.4456 939.695 43.6225 939.559C45.5169 938.154 47.5778 936.978 49.7532 936.073C49.8469 936.031 49.9406 936.031 50.0343 936.073C52.1993 936.978 54.2602 938.154 56.165 939.559C56.3315 939.684 56.3211 939.861 56.3106 939.934H56.3002ZM68.3639 932.711C65.9699 935.396 63.1075 937.478 59.86 938.904C59.7247 938.966 59.579 938.935 59.4749 938.852C57.0497 936.78 54.3538 935.084 51.429 933.824C51.2937 933.762 51.2105 933.637 51.2105 933.491V928.61C51.2105 928.464 51.2937 928.329 51.429 928.277C54.9992 926.705 58.2675 924.332 60.8592 921.417C60.9321 921.334 61.0258 921.292 61.1298 921.292C61.1715 921.292 61.2027 921.292 61.2443 921.313L65.8866 922.822C66.0219 922.864 66.126 922.989 66.1364 923.135C66.4382 926.299 67.2085 929.38 68.4263 932.325C68.4784 932.45 68.4575 932.607 68.3534 932.711H68.3639ZM70.7995 929.494C70.685 929.671 70.508 929.671 70.4456 929.661C70.3727 929.661 70.2062 929.609 70.1333 929.411C69.3839 927.173 68.9051 924.852 68.7074 922.51C68.7074 922.416 68.7281 922.312 68.7906 922.24C70.3207 920.46 72.0693 918.867 73.9949 917.493C74.0678 917.441 74.1406 917.42 74.2031 917.42C74.2864 917.42 74.3488 917.452 74.3904 917.472C74.4529 917.504 74.5987 917.608 74.5778 917.816C74.3176 921.958 73.0061 925.997 70.7891 929.484L70.7995 929.494Z" fill="#9DADF2"/>
<path d="M99.111 793.911C99.111 821.234 76.8782 843.467 49.5555 843.467C22.2328 843.467 0 821.234 0 793.911C0 766.589 22.2328 744.356 49.5555 744.356C76.8782 744.356 99.111 766.589 99.111 793.911ZM3.57015 793.911C3.57015 819.267 24.2001 839.897 49.5555 839.897C74.9109 839.897 95.5408 819.267 95.5408 793.911C95.5408 768.556 74.9109 747.926 49.5555 747.926C24.2001 747.926 3.57015 768.556 3.57015 793.911Z" fill="#478BF9"/>
<path d="M99.1136 672.776C99.1136 673.765 98.3122 674.556 97.3338 674.556C96.3553 674.556 95.5539 673.754 95.5539 672.776C95.5539 647.42 74.924 626.79 49.5685 626.79C24.2131 626.79 3.58317 647.42 3.58317 672.776C3.58317 673.765 2.78169 674.556 1.80327 674.556C0.824862 674.556 0.0234375 673.754 0.0234375 672.776C0.0234375 645.453 22.2563 623.22 49.5789 623.22C76.9016 623.22 99.1344 645.453 99.1344 672.776H99.1136Z" fill="#478BF9"/>
<path d="M40.012 785.158C40.012 786.979 41.2506 788.561 43.0201 788.999L46.382 789.842V781.192H43.9881C41.8023 781.192 40.0224 782.972 40.0224 785.158H40.012Z" fill="#478BF9"/>
<path d="M52.7293 806.631H55.1234C57.3092 806.631 59.0891 804.851 59.0891 802.665C59.0891 800.844 57.8504 799.261 56.081 798.824L52.719 797.981V806.631H52.7293Z" fill="#478BF9"/>
<path d="M49.5564 753.588C27.3235 753.588 9.2229 771.679 9.2229 793.922C9.2229 816.165 27.3131 834.255 49.5564 834.255C71.7996 834.255 89.8898 816.165 89.8898 793.922C89.8898 771.679 71.7996 753.588 49.5564 753.588ZM65.4608 787.552H59.1011V784.367C59.1011 782.618 57.6751 781.182 55.916 781.182H52.731V791.424L57.6335 792.652C62.2341 793.807 65.4504 797.919 65.4504 802.665C65.4504 808.359 60.8185 812.99 55.125 812.99H52.731V821.047H46.3713V812.99H43.1863C37.9195 812.99 33.6416 808.713 33.6416 803.446V800.261H40.0012V803.446C40.0012 805.194 41.4272 806.631 43.1863 806.631H46.3713V796.389L41.4688 795.16C36.8682 794.005 33.652 789.894 33.652 785.147C33.652 779.454 38.2838 774.822 43.9773 774.822H46.3713V766.766H52.731V774.822H55.916C61.1828 774.822 65.4608 779.1 65.4608 784.367V787.552Z" fill="#478BF9"/>
<path d="M99.173 672.016V791.611C99.173 792.6 98.3716 793.391 97.3932 793.391C96.4148 793.391 95.6133 792.59 95.6133 791.611V672.016C95.6133 671.027 96.4148 670.236 97.3932 670.236C98.3716 670.236 99.173 671.038 99.173 672.016Z" fill="#478BF9"/>
<path d="M3.63786 671.756V791.351C3.63786 792.34 2.83637 793.131 1.85796 793.131C0.879549 793.131 0.078125 792.329 0.078125 791.351V671.756C0.078125 670.767 0.879549 669.976 1.85796 669.976C2.83637 669.976 3.63786 670.777 3.63786 671.756Z" fill="#478BF9"/>
<path d="M49.7326 592.626C37.0341 592.626 24.3459 587.797 14.6763 578.127C-4.65252 558.798 -4.65252 527.354 14.6763 508.025C24.0441 498.657 36.4928 493.505 49.7326 493.505C62.9724 493.505 75.4212 498.657 84.7889 508.025C104.118 527.354 104.118 558.798 84.7889 578.127C75.1297 587.786 62.4311 592.626 49.7326 592.626ZM17.2785 575.525C35.1709 593.417 64.2839 593.417 82.1763 575.525C100.069 557.632 100.069 528.519 82.1763 510.627C73.506 501.956 61.9836 497.189 49.7222 497.189C37.4609 497.189 25.9384 501.967 17.2681 510.627C-0.624391 528.519 -0.624391 557.632 17.2681 575.525H17.2785Z" fill="#9DADF2"/>
<path d="M49.077 561.619C49.2539 562.046 49.6703 562.295 50.1074 562.295C50.2532 562.295 50.3989 562.264 50.5446 562.212C54.0419 560.744 57.2269 558.475 59.7458 555.644C60.1518 555.186 60.1101 554.479 59.6521 554.073C59.1942 553.667 58.4864 553.708 58.0804 554.166C55.7801 556.758 52.8761 558.829 49.6806 560.162C49.1186 560.401 48.8479 561.057 49.0873 561.619H49.077Z" fill="#9DADF2"/>
<path d="M68.6226 525.938L50.1369 518.548C49.8663 518.444 49.5748 518.444 49.3042 518.548L30.8185 525.938C30.3917 526.104 30.1211 526.51 30.1211 526.968V540.208C30.1419 552.428 37.8651 563.471 49.3355 567.677C49.4604 567.718 49.5853 567.739 49.7206 567.739C49.8559 567.739 49.9808 567.718 50.1057 567.677C61.576 563.461 69.2992 552.428 69.32 540.208V526.968C69.32 526.51 69.0494 526.104 68.6226 525.938ZM67.0926 540.208C67.0718 551.325 60.0979 561.452 49.7309 565.439C39.3639 561.452 32.3797 551.325 32.3589 540.208V527.728L49.7309 520.786L67.0926 527.728V540.208Z" fill="#9DADF2"/>
<path d="M42.0084 527.676C41.7378 527.562 41.4359 527.562 41.1549 527.676L36.752 529.435C36.3253 529.602 36.0547 530.008 36.0547 530.466V535.16C36.0547 535.774 36.5543 536.274 37.1684 536.274C37.7825 536.274 38.2821 535.774 38.2821 535.16V531.226L41.9772 529.748C42.2582 529.633 42.4664 529.425 42.5913 529.144C42.7058 528.873 42.7058 528.571 42.5913 528.29C42.4768 528.009 42.2686 527.801 41.998 527.676H42.0084Z" fill="#9DADF2"/>
<path d="M77.8877 514.926C70.3727 507.4 60.3699 503.268 49.7323 503.268C39.0947 503.268 29.1024 507.411 21.577 514.926C6.05768 530.445 6.05768 555.707 21.577 571.237C29.3418 579.001 39.5318 582.873 49.7323 582.873C59.9328 582.873 70.1229 578.991 77.8877 571.237C93.407 555.717 93.407 530.455 77.8877 514.926ZM72.3815 540.208C72.4127 554.333 63.3884 566.688 49.9301 570.966C49.8052 571.008 49.6698 571.008 49.5345 570.966C36.0762 566.688 27.0519 554.333 27.0832 540.208V524.585C27.0832 524.325 27.2392 524.085 27.4891 523.981L49.4929 515.186C49.5658 515.155 49.649 515.144 49.7323 515.144C49.8156 515.144 49.8989 515.155 49.9717 515.186L71.9756 523.992C72.2254 524.085 72.3815 524.325 72.3815 524.595V540.219V540.208Z" fill="#9DADF2"/>
<path d="M49.7326 466.016C22.4099 466.016 0.1875 443.783 0.1875 416.47C0.1875 389.158 22.4203 366.925 49.7326 366.925C77.0448 366.925 99.2777 389.158 99.2777 416.47C99.2777 443.783 77.0448 466.016 49.7326 466.016ZM49.7326 370.225C24.2314 370.225 3.48702 390.969 3.48702 416.47C3.48702 441.972 24.2314 462.716 49.7326 462.716C75.2337 462.716 95.9782 441.972 95.9782 416.47C95.9782 390.969 75.2337 370.225 49.7326 370.225Z" fill="#7DDACF"/>
<path d="M82.0648 381.117L66.7266 396.455L69.7442 399.473L85.0824 384.135L82.0648 381.117Z" fill="#7DDACF"/>
<path d="M29.2639 433.916L13.9257 449.254L16.9432 452.272L32.2815 436.933L29.2639 433.916Z" fill="#7DDACF"/>
<path d="M70.1934 433.924L67.1758 436.941L82.514 452.279L85.5316 449.262L70.1934 433.924Z" fill="#7DDACF"/>
<path d="M16.9395 380.663L13.9219 383.68L29.2528 399.011L32.2704 395.994L16.9395 380.663Z" fill="#7DDACF"/>
<path d="M61.8167 417.803C62.816 416.804 62.816 415.19 61.8167 414.201L59.6933 412.088C58.6941 411.089 57.0808 411.089 56.092 412.088L54.947 413.233L53.6251 411.911C52.6259 410.912 51.0126 410.912 50.0237 411.911L48.8788 413.067L47.5569 411.735C46.5577 410.735 44.9443 410.735 43.9555 411.735L36.9297 418.76C36.8776 418.812 36.8776 418.896 36.9297 418.958C37.8664 419.895 39.3965 419.895 40.3437 418.958L44.8715 414.43C45.3607 413.941 46.1517 413.941 46.6409 414.43L46.974 414.763C47.0365 414.826 47.0365 414.92 46.974 414.982L43.1957 418.76C43.1436 418.812 43.1436 418.896 43.1957 418.958C44.1325 419.895 45.6625 419.895 46.6097 418.958L50.9501 414.618C51.4393 414.129 52.2304 414.129 52.7196 414.618L53.0526 414.951C53.1047 415.003 53.1047 415.086 53.0526 415.149L49.4096 418.792C49.3576 418.844 49.3576 418.927 49.4096 418.989C50.3464 419.926 51.8765 419.926 52.8237 418.989L57.0183 414.795C57.5075 414.305 58.2986 414.305 58.7878 414.795L59.506 415.513C59.787 415.794 59.787 416.262 59.506 416.543L59.3915 416.658C59.1105 416.939 58.6421 416.939 58.3611 416.658L57.4347 415.731C57.3826 415.679 57.2994 415.679 57.2369 415.731L55.634 417.334C55.582 417.386 55.582 417.47 55.634 417.532L57.0808 418.979C58.08 419.978 59.6934 419.978 60.6822 418.979L61.8272 417.834L61.8167 417.803Z" fill="#7DDACF"/>
<path d="M49.7337 378.479C28.7499 378.479 11.7422 395.487 11.7422 416.471C11.7422 437.454 28.7499 454.462 49.7337 454.462C70.7175 454.462 87.7252 437.454 87.7252 416.471C87.7252 395.487 70.7175 378.479 49.7337 378.479ZM51.2846 390.21C57.3841 390.563 62.9215 392.999 67.2098 396.809L61.7245 402.294C58.8621 399.869 55.2503 398.297 51.2846 397.964V390.21ZM48.1932 390.21V397.964C44.2276 398.287 40.6158 399.869 37.7534 402.294L32.268 396.809C36.5564 392.999 42.0938 390.563 48.1932 390.21ZM30.0823 398.994L35.5676 404.48C33.1424 407.342 31.5707 410.954 31.2376 414.92H23.4832C23.8371 408.82 26.2727 403.283 30.0823 398.994ZM23.4832 418.011H31.2376C31.5603 421.977 33.1424 425.588 35.5676 428.451L30.0823 433.936C26.2727 429.648 23.8371 424.111 23.4832 418.011ZM48.1932 442.721C42.0938 442.367 36.5564 439.932 32.268 436.122L37.7534 430.637C40.6158 433.062 44.2276 434.634 48.1932 434.967V442.721ZM33.7669 416.46C33.7669 407.644 40.9176 400.493 49.7337 400.493C58.5498 400.493 65.7006 407.644 65.7006 416.46C65.7006 425.276 58.5498 432.427 49.7337 432.427C40.9176 432.427 33.7669 425.276 33.7669 416.46ZM51.2846 442.721V434.967C55.2503 434.644 58.8621 433.062 61.7245 430.637L67.2098 436.122C62.9215 439.932 57.3841 442.367 51.2846 442.721ZM69.3956 433.936L63.9103 428.451C66.3355 425.588 67.9072 421.977 68.2403 418.011H75.9947C75.6408 424.111 73.2052 429.648 69.3956 433.936ZM68.2403 414.92C67.9176 410.954 66.3355 407.342 63.9103 404.48L69.3956 398.994C73.2052 403.283 75.6408 408.82 75.9947 414.92H68.2403Z" fill="#7DDACF"/>
<path d="M49.877 342.559C22.5543 342.559 0.331909 320.326 0.331909 293.014C0.331909 265.701 22.5647 243.469 49.877 243.469C77.1893 243.469 99.4221 265.701 99.4221 293.014C99.4221 320.326 77.1893 342.559 49.877 342.559ZM49.877 246.768C24.3758 246.768 3.63143 267.512 3.63143 293.014C3.63143 318.515 24.3758 339.259 49.877 339.259C75.3782 339.259 96.1226 318.515 96.1226 293.014C96.1226 267.512 75.3782 246.768 49.877 246.768Z" fill="#9DADF2"/>
<path d="M65.9513 262.079C65.7015 262.079 65.4517 262.027 65.2227 261.913C60.4243 259.539 55.2617 258.332 49.8804 258.332C44.4991 258.332 39.3365 259.539 34.5381 261.913C33.9032 262.225 33.1433 262.1 32.6437 261.6L24.1294 253.086C23.7651 252.722 23.5986 252.222 23.661 251.712C23.7235 251.202 24.015 250.755 24.4521 250.494C32.1233 245.894 40.9186 243.469 49.8908 243.469C58.8631 243.469 67.6584 245.904 75.3295 250.494C75.7667 250.755 76.0581 251.202 76.1206 251.712C76.183 252.222 76.0061 252.722 75.6522 253.086L67.1379 261.6C66.8153 261.913 66.3989 262.079 65.9618 262.079H65.9513ZM49.8804 255.032C55.3658 255.032 60.6533 256.177 65.6078 258.436L71.7698 252.274C65.0666 248.662 57.5412 246.768 49.8804 246.768C42.2196 246.768 34.6942 248.662 27.9911 252.274L34.153 258.436C39.1075 256.177 44.3951 255.032 49.8804 255.032Z" fill="#9DADF2"/>
<path d="M49.8786 342.559C40.9064 342.559 32.1111 340.123 24.4399 335.533C24.0027 335.273 23.7113 334.825 23.6488 334.315C23.5864 333.805 23.7633 333.305 24.1172 332.941L32.6315 324.427C33.1311 323.927 33.9014 323.802 34.5259 324.115C39.3243 326.488 44.4869 327.695 49.8682 327.695C55.2495 327.695 60.4122 326.488 65.2106 324.115C65.8455 323.802 66.6053 323.927 67.1049 324.427L75.6192 332.941C75.9835 333.305 76.15 333.805 76.0876 334.315C76.0251 334.825 75.7337 335.273 75.2965 335.533C67.6253 340.133 58.8301 342.559 49.8578 342.559H49.8786ZM27.9893 333.753C34.6924 337.365 42.2179 339.259 49.8786 339.259C57.5394 339.259 65.0648 337.365 71.768 333.753L65.6061 327.591C60.6515 329.85 55.364 330.995 49.8786 330.995C44.3933 330.995 39.1057 329.85 34.1512 327.591L27.9893 333.753Z" fill="#9DADF2"/>
<path d="M90.9826 319.254C90.5454 319.254 90.1291 319.087 89.8168 318.775L81.3026 310.261C80.8029 309.761 80.6781 308.991 80.9903 308.366C83.3635 303.568 84.5709 298.405 84.5709 293.024C84.5709 287.643 83.3635 282.48 80.9903 277.682C80.6781 277.047 80.8029 276.276 81.3026 275.787L89.8168 267.273C90.1811 266.909 90.6807 266.742 91.1908 266.805C91.7008 266.867 92.1483 267.159 92.4086 267.596C97.0092 275.267 99.4344 284.062 99.4344 293.034C99.4344 302.007 97.0092 310.802 92.4086 318.473C92.1483 318.91 91.7008 319.202 91.1908 319.264C91.1179 319.264 91.0554 319.264 90.9826 319.264V319.254ZM84.4564 308.741L90.6183 314.903C94.2301 308.2 96.1244 300.674 96.1244 293.014C96.1244 285.353 94.2301 277.827 90.6183 271.124L84.4564 277.286C86.7151 282.241 87.86 287.528 87.86 293.014C87.86 298.499 86.7151 303.786 84.4564 308.741Z" fill="#9DADF2"/>
<path d="M8.77305 319.254C8.70019 319.254 8.63774 319.254 8.57529 319.243C8.06526 319.181 7.61771 318.889 7.35749 318.452C2.75688 310.781 0.331665 301.986 0.331665 293.014C0.331665 284.041 2.75688 275.246 7.35749 267.575C7.61771 267.138 8.06526 266.846 8.57529 266.784C9.08531 266.721 9.58493 266.898 9.94923 267.252L18.4635 275.767C18.9631 276.266 19.088 277.036 18.7757 277.661C16.4026 282.459 15.1952 287.622 15.1952 293.003C15.1952 298.384 16.4026 303.547 18.7757 308.346C19.088 308.98 18.9631 309.751 18.4635 310.24L9.94923 318.754C9.63697 319.066 9.22063 319.243 8.78347 319.243L8.77305 319.254ZM9.13733 271.124C5.52553 277.827 3.63118 285.353 3.63118 293.014C3.63118 300.674 5.52553 308.2 9.13733 314.903L15.2993 308.741C13.0406 303.787 11.8956 298.499 11.8956 293.014C11.8956 287.528 13.0406 282.241 15.2993 277.286L9.13733 271.124Z" fill="#9DADF2"/>
<path d="M49.8781 255.022C28.9359 255.022 11.8866 272.061 11.8866 293.013C11.8866 313.966 28.9255 331.005 49.8781 331.005C70.8307 331.005 87.8696 313.966 87.8696 293.013C87.8696 272.061 70.8307 255.022 49.8781 255.022ZM71.2575 280.534C73.0582 283.615 74.1511 286.976 74.505 290.547C74.5154 290.692 74.4529 290.828 74.328 290.901C71.6113 292.566 69.1757 294.606 67.0732 296.99C66.9795 297.104 66.8234 297.146 66.6881 297.094L61.9938 295.564C61.8585 295.522 61.7648 295.408 61.744 295.262C61.2131 291.379 60.0057 287.663 58.153 284.208C58.0905 284.083 58.101 283.937 58.1842 283.823L61.0882 279.826C61.1611 279.732 61.2756 279.67 61.3901 279.67C61.4213 279.67 61.4421 279.67 61.4733 279.67C64.5751 280.357 67.7602 280.586 70.9244 280.325C71.0701 280.315 71.2054 280.388 71.2783 280.513L71.2575 280.534ZM59.1834 295.917C59.1938 296.022 59.1626 296.126 59.1002 296.199C56.6333 299.04 53.4899 301.32 50.0239 302.777C49.9302 302.818 49.8365 302.818 49.7428 302.777C46.2767 301.309 43.1333 299.03 40.6665 296.199C40.604 296.126 40.5728 296.022 40.5832 295.917C41.062 292.15 42.2382 288.548 44.0597 285.217C44.1118 285.124 44.195 285.061 44.2991 285.041C46.131 284.655 48.0046 284.458 49.8885 284.458C51.7725 284.458 53.646 284.655 55.478 285.041C55.5821 285.061 55.6653 285.124 55.7173 285.217C57.5389 288.548 58.7047 292.15 59.1939 295.917H59.1834ZM58.6214 270.083C58.6214 270.083 58.7463 269.979 58.8712 269.979C58.9128 269.979 58.9649 269.979 59.0169 270.01C62.8473 271.53 66.2717 274.028 68.9363 277.224C69.0716 277.38 69.0196 277.546 68.9884 277.609C68.9675 277.661 68.8739 277.827 68.6553 277.827C66.2926 277.859 63.9402 277.588 61.6607 277.047C61.567 277.026 61.4838 276.963 61.4317 276.88C60.2139 274.871 59.2355 272.706 58.5277 270.458C58.4652 270.26 58.5798 270.125 58.6318 270.083H58.6214ZM44.6218 268.834C48.067 268.095 51.6996 268.095 55.1449 268.834C55.2802 268.865 55.3947 268.97 55.4259 269.105C56.1649 272.196 57.3619 275.152 58.9753 277.89C59.0481 278.015 59.0377 278.171 58.9545 278.296L56.0713 282.272C55.988 282.386 55.8423 282.449 55.707 282.418C51.8974 281.647 47.8693 281.647 44.0597 282.418C43.9244 282.449 43.7787 282.386 43.6954 282.272L40.8122 278.296C40.729 278.181 40.7185 278.015 40.7914 277.89C42.4047 275.152 43.6017 272.196 44.3407 269.105C44.3719 268.97 44.4865 268.865 44.6218 268.834ZM30.8303 277.224C33.4949 274.018 36.9194 271.52 40.7498 270.01C40.8018 269.99 40.8538 269.979 40.8955 269.979C41.0308 269.979 41.114 270.052 41.1453 270.083C41.1973 270.135 41.3118 270.26 41.2494 270.458C40.5416 272.717 39.5631 274.871 38.3453 276.88C38.2933 276.963 38.21 277.026 38.1164 277.047C35.8369 277.588 33.4846 277.859 31.1218 277.827C30.9032 277.827 30.8095 277.661 30.7887 277.609C30.7575 277.546 30.7054 277.38 30.8407 277.224H30.8303ZM28.5092 280.534C28.5717 280.419 28.6966 280.346 28.8319 280.346C28.8319 280.346 28.8527 280.346 28.8631 280.346C32.0377 280.596 35.2228 280.377 38.3141 279.69C38.4599 279.659 38.6056 279.711 38.6888 279.836L41.5929 283.833C41.6762 283.948 41.6865 284.104 41.6241 284.218C39.7713 287.674 38.5639 291.39 38.0331 295.272C38.0123 295.407 37.9186 295.522 37.7833 295.574L33.089 297.104C32.9537 297.146 32.7975 297.104 32.7039 297C30.6013 294.616 28.1657 292.576 25.4491 290.911C25.3346 290.838 25.2617 290.703 25.2721 290.557C25.626 286.987 26.7189 283.615 28.5196 280.544L28.5092 280.534ZM29.6437 306.18C29.5813 306.378 29.4043 306.42 29.3315 306.43C29.2586 306.43 29.0921 306.43 28.9776 306.264C26.7605 302.777 25.4491 298.738 25.1889 294.596C25.1785 294.387 25.3138 294.283 25.3762 294.252C25.4387 294.221 25.6052 294.148 25.7717 294.273C27.6973 295.636 29.446 297.239 30.9761 299.019C31.0385 299.092 31.0697 299.186 31.0593 299.29C30.8719 301.632 30.3931 303.953 29.6333 306.191L29.6437 306.18ZM39.9275 315.684C36.68 314.258 33.8176 312.165 31.4236 309.48C31.3299 309.376 31.2987 309.22 31.3508 309.095C32.5686 306.16 33.3388 303.068 33.6407 299.904C33.6511 299.758 33.7552 299.633 33.8905 299.592L38.5327 298.082C38.5327 298.082 38.6056 298.062 38.6472 298.062C38.7513 298.062 38.845 298.103 38.9179 298.187C41.52 301.101 44.7779 303.474 48.3481 305.046C48.4834 305.108 48.5666 305.233 48.5666 305.379V310.261C48.5666 310.406 48.4834 310.542 48.3481 310.594C45.4337 311.853 42.7274 313.55 40.3022 315.621C40.1981 315.715 40.0419 315.736 39.917 315.673L39.9275 315.684ZM56.3002 316.714C56.2898 316.787 56.2378 316.953 56.0297 317.005C52.0119 318.025 47.7651 318.025 43.7474 317.005C43.5496 316.953 43.4873 316.787 43.4768 316.714C43.4664 316.641 43.4456 316.475 43.6225 316.339C45.5169 314.934 47.5778 313.758 49.7532 312.852C49.8469 312.811 49.9406 312.811 50.0343 312.852C52.1993 313.758 54.2602 314.934 56.165 316.339C56.3315 316.464 56.3211 316.641 56.3106 316.714H56.3002ZM68.3639 309.49C65.9699 312.176 63.1075 314.258 59.86 315.684C59.7247 315.746 59.579 315.715 59.4749 315.631C57.0497 313.56 54.3538 311.864 51.429 310.604C51.2937 310.542 51.2105 310.417 51.2105 310.271V305.389C51.2105 305.244 51.2937 305.108 51.429 305.056C54.9992 303.485 58.2675 301.111 60.8592 298.197C60.9321 298.114 61.0258 298.072 61.1298 298.072C61.1715 298.072 61.2027 298.072 61.2443 298.093L65.8866 299.602C66.0219 299.644 66.126 299.769 66.1364 299.914C66.4382 303.079 67.2085 306.16 68.4263 309.105C68.4784 309.23 68.4575 309.386 68.3534 309.49H68.3639ZM70.7995 306.274C70.685 306.451 70.508 306.451 70.4456 306.441C70.3727 306.441 70.2062 306.389 70.1333 306.191C69.3839 303.953 68.9051 301.632 68.7074 299.29C68.7074 299.196 68.7281 299.092 68.7906 299.019C70.3207 297.239 72.0693 295.647 73.9949 294.273C74.0678 294.221 74.1406 294.2 74.2031 294.2C74.2864 294.2 74.3488 294.231 74.3904 294.252C74.4529 294.283 74.5987 294.387 74.5778 294.596C74.3176 298.738 73.0061 302.777 70.7891 306.264L70.7995 306.274Z" fill="#9DADF2"/>
<path d="M99.111 170.691C99.111 198.014 76.8782 220.247 49.5555 220.247C22.2328 220.247 0 198.014 0 170.691C0 143.369 22.2328 121.136 49.5555 121.136C76.8782 121.136 99.111 143.369 99.111 170.691ZM3.57015 170.691C3.57015 196.047 24.2001 216.677 49.5555 216.677C74.9109 216.677 95.5408 196.047 95.5408 170.691C95.5408 145.336 74.9109 124.706 49.5555 124.706C24.2001 124.706 3.57015 145.336 3.57015 170.691Z" fill="#478BF9"/>
<path d="M99.1136 49.5555C99.1136 50.5443 98.3122 51.3354 97.3338 51.3354C96.3553 51.3354 95.5539 50.5339 95.5539 49.5555C95.5539 24.2001 74.924 3.57015 49.5685 3.57015C24.2131 3.57015 3.58317 24.2001 3.58317 49.5555C3.58317 50.5443 2.78169 51.3354 1.80327 51.3354C0.824862 51.3354 0.0234375 50.5339 0.0234375 49.5555C0.0234375 22.2328 22.2563 0 49.5789 0C76.9016 0 99.1344 22.2328 99.1344 49.5555H99.1136Z" fill="#478BF9"/>
<path d="M40.012 161.938C40.012 163.759 41.2506 165.341 43.0201 165.778L46.382 166.621V157.972H43.9881C41.8023 157.972 40.0224 159.752 40.0224 161.938H40.012Z" fill="#478BF9"/>
<path d="M52.7293 183.411H55.1234C57.3092 183.411 59.0891 181.631 59.0891 179.445C59.0891 177.623 57.8504 176.041 56.081 175.604L52.719 174.761V183.411H52.7293Z" fill="#478BF9"/>
<path d="M49.5564 130.368C27.3235 130.368 9.2229 148.458 9.2229 170.702C9.2229 192.945 27.3131 211.035 49.5564 211.035C71.7996 211.035 89.8898 192.945 89.8898 170.702C89.8898 148.458 71.7996 130.368 49.5564 130.368ZM65.4608 164.332H59.1011V161.147C59.1011 159.398 57.6751 157.961 55.916 157.961H52.731V168.204L57.6335 169.432C62.2341 170.587 65.4504 174.699 65.4504 179.445C65.4504 185.138 60.8185 189.77 55.125 189.77H52.731V197.827H46.3713V189.77H43.1863C37.9195 189.77 33.6416 185.492 33.6416 180.226V177.041H40.0012V180.226C40.0012 181.974 41.4272 183.411 43.1863 183.411H46.3713V173.168L41.4688 171.94C36.8682 170.785 33.652 166.673 33.652 161.927C33.652 156.234 38.2838 151.602 43.9773 151.602H46.3713V143.546H52.731V151.602H55.916C61.1828 151.602 65.4608 155.88 65.4608 161.147V164.332Z" fill="#478BF9"/>
<path d="M99.173 48.7957V168.391C99.173 169.38 98.3716 170.171 97.3932 170.171C96.4148 170.171 95.6133 169.369 95.6133 168.391V48.7957C95.6133 47.8069 96.4148 47.0159 97.3932 47.0159C98.3716 47.0159 99.173 47.8173 99.173 48.7957Z" fill="#478BF9"/>
<path d="M3.63786 48.5355V168.131C3.63786 169.12 2.83637 169.911 1.85796 169.911C0.879549 169.911 0.078125 169.109 0.078125 168.131V48.5355C0.078125 47.5466 0.879549 46.7556 1.85796 46.7556C2.83637 46.7556 3.63786 47.557 3.63786 48.5355Z" fill="#478BF9"/>
</g>
</svg>
