<svg width="16" height="16" fill="none" xmlns="http://www.w3.org/2000/svg"><path fill="#F5F5F5" d="M0 0h16v16H0z"/><g id="Adaptive Main page 1920 / 320"><path d="M-1908-1415c0-110.46 89.54-200 200-200h3295c110.46 0 200 89.54 200 200v7617c0 110.46-89.54 200-200 200h-3295c-110.46 0-200-89.54-200-200v-7617z" fill="#478BF9" fill-opacity=".01"/><g id="1920 - Main_Page" clip-path="url(#clip0_0_1)"><path transform="translate(-1476 -1220)" fill="#110A1D" d="M0 0h1920v1265H0z"/><g id="Footer"><mask id="path-3-inside-1_0_1" fill="#fff"><path d="M-1476-18c0-35.346 28.65-64 64-64H380c35.346 0 64 28.654 64 64v66h-1920v-66z"/></mask><path d="M-1476-18c0-35.346 28.65-64 64-64H380c35.346 0 64 28.654 64 64v66h-1920v-66z" fill="#1E1231"/><g id="Logo, Pages, Socials"><g id="Socials Area"><g id="Buttons Socials"><g id="Buttons - Socials" clip-path="url(#clip1_0_1)"><g id="BG Vector"><g id="BG"><path id="Union" fill-rule="evenodd" clip-rule="evenodd" d="M-8 8c0 8.82 7.176 16 16 16 8.82 0 16-7.18 16-16S16.82-8 8-8-8-.82-8 8zm5.942-11.03A14.877 14.877 0 018-6.935c3.87 0 7.4 1.479 10.056 3.901l-1.188 1.188A13.201 13.201 0 008-5.25c-3.412 0-6.522 1.29-8.87 3.407l-1.188-1.188zm-.974.974A14.877 14.877 0 00-6.934 8c0 3.87 1.479 7.4 3.9 10.055l1.188-1.187A13.201 13.201 0 01-5.25 8c0-3.41 1.288-6.52 3.405-8.869l-1.187-1.187zm.973 21.086A14.877 14.877 0 008 22.934c3.87 0 7.4-1.478 10.055-3.9l-1.188-1.188A13.201 13.201 0 018 21.25c-3.412 0-6.523-1.29-8.871-3.407L-2.06 19.03zM22.934 8a14.88 14.88 0 01-3.905 10.06l-1.187-1.188A13.201 13.201 0 0021.25 8c0-3.412-1.29-6.522-3.407-8.87l1.187-1.188A14.877 14.877 0 0122.934 8z" fill="#478BF9"/></g></g><g id="Twitter"><g id="Vector"><path id="Vector_2" d="M13.312 5.539v.374C13.312 9.68 10.559 14 5.52 14a7.416 7.416 0 01-4.188-1.291 5.366 5.366 0 004.054-1.171 2.66 2.66 0 01-1.587-.56 2.83 2.83 0 01-.971-1.42c.17.037.344.056.519.056.243 0 .486-.034.72-.101a2.712 2.712 0 01-1.578-.985 2.901 2.901 0 01-.616-1.803v-.037c.38.22.805.34 1.24.351a2.823 2.823 0 01-1.15-1.705 2.92 2.92 0 01.288-2.06 7.84 7.84 0 002.52 2.11c.974.513 2.04.806 3.13.862a2.475 2.475 0 01-.075-.651c-.02-.58.132-1.154.437-1.64a2.746 2.746 0 011.264-1.083 2.626 2.626 0 011.635-.132 2.702 2.702 0 011.41.868 5.494 5.494 0 001.74-.693 2.844 2.844 0 01-1.221 1.598 5.559 5.559 0 001.575-.471 5.741 5.741 0 01-1.355 1.497z" fill="#110A1D"/></g></g></g></g></g></g><path d="M-1480-18c0-37.555 30.44-68 68-68H380c37.555 0 68 30.445 68 68h-8c0-33.137-26.863-60-60-60h-1792c-33.14 0-60 26.863-60 60h-8zM444 48h-1920H444zm-1924 0v-66c0-37.555 30.44-68 68-68v8c-33.14 0-60 26.863-60 60v66h-8zM380-86c37.555 0 68 30.445 68 68v66h-8v-66c0-33.137-26.863-60-60-60v-8z" fill="#478BF9" mask="url(#path-3-inside-1_0_1)"/></g><g id="Banner Area"><g id="Dot Light" opacity=".7" filter="url(#filter0_f_0_1)"><circle cx="323" cy="-251" r="287" fill="url(#paint0_linear_0_1)"/></g></g></g><path d="M-1708-1595h3295v-40h-3295v40zm3475 180v7617h40v-7617h-40zm-180 7797h-3295v40h3295v-40zm-3475-180v-7617h-40v7617h40zm180 180c-99.41 0-180-80.59-180-180h-40c0 121.5 98.5 220 220 220v-40zm3475-180c0 99.41-80.59 180-180 180v40c121.5 0 220-98.5 220-220h-40zm-180-7797c99.41 0 180 80.59 180 180h40c0-121.5-98.5-220-220-220v40zm-3295-40c-121.5 0-220 98.5-220 220h40c0-99.41 80.59-180 180-180v-40z" fill="#478BF9"/></g><defs><clipPath id="clip0_0_1"><path fill="#fff" transform="translate(-1476 -1220)" d="M0 0h1920v1265H0z"/></clipPath><clipPath id="clip1_0_1"><path fill="#fff" transform="translate(-8 -8)" d="M0 0h32v32H0z"/></clipPath><linearGradient id="paint0_linear_0_1" x1="610" y1="-538" x2="-65.294" y2="-369.177" gradientUnits="userSpaceOnUse"><stop stop-color="#478BF9"/><stop offset="1" stop-color="#9DADF2"/></linearGradient><filter id="filter0_f_0_1" x="-614" y="-1188" width="1874" height="1874" filterUnits="userSpaceOnUse" color-interpolation-filters="sRGB"><feFlood flood-opacity="0" result="BackgroundImageFix"/><feBlend in="SourceGraphic" in2="BackgroundImageFix" result="shape"/><feGaussianBlur stdDeviation="325" result="effect1_foregroundBlur_0_1"/></filter></defs></svg>