<svg width="14" height="12" fill="none" xmlns="http://www.w3.org/2000/svg"><path d="M12.312 3.539v.374C12.312 7.68 9.558 12 4.52 12a7.416 7.416 0 01-4.187-1.29 5.366 5.366 0 004.054-1.171 2.66 2.66 0 01-1.587-.56 2.83 2.83 0 01-.971-1.42c.17.037.344.056.519.056.243 0 .486-.034.72-.101a2.712 2.712 0 01-1.578-.985 2.901 2.901 0 01-.616-1.803v-.037c.38.22.805.34 1.24.351a2.823 2.823 0 01-1.15-1.705 2.92 2.92 0 01.288-2.06 7.84 7.84 0 002.52 2.11c.974.513 2.04.806 3.13.862a2.475 2.475 0 01-.075-.651c-.02-.58.132-1.154.437-1.64A2.746 2.746 0 018.528.871 2.626 2.626 0 0110.163.74a2.702 2.702 0 011.41.868 5.494 5.494 0 001.74-.693 2.844 2.844 0 01-1.221 1.598 5.559 5.559 0 001.575-.471 5.741 5.741 0 01-1.355 1.497z" fill="#110A1D"/></svg>